M48
;Layer_Color=9474304
;FILE_FORMAT=4:4
METRIC,TZ
;TYPE=PLATED
T1F00S00C0.3000
T2F00S00C0.5000
T3F00S00C0.9000
T4F00S00C1.1000
T5F00S00C1.4000
T6F00S00C1.7018
T7F00S00C3.9878
%
T01
X1153658Y929840
X1192500Y935000
X1287564Y935063
X1238702Y1007084
T02
X1258974Y106787
X1264824Y114897
X1270673Y123008
X1150292Y185171
X1156141Y193282
X1161991Y201392
X1058899Y162683
X1056684Y152931
X1054468Y143180
X923798Y172867
X926014Y182619
X928229Y192370
X857500Y220000
Y230000
Y240000
X723500
Y230000
Y220000
X764477Y449197
Y459197
Y469197
X715892Y497194
Y507194
X898477Y469197
Y459197
Y449197
X947658Y386964
Y376964
Y366964
X1081658
Y376964
Y386964
X581892Y497194
Y507194
X533300Y484374
Y474374
Y464374
X399300
Y474374
Y484374
X350660Y438399
Y428399
Y418399
X216660
Y428399
Y438399
X168030Y412724
Y402724
Y392724
X34030
Y402724
Y412724
X34086Y575353
Y585353
Y595353
X168086
Y585353
Y575353
X216700Y601029
Y611029
Y621029
X216800Y783658
Y793658
Y803658
X168143Y777982
Y767982
Y757982
X34143
Y767982
Y777982
X350800Y783658
Y793658
Y803658
X399453Y829632
Y839632
Y849632
X533453
Y839632
Y829632
X582005Y862452
Y872452
Y882452
X581948Y699823
Y689823
Y679823
X533397Y667003
Y657003
Y647003
X399397
Y657003
Y667003
X350700Y621029
Y611029
Y601029
X581892Y517194
X715892
X715948Y679823
Y689823
Y699823
X764533Y651826
Y641826
Y631826
X898533
Y641826
Y651826
X947617Y732238
Y742238
Y752238
X898589Y814455
Y824455
Y834455
X764589
Y824455
Y814455
X716005Y862452
Y872452
Y882452
X1081617Y752238
Y742238
Y732238
X1081561Y569609
Y559609
Y549609
X947561
Y559609
Y569609
X947552Y914867
Y924867
Y934867
X898849Y997084
Y1007084
Y1017084
X764849
Y1007084
Y997084
X716061Y1045081
Y1055081
Y1065081
X1081552Y934867
Y924867
Y914867
X582061Y1045081
Y1055081
Y1065081
X533509Y1032261
Y1022261
Y1012261
X399510
Y1022261
Y1032261
X350800Y986287
Y976287
Y966287
X216800
Y976287
Y986287
X168199Y960611
Y950611
Y940611
X34199
Y950611
Y960611
T03
X1282500Y829600
Y855000
Y880400
Y905800
T04
X1229898Y202721
X1250499Y187863
X1222500Y365000
X1027358Y427764
X1001958
X990219Y220126
X1014988Y214499
X803200Y280800
X777800
X818777Y509997
X844177
X296360Y479199
X270960
X113730Y453524
X88330
X88386Y636153
X113786
X113843Y818782
X88443
X271100Y844458
X296500
X296400Y661829
X271000
X453697Y707803
X479097
X479153Y890432
X453753
X636248Y740623
X661648
X661592Y557994
X636192
X479000Y525173
X453600
X818833Y692626
X844233
X844289Y875255
X818889
X1001917Y793038
X1027317
X1027261Y610409
X1001861
X1222500Y635000
X1027252Y975667
X1001852
X844549Y1057884
X819149
X661761Y1105881
X636361
X636305Y923252
X661705
X479210Y1073061
X453810
X296500Y1027087
X271100
X113899Y1001412
X88499
T05
X1005313Y114592
X1202556Y99678
X1226526Y111202
X1161354Y129394
X1164723Y155775
X1022875Y134565
X955776Y125846
X948568Y151447
X815900Y181232
X828600Y204600
X752400
X765100Y181232
X806077Y410429
X793377Y433797
X869577
X856877Y410429
X976558Y351564
X989258Y328196
X1040058
X1052758Y351564
X1039961Y510841
X989161
X686992Y481794
X674292Y458426
X623492
X610792Y481794
X504400Y448974
X491700Y425606
X440900
X428200Y448974
X321760Y402999
X309060Y379631
X258260
X245560Y402999
X139130Y377324
X126430Y353956
X75630
X62930Y377324
X75686Y536585
X62986Y559953
X139186
X126486Y536585
X258300Y562261
X245600Y585629
X309100Y562261
X309200Y744890
X258400
X245700Y768258
X139243Y742582
X126543Y719214
X75743
X63043Y742582
X75799Y901843
X126599
X321900Y768258
X441053Y790864
X428353Y814232
X504553
X491853Y790864
X623605Y823684
X610905Y847052
X687105
X674405Y823684
X687048Y664423
X674348Y641055
X623548
X610848Y664423
X504497Y631603
X491797Y608235
X440997
X428297Y631603
X321800Y585629
X806133Y593058
X793433Y616426
X869633
X856933Y593058
X976461Y534209
X1052661
X1040017Y693470
X1052717Y716838
X976517
X989217Y693470
X989152Y876099
X976452Y899467
X1052652
X1039952Y876099
X869689Y799055
X856989Y775687
X806189
X793489Y799055
X806449Y958316
X793749Y981684
X869949
X857249Y958316
X674461Y1006313
X687161Y1029681
X610961
X623661Y1006313
X504609Y996861
X491909Y973493
X441110
X428410Y996861
X321900Y950887
X309200Y927519
X258400
X245700Y950887
X139299Y925211
X63099
T06
X1169280Y183806
X1251684Y124374
X1040886Y156520
X941811Y179030
X841300Y230000
X739700
X780677Y459197
X882277
X963858Y376964
X1065458
X699692Y507194
X598092
X517100Y474374
X415500
X334460Y428399
X232860
X151830Y402724
X50230
X50286Y585353
X151886
X232900Y611029
X233000Y793658
X151943Y767982
X50343
X334600Y793658
X415653Y839632
X517253
X598205Y872452
X699805
X699748Y689823
X598148
X517197Y657003
X415597
X334500Y611029
X780733Y641826
X882333
X963761Y559609
X1065361
X1065417Y742238
X963817
X882389Y824455
X780789
X781049Y1007084
X882649
X963752Y924867
X1065352
X699861Y1055081
X598261
X517309Y1022261
X415709
X334600Y976287
X233000
X151999Y950611
X50399
T07
X1210482Y154090
X991349Y167775
X1014658Y376964
X831477Y459197
X790500Y230000
X648892Y507194
X466300Y474374
X283660Y428399
X101030Y402724
X101086Y585353
X101143Y767982
X283800Y793658
X283700Y611029
X466397Y657003
X466453Y839632
X649005Y872452
X648948Y689823
X831533Y641826
X831589Y824455
X1014617Y742238
X1014561Y559609
X1014552Y924867
X831849Y1007084
X649061Y1055081
X466510Y1022261
X283800Y976287
X101199Y950611
M30
