G04*
G04 #@! TF.GenerationSoftware,Altium Limited,Altium Designer,23.0.1 (38)*
G04*
G04 Layer_Color=65535*
%FSLAX44Y44*%
%MOMM*%
G71*
G04*
G04 #@! TF.SameCoordinates,0B1D91C4-5DF2-49A7-A8E5-8765CD2E41FD*
G04*
G04*
G04 #@! TF.FilePolarity,Positive*
G04*
G01*
G75*
%ADD10C,0.4000*%
D10*
X1287513Y355342D02*
Y382000D01*
Y368671D01*
X1327500D01*
X1287513Y415322D02*
Y401993D01*
X1294177Y395329D01*
X1320836D01*
X1327500Y401993D01*
Y415322D01*
X1320836Y421987D01*
X1294177D01*
X1287513Y415322D01*
X1294177Y461974D02*
X1287513Y455309D01*
Y441980D01*
X1294177Y435316D01*
X1300842D01*
X1307507Y441980D01*
Y455309D01*
X1314171Y461974D01*
X1320836D01*
X1327500Y455309D01*
Y441980D01*
X1320836Y435316D01*
X1287513Y475303D02*
Y488632D01*
Y481967D01*
X1327500D01*
Y475303D01*
Y488632D01*
Y288342D02*
X1287513D01*
X1300842Y301671D01*
X1287513Y315000D01*
X1327500D01*
X1287513Y328329D02*
Y341658D01*
Y334993D01*
X1327500D01*
Y328329D01*
Y341658D01*
X1294177Y528000D02*
X1287513Y521335D01*
Y508006D01*
X1294177Y501342D01*
X1300842D01*
X1307507Y508006D01*
Y521335D01*
X1314171Y528000D01*
X1320836D01*
X1327500Y521335D01*
Y508006D01*
X1320836Y501342D01*
M02*
