G04*
G04 #@! TF.GenerationSoftware,Altium Limited,Altium Designer,23.0.1 (38)*
G04*
G04 Layer_Physical_Order=2*
G04 Layer_Color=16711680*
%FSLAX44Y44*%
%MOMM*%
G71*
G04*
G04 #@! TF.SameCoordinates,0B1D91C4-5DF2-49A7-A8E5-8765CD2E41FD*
G04*
G04*
G04 #@! TF.FilePolarity,Positive*
G04*
G01*
G75*
G04:AMPARAMS|DCode=13|XSize=15mm|YSize=8.5mm|CornerRadius=2.125mm|HoleSize=0mm|Usage=FLASHONLY|Rotation=90.000|XOffset=0mm|YOffset=0mm|HoleType=Round|Shape=RoundedRectangle|*
%AMROUNDEDRECTD13*
21,1,15.0000,4.2500,0,0,90.0*
21,1,10.7500,8.5000,0,0,90.0*
1,1,4.2500,2.1250,5.3750*
1,1,4.2500,2.1250,-5.3750*
1,1,4.2500,-2.1250,-5.3750*
1,1,4.2500,-2.1250,5.3750*
%
%ADD13ROUNDEDRECTD13*%
%ADD28C,1.7000*%
%ADD29C,1.1000*%
%ADD30C,0.2540*%
%ADD31C,0.5000*%
%ADD32C,1.6000*%
%ADD33C,1.0000*%
%ADD34C,4.3000*%
%ADD35C,2.0000*%
%ADD36C,2.5000*%
%ADD37O,2.5000X1.8000*%
G04:AMPARAMS|DCode=38|XSize=2.5mm|YSize=1.8mm|CornerRadius=0mm|HoleSize=0mm|Usage=FLASHONLY|Rotation=324.200|XOffset=0mm|YOffset=0mm|HoleType=Round|Shape=Round|*
%AMOVALD38*
21,1,0.7000,1.8000,0.0000,0.0000,324.2*
1,1,1.8000,-0.2839,0.2047*
1,1,1.8000,0.2839,-0.2047*
%
%ADD38OVALD38*%

G04:AMPARAMS|DCode=39|XSize=2.5mm|YSize=1.8mm|CornerRadius=0mm|HoleSize=0mm|Usage=FLASHONLY|Rotation=347.200|XOffset=0mm|YOffset=0mm|HoleType=Round|Shape=Round|*
%AMOVALD39*
21,1,0.7000,1.8000,0.0000,0.0000,347.2*
1,1,1.8000,-0.3413,0.0775*
1,1,1.8000,0.3413,-0.0775*
%
%ADD39OVALD39*%

%ADD40R,1.5000X1.5000*%
%ADD41C,1.5000*%
%ADD42C,0.6000*%
G04:AMPARAMS|DCode=43|XSize=1.35mm|YSize=1.7mm|CornerRadius=0.3375mm|HoleSize=0mm|Usage=FLASHONLY|Rotation=90.000|XOffset=0mm|YOffset=0mm|HoleType=Round|Shape=RoundedRectangle|*
%AMROUNDEDRECTD43*
21,1,1.3500,1.0250,0,0,90.0*
21,1,0.6750,1.7000,0,0,90.0*
1,1,0.6750,0.5125,0.3375*
1,1,0.6750,0.5125,-0.3375*
1,1,0.6750,-0.5125,-0.3375*
1,1,0.6750,-0.5125,0.3375*
%
%ADD43ROUNDEDRECTD43*%
G04:AMPARAMS|DCode=44|XSize=1.35mm|YSize=1.7mm|CornerRadius=0.3375mm|HoleSize=0mm|Usage=FLASHONLY|Rotation=180.000|XOffset=0mm|YOffset=0mm|HoleType=Round|Shape=RoundedRectangle|*
%AMROUNDEDRECTD44*
21,1,1.3500,1.0250,0,0,180.0*
21,1,0.6750,1.7000,0,0,180.0*
1,1,0.6750,-0.3375,0.5125*
1,1,0.6750,0.3375,0.5125*
1,1,0.6750,0.3375,-0.5125*
1,1,0.6750,-0.3375,-0.5125*
%
%ADD44ROUNDEDRECTD44*%
G04:AMPARAMS|DCode=45|XSize=0.65mm|YSize=1.55mm|CornerRadius=0.1625mm|HoleSize=0mm|Usage=FLASHONLY|Rotation=180.000|XOffset=0mm|YOffset=0mm|HoleType=Round|Shape=RoundedRectangle|*
%AMROUNDEDRECTD45*
21,1,0.6500,1.2250,0,0,180.0*
21,1,0.3250,1.5500,0,0,180.0*
1,1,0.3250,-0.1625,0.6125*
1,1,0.3250,0.1625,0.6125*
1,1,0.3250,0.1625,-0.6125*
1,1,0.3250,-0.1625,-0.6125*
%
%ADD45ROUNDEDRECTD45*%
D13*
X1222500Y500000D02*
D03*
D28*
X687105Y847052D02*
X699805Y872452D01*
X598205D02*
X610905Y847052D01*
X674405Y823684D02*
X687105Y847052D01*
X610905D02*
X623605Y823684D01*
X428410Y996861D02*
X441110Y973493D01*
X491909D02*
X504609Y996861D01*
X415709Y1022261D02*
X428410Y996861D01*
X504609D02*
X517309Y1022261D01*
X869949Y981684D02*
X882649Y1007084D01*
X781049D02*
X793749Y981684D01*
X857249Y958316D02*
X869949Y981684D01*
X793749D02*
X806449Y958316D01*
X1161354Y129394D02*
X1164723Y155775D01*
X1202556Y99678D02*
X1226526Y111202D01*
X1164723Y155775D02*
X1169280Y183806D01*
X1226526Y111202D02*
X1251684Y124374D01*
X1022875Y134565D02*
X1040886Y156520D01*
X941811Y179030D02*
X948568Y151447D01*
X1005313Y114592D02*
X1022875Y134565D01*
X948568Y151447D02*
X955776Y125846D01*
X752400Y204600D02*
X765100Y181232D01*
X815900D02*
X828600Y204600D01*
X739700Y230000D02*
X752400Y204600D01*
X828600D02*
X841300Y230000D01*
X1052758Y351564D02*
X1065458Y376964D01*
X963858D02*
X976558Y351564D01*
X1040058Y328196D02*
X1052758Y351564D01*
X976558D02*
X989258Y328196D01*
X62930Y377324D02*
X75630Y353956D01*
X126430D02*
X139130Y377324D01*
X50230Y402724D02*
X62930Y377324D01*
X139130D02*
X151830Y402724D01*
X139186Y559953D02*
X151886Y585353D01*
X50286D02*
X62986Y559953D01*
X126486Y536585D02*
X139186Y559953D01*
X62986D02*
X75686Y536585D01*
X63043Y742582D02*
X75743Y719214D01*
X126543D02*
X139243Y742582D01*
X50343Y767982D02*
X63043Y742582D01*
X139243D02*
X151943Y767982D01*
X139299Y925211D02*
X151999Y950611D01*
X50399D02*
X63099Y925211D01*
X126599Y901843D02*
X139299Y925211D01*
X63099D02*
X75799Y901843D01*
X245560Y402999D02*
X258260Y379631D01*
X309060D02*
X321760Y402999D01*
X232860Y428399D02*
X245560Y402999D01*
X321760D02*
X334460Y428399D01*
X504400Y448974D02*
X517100Y474374D01*
X415500D02*
X428200Y448974D01*
X491700Y425606D02*
X504400Y448974D01*
X428200D02*
X440900Y425606D01*
X245600Y585629D02*
X258300Y562261D01*
X309100D02*
X321800Y585629D01*
X232900Y611029D02*
X245600Y585629D01*
X321800D02*
X334500Y611029D01*
X1052661Y534209D02*
X1065361Y559609D01*
X963761D02*
X976461Y534209D01*
X1039961Y510841D02*
X1052661Y534209D01*
X976461D02*
X989161Y510841D01*
X976517Y716838D02*
X989217Y693470D01*
X1040017D02*
X1052717Y716838D01*
X963817Y742238D02*
X976517Y716838D01*
X1052717D02*
X1065417Y742238D01*
X687048Y664423D02*
X699748Y689823D01*
X598148D02*
X610848Y664423D01*
X674348Y641055D02*
X687048Y664423D01*
X610848D02*
X623548Y641055D01*
X793489Y799055D02*
X806189Y775687D01*
X856989D02*
X869689Y799055D01*
X780789Y824455D02*
X793489Y799055D01*
X869689D02*
X882389Y824455D01*
X321900Y950887D02*
X334600Y976287D01*
X233000D02*
X245700Y950887D01*
X309200Y927519D02*
X321900Y950887D01*
X245700D02*
X258400Y927519D01*
X245700Y768258D02*
X258400Y744890D01*
X309200D02*
X321900Y768258D01*
X233000Y793658D02*
X245700Y768258D01*
X321900D02*
X334600Y793658D01*
X504553Y814232D02*
X517253Y839632D01*
X415653D02*
X428353Y814232D01*
X491853Y790864D02*
X504553Y814232D01*
X428353D02*
X441053Y790864D01*
X976452Y899467D02*
X989152Y876099D01*
X1039952D02*
X1052652Y899467D01*
X963752Y924867D02*
X976452Y899467D01*
X1052652D02*
X1065352Y924867D01*
X687161Y1029681D02*
X699861Y1055081D01*
X598261D02*
X610961Y1029681D01*
X674461Y1006313D02*
X687161Y1029681D01*
X610961D02*
X623661Y1006313D01*
X610792Y481794D02*
X623492Y458426D01*
X674292D02*
X686992Y481794D01*
X598092Y507194D02*
X610792Y481794D01*
X686992D02*
X699692Y507194D01*
X869633Y616426D02*
X882333Y641826D01*
X780733D02*
X793433Y616426D01*
X856933Y593058D02*
X869633Y616426D01*
X793433D02*
X806133Y593058D01*
X793377Y433797D02*
X806077Y410429D01*
X856877D02*
X869577Y433797D01*
X780677Y459197D02*
X793377Y433797D01*
X869577D02*
X882277Y459197D01*
X504497Y631603D02*
X517197Y657003D01*
X415597D02*
X428297Y631603D01*
X491797Y608235D02*
X504497Y631603D01*
X428297D02*
X440997Y608235D01*
D29*
X686005Y882452D02*
X716005D01*
X686005Y853452D02*
Y882452D01*
X692005Y862452D02*
X716005D01*
X699805Y872452D02*
X716005D01*
Y862452D02*
Y882452D01*
X582005Y862452D02*
Y882452D01*
Y872452D02*
X598205D01*
X582005Y862452D02*
X606005D01*
X612005Y853452D02*
Y882452D01*
X582005D02*
X612005D01*
X399510Y1032261D02*
X429510D01*
Y1003261D02*
Y1032261D01*
X399510Y1012261D02*
X423509D01*
X399510Y1022261D02*
X415709D01*
X399510Y1012261D02*
Y1032261D01*
X533509Y1012261D02*
Y1032261D01*
X517309Y1022261D02*
X533509D01*
X509510Y1012261D02*
X533509D01*
X503509Y1003261D02*
Y1032261D01*
X533509D01*
X868849Y1017084D02*
X898849D01*
X868849Y988084D02*
Y1017084D01*
X874849Y997084D02*
X898849D01*
X882649Y1007084D02*
X898849D01*
Y997084D02*
Y1017084D01*
X764849Y997084D02*
Y1017084D01*
Y1007084D02*
X781049D01*
X764849Y997084D02*
X788849D01*
X794849Y988084D02*
Y1017084D01*
X764849D02*
X794849D01*
X1161991Y201392D02*
X1186323Y183844D01*
X1169359Y160323D02*
X1186323Y183844D01*
X1150292Y185171D02*
X1169757Y171132D01*
X1156141Y193282D02*
X1169280Y183806D01*
X1150292Y185171D02*
X1161991Y201392D01*
X1258974Y106787D02*
X1270673Y123008D01*
X1251684Y124374D02*
X1264824Y114897D01*
X1239509Y120826D02*
X1258974Y106787D01*
X1229378Y117036D02*
X1246341Y140557D01*
X1270673Y123008D01*
X1029645Y169329D02*
X1058899Y162683D01*
X1023220Y141050D02*
X1029645Y169329D01*
X1031065Y148497D02*
X1054468Y143180D01*
X1040886Y156520D02*
X1056684Y152931D01*
X1054468Y143180D02*
X1058899Y162683D01*
X923798Y172867D02*
X928229Y192370D01*
X926014Y182619D02*
X941811Y179030D01*
X923798Y172867D02*
X947202Y167550D01*
X951059Y157444D02*
X957484Y185724D01*
X928229Y192370D02*
X957484Y185724D01*
X723500Y240000D02*
X753500D01*
Y211000D02*
Y240000D01*
X723500Y220000D02*
X747500D01*
X723500Y230000D02*
X739700D01*
X723500Y220000D02*
Y240000D01*
X857500Y220000D02*
Y240000D01*
X841300Y230000D02*
X857500D01*
X833500Y220000D02*
X857500D01*
X827500Y211000D02*
Y240000D01*
X857500D01*
X1051658Y386964D02*
X1081658D01*
X1051658Y357964D02*
Y386964D01*
X1057658Y366964D02*
X1081658D01*
X1065458Y376964D02*
X1081658D01*
Y366964D02*
Y386964D01*
X947658Y366964D02*
Y386964D01*
Y376964D02*
X963858D01*
X947658Y366964D02*
X971658D01*
X977658Y357964D02*
Y386964D01*
X947658D02*
X977658D01*
X34030Y412724D02*
X64030D01*
Y383724D02*
Y412724D01*
X34030Y392724D02*
X58030D01*
X34030Y402724D02*
X50230D01*
X34030Y392724D02*
Y412724D01*
X168030Y392724D02*
Y412724D01*
X151830Y402724D02*
X168030D01*
X144030Y392724D02*
X168030D01*
X138030Y383724D02*
Y412724D01*
X168030D01*
X138086Y595353D02*
X168086D01*
X138086Y566353D02*
Y595353D01*
X144086Y575353D02*
X168086D01*
X151886Y585353D02*
X168086D01*
Y575353D02*
Y595353D01*
X34086Y575353D02*
Y595353D01*
Y585353D02*
X50286D01*
X34086Y575353D02*
X58086D01*
X64086Y566353D02*
Y595353D01*
X34086D02*
X64086D01*
X34143Y777982D02*
X64143D01*
Y748982D02*
Y777982D01*
X34143Y757982D02*
X58143D01*
X34143Y767982D02*
X50343D01*
X34143Y757982D02*
Y777982D01*
X168143Y757982D02*
Y777982D01*
X151943Y767982D02*
X168143D01*
X144143Y757982D02*
X168143D01*
X138143Y748982D02*
Y777982D01*
X168143D01*
X138199Y960611D02*
X168199D01*
X138199Y931611D02*
Y960611D01*
X144199Y940611D02*
X168199D01*
X151999Y950611D02*
X168199D01*
Y940611D02*
Y960611D01*
X34199Y940611D02*
Y960611D01*
Y950611D02*
X50399D01*
X34199Y940611D02*
X58199D01*
X64199Y931611D02*
Y960611D01*
X34199D02*
X64199D01*
X216660Y438399D02*
X246660D01*
Y409399D02*
Y438399D01*
X216660Y418399D02*
X240660D01*
X216660Y428399D02*
X232860D01*
X216660Y418399D02*
Y438399D01*
X350660Y418399D02*
Y438399D01*
X334460Y428399D02*
X350660D01*
X326660Y418399D02*
X350660D01*
X320660Y409399D02*
Y438399D01*
X350660D01*
X503300Y484374D02*
X533300D01*
X503300Y455373D02*
Y484374D01*
X509300Y464374D02*
X533300D01*
X517100Y474374D02*
X533300D01*
Y464374D02*
Y484374D01*
X399300Y464374D02*
Y484374D01*
Y474374D02*
X415500D01*
X399300Y464374D02*
X423300D01*
X429300Y455373D02*
Y484374D01*
X399300D02*
X429300D01*
X216700Y621029D02*
X246700D01*
Y592029D02*
Y621029D01*
X216700Y601029D02*
X240700D01*
X216700Y611029D02*
X232900D01*
X216700Y601029D02*
Y621029D01*
X350700Y601029D02*
Y621029D01*
X334500Y611029D02*
X350700D01*
X326700Y601029D02*
X350700D01*
X320700Y592029D02*
Y621029D01*
X350700D01*
X1051561Y569609D02*
X1081561D01*
X1051561Y540609D02*
Y569609D01*
X1057561Y549609D02*
X1081561D01*
X1065361Y559609D02*
X1081561D01*
Y549609D02*
Y569609D01*
X947561Y549609D02*
Y569609D01*
Y559609D02*
X963761D01*
X947561Y549609D02*
X971561D01*
X977561Y540609D02*
Y569609D01*
X947561D02*
X977561D01*
X947617Y752238D02*
X977617D01*
Y723238D02*
Y752238D01*
X947617Y732238D02*
X971617D01*
X947617Y742238D02*
X963817D01*
X947617Y732238D02*
Y752238D01*
X1081617Y732238D02*
Y752238D01*
X1065417Y742238D02*
X1081617D01*
X1057617Y732238D02*
X1081617D01*
X1051617Y723238D02*
Y752238D01*
X1081617D01*
X685948Y699823D02*
X715948D01*
X685948Y670823D02*
Y699823D01*
X691948Y679823D02*
X715948D01*
X699748Y689823D02*
X715948D01*
Y679823D02*
Y699823D01*
X581948Y679823D02*
Y699823D01*
Y689823D02*
X598148D01*
X581948Y679823D02*
X605948D01*
X611948Y670823D02*
Y699823D01*
X581948D02*
X611948D01*
X764589Y834455D02*
X794589D01*
Y805455D02*
Y834455D01*
X764589Y814455D02*
X788589D01*
X764589Y824455D02*
X780789D01*
X764589Y814455D02*
Y834455D01*
X898589Y814455D02*
Y834455D01*
X882389Y824455D02*
X898589D01*
X874589Y814455D02*
X898589D01*
X868589Y805455D02*
Y834455D01*
X898589D01*
X320800Y986287D02*
X350800D01*
X320800Y957287D02*
Y986287D01*
X326800Y966287D02*
X350800D01*
X334600Y976287D02*
X350800D01*
Y966287D02*
Y986287D01*
X216800Y966287D02*
Y986287D01*
Y976287D02*
X233000D01*
X216800Y966287D02*
X240800D01*
X246800Y957287D02*
Y986287D01*
X216800D02*
X246800D01*
X216800Y803658D02*
X246800D01*
Y774658D02*
Y803658D01*
X216800Y783658D02*
X240800D01*
X216800Y793658D02*
X233000D01*
X216800Y783658D02*
Y803658D01*
X350800Y783658D02*
Y803658D01*
X334600Y793658D02*
X350800D01*
X326800Y783658D02*
X350800D01*
X320800Y774658D02*
Y803658D01*
X350800D01*
X503453Y849632D02*
X533453D01*
X503453Y820632D02*
Y849632D01*
X509453Y829632D02*
X533453D01*
X517253Y839632D02*
X533453D01*
Y829632D02*
Y849632D01*
X399453Y829632D02*
Y849632D01*
Y839632D02*
X415653D01*
X399453Y829632D02*
X423453D01*
X429453Y820632D02*
Y849632D01*
X399453D02*
X429453D01*
X947552Y934867D02*
X977552D01*
Y905867D02*
Y934867D01*
X947552Y914867D02*
X971552D01*
X947552Y924867D02*
X963752D01*
X947552Y914867D02*
Y934867D01*
X1081552Y914867D02*
Y934867D01*
X1065352Y924867D02*
X1081552D01*
X1057552Y914867D02*
X1081552D01*
X1051552Y905867D02*
Y934867D01*
X1081552D01*
X686061Y1065081D02*
X716061D01*
X686061Y1036081D02*
Y1065081D01*
X692061Y1045081D02*
X716061D01*
X699861Y1055081D02*
X716061D01*
Y1045081D02*
Y1065081D01*
X582061Y1045081D02*
Y1065081D01*
Y1055081D02*
X598261D01*
X582061Y1045081D02*
X606061D01*
X612061Y1036081D02*
Y1065081D01*
X582061D02*
X612061D01*
X581892Y517194D02*
X611892D01*
Y488194D02*
Y517194D01*
X581892Y497194D02*
X605892D01*
X581892Y507194D02*
X598092D01*
X581892Y497194D02*
Y517194D01*
X715892Y497194D02*
Y517194D01*
X699692Y507194D02*
X715892D01*
X691892Y497194D02*
X715892D01*
X685892Y488194D02*
Y517194D01*
X715892D01*
X868533Y651826D02*
X898533D01*
X868533Y622826D02*
Y651826D01*
X874533Y631826D02*
X898533D01*
X882333Y641826D02*
X898533D01*
Y631826D02*
Y651826D01*
X764533Y631826D02*
Y651826D01*
Y641826D02*
X780733D01*
X764533Y631826D02*
X788533D01*
X794533Y622826D02*
Y651826D01*
X764533D02*
X794533D01*
X764477Y469197D02*
X794477D01*
Y440197D02*
Y469197D01*
X764477Y449197D02*
X788477D01*
X764477Y459197D02*
X780677D01*
X764477Y449197D02*
Y469197D01*
X898477Y449197D02*
Y469197D01*
X882277Y459197D02*
X898477D01*
X874477Y449197D02*
X898477D01*
X868477Y440197D02*
Y469197D01*
X898477D01*
X503397Y667003D02*
X533397D01*
X503397Y638003D02*
Y667003D01*
X509397Y647003D02*
X533397D01*
X517197Y657003D02*
X533397D01*
Y647003D02*
Y667003D01*
X399397Y647003D02*
Y667003D01*
Y657003D02*
X415597D01*
X399397Y647003D02*
X423397D01*
X429397Y638003D02*
Y667003D01*
X399397D02*
X429397D01*
D30*
X210406Y777264D02*
X216800Y783658D01*
X941267Y725887D02*
X947618Y732238D01*
X389325Y329430D02*
X392500D01*
Y331525D01*
X1124423Y225000D02*
X1125167Y224256D01*
X210675Y329430D02*
X389325D01*
X392500Y331525D02*
Y457574D01*
X1125167Y224256D02*
X1156141Y193282D01*
X898849Y1007084D02*
X1238702D01*
X943018Y254051D02*
X943763D01*
X944155Y253659D01*
X1070299Y225000D01*
X924569Y272500D02*
X943018Y254051D01*
X1070299Y225000D02*
X1124423D01*
X924569Y272500D02*
Y343875D01*
X924749Y344055D02*
X947658Y366964D01*
X924569Y196031D02*
Y272246D01*
X579842Y383658D02*
X634071Y329430D01*
X723500Y240000D01*
X392500Y329430D02*
X634071D01*
X210366Y359378D02*
Y412106D01*
Y359378D02*
X210675Y359069D01*
X210366Y412106D02*
X216660Y418400D01*
X210675Y329430D02*
Y359069D01*
X32009Y329430D02*
X210675D01*
X27736Y333702D02*
X32009Y329430D01*
X575598Y388156D02*
Y490899D01*
Y387902D02*
X579662Y383838D01*
X699118D01*
X762130Y473562D02*
X764477Y471215D01*
Y629752D02*
Y631770D01*
X758183Y622791D02*
X762186Y626794D01*
X758183Y478175D02*
X762130Y474229D01*
X762186Y627460D02*
X764477Y629752D01*
X758183Y478175D02*
Y622791D01*
X762186Y626794D02*
Y627460D01*
X762130Y473562D02*
Y474229D01*
X764477Y469197D02*
Y471215D01*
X754993Y383838D02*
X758183Y387028D01*
Y440218D01*
X762129Y444165D02*
Y444831D01*
X754993Y383838D02*
X898434D01*
X764477Y447178D02*
Y449197D01*
X762129Y444831D02*
X764477Y447178D01*
X758183Y440218D02*
X762129Y444165D01*
X699372Y383838D02*
X754993D01*
X1185000Y935000D02*
X1192500D01*
X1132738Y882738D02*
X1185000Y935000D01*
X1228600D02*
X1232000Y931600D01*
X1189500Y985000D02*
X1192500Y982000D01*
Y935000D02*
X1228600D01*
X1192500D02*
Y982000D01*
X1132738Y718044D02*
Y882738D01*
X1287564Y935063D02*
X1287627Y935127D01*
X1287500Y935000D02*
X1287564Y935063D01*
X941267Y628630D02*
Y725887D01*
Y628630D02*
X981581Y668944D01*
X940007Y627370D02*
X941267Y628630D01*
X898434Y383838D02*
X940007Y425412D01*
Y627370D01*
X981581Y668944D02*
X1083638D01*
X1132738Y718044D01*
X758295Y840749D02*
Y990530D01*
X758239Y658120D02*
Y808105D01*
X764589Y814455D01*
X392500Y457574D02*
X399300Y464374D01*
X575598Y490899D02*
X581892Y497193D01*
X27736Y386430D02*
X34031Y392724D01*
X27736Y333702D02*
Y386430D01*
X924569Y196031D02*
X928229Y192371D01*
X1235400Y935000D02*
X1287500D01*
X1232000Y931600D02*
X1235400Y935000D01*
X1232000Y906500D02*
Y931600D01*
X1142500Y940998D02*
X1153658Y929840D01*
X1142500Y940998D02*
Y958000D01*
Y982000D02*
X1162499D01*
X1165500Y985000D01*
X1222500Y735000D02*
Y880000D01*
X1262732Y905800D02*
X1282500D01*
X1251702Y894770D02*
X1262732Y905800D01*
X1224730Y894770D02*
X1251702D01*
X1213000Y906500D02*
X1224730Y894770D01*
X27736Y419018D02*
X34031Y412724D01*
X27736Y419018D02*
Y569003D01*
X34086Y575353D01*
X210366Y444693D02*
X216660Y438400D01*
X210366Y444693D02*
Y594694D01*
X216700Y601029D01*
X399300Y484374D02*
X399300D01*
X393006Y490668D02*
X399300Y484374D01*
X393006Y490668D02*
Y640611D01*
X399397Y647003D01*
X34086Y595353D02*
Y595353D01*
X27792Y601647D02*
X34086Y595353D01*
X27792Y601647D02*
Y751632D01*
X34143Y757982D01*
X575598Y523488D02*
X581892Y517193D01*
X575598Y523488D02*
Y673473D01*
X581949Y679823D01*
X216700Y621029D02*
X216700D01*
X210406Y627323D02*
X216700Y621029D01*
X210406Y627323D02*
Y777264D01*
X393103Y673297D02*
X399397Y667003D01*
X393103Y673297D02*
Y823282D01*
X399453Y829632D01*
X27849Y784276D02*
X34143Y777982D01*
X27849Y784276D02*
Y934261D01*
X34199Y940611D01*
X758239Y658120D02*
X764532Y651826D01*
X759864Y813028D02*
X761292Y814455D01*
X764589D01*
X575654Y706118D02*
X581949Y699823D01*
X575654Y706118D02*
Y856102D01*
X582005Y862452D01*
X210506Y809952D02*
X216800Y803658D01*
X210506Y809952D02*
Y959992D01*
X216800Y966287D01*
X392500Y856585D02*
X399453Y849632D01*
X392500Y856585D02*
Y1005252D01*
X399510Y1012261D01*
X758295Y840749D02*
X764589Y834455D01*
X758295Y990530D02*
X764849Y997084D01*
X575710Y888746D02*
X582005Y882452D01*
X575710Y888746D02*
Y1038731D01*
X582061Y1045082D01*
X941267Y393355D02*
X947658Y386964D01*
X941267Y393355D02*
Y543314D01*
X947561Y549608D01*
X941258Y758597D02*
X947618Y752238D01*
X941258Y758597D02*
Y908573D01*
X947552Y914867D01*
D31*
X1222500Y500000D02*
Y635000D01*
Y735000D01*
Y880000D02*
X1222700Y880200D01*
X1282300D01*
X1282500Y880400D01*
D32*
X636305Y923252D02*
D03*
X661705D02*
D03*
X479210Y1073061D02*
D03*
X453810D02*
D03*
X819149Y1057884D02*
D03*
X844549D02*
D03*
X1250499Y187863D02*
D03*
X1229898Y202721D02*
D03*
X990219Y220126D02*
D03*
X1014988Y214499D02*
D03*
X803200Y280800D02*
D03*
X777800D02*
D03*
X1001958Y427764D02*
D03*
X1027358D02*
D03*
X113730Y453524D02*
D03*
X88330D02*
D03*
X88386Y636153D02*
D03*
X113786D02*
D03*
X113843Y818782D02*
D03*
X88443D02*
D03*
X88499Y1001412D02*
D03*
X113899D02*
D03*
X296360Y479199D02*
D03*
X270960D02*
D03*
X453600Y525173D02*
D03*
X479000D02*
D03*
X296400Y661829D02*
D03*
X271000D02*
D03*
X1001861Y610409D02*
D03*
X1027261D02*
D03*
X1027317Y793038D02*
D03*
X1001917D02*
D03*
X636248Y740623D02*
D03*
X661648D02*
D03*
X844289Y875255D02*
D03*
X818889D02*
D03*
X271100Y1027087D02*
D03*
X296500D02*
D03*
Y844458D02*
D03*
X271100D02*
D03*
X453753Y890432D02*
D03*
X479153D02*
D03*
X1027252Y975667D02*
D03*
X1001852D02*
D03*
X636361Y1105881D02*
D03*
X661761D02*
D03*
X661592Y557994D02*
D03*
X636192D02*
D03*
X818833Y692626D02*
D03*
X844233D02*
D03*
X844177Y509997D02*
D03*
X818777D02*
D03*
X453697Y707803D02*
D03*
X479097D02*
D03*
D33*
X716005Y862452D02*
D03*
Y882452D02*
D03*
Y872452D02*
D03*
X582005D02*
D03*
Y862452D02*
D03*
Y882452D02*
D03*
X399510Y1032261D02*
D03*
Y1012261D02*
D03*
Y1022261D02*
D03*
X533509D02*
D03*
Y1032261D02*
D03*
Y1012261D02*
D03*
X898849Y997084D02*
D03*
Y1017084D02*
D03*
Y1007084D02*
D03*
X764849D02*
D03*
Y997084D02*
D03*
Y1017084D02*
D03*
X1161991Y201392D02*
D03*
X1150292Y185171D02*
D03*
X1156141Y193282D02*
D03*
X1264824Y114897D02*
D03*
X1270673Y123008D02*
D03*
X1258974Y106787D02*
D03*
X1054468Y143180D02*
D03*
X1058899Y162683D02*
D03*
X1056684Y152931D02*
D03*
X926014Y182619D02*
D03*
X923798Y172867D02*
D03*
X928229Y192370D02*
D03*
X723500Y240000D02*
D03*
Y220000D02*
D03*
Y230000D02*
D03*
X857500D02*
D03*
Y240000D02*
D03*
Y220000D02*
D03*
X1081658Y366964D02*
D03*
Y386964D02*
D03*
Y376964D02*
D03*
X947658D02*
D03*
Y366964D02*
D03*
Y386964D02*
D03*
X34030Y412724D02*
D03*
Y392724D02*
D03*
Y402724D02*
D03*
X168030D02*
D03*
Y412724D02*
D03*
Y392724D02*
D03*
X168086Y575353D02*
D03*
Y595353D02*
D03*
Y585353D02*
D03*
X34086D02*
D03*
Y575353D02*
D03*
Y595353D02*
D03*
X34143Y777982D02*
D03*
Y757982D02*
D03*
Y767982D02*
D03*
X168143D02*
D03*
Y777982D02*
D03*
Y757982D02*
D03*
X168199Y940611D02*
D03*
Y960611D02*
D03*
Y950611D02*
D03*
X34199D02*
D03*
Y940611D02*
D03*
Y960611D02*
D03*
X216660Y438399D02*
D03*
Y418399D02*
D03*
Y428399D02*
D03*
X350660D02*
D03*
Y438399D02*
D03*
Y418399D02*
D03*
X533300Y464374D02*
D03*
Y484374D02*
D03*
Y474374D02*
D03*
X399300D02*
D03*
Y464374D02*
D03*
Y484374D02*
D03*
X216700Y621029D02*
D03*
Y601029D02*
D03*
Y611029D02*
D03*
X350700D02*
D03*
Y621029D02*
D03*
Y601029D02*
D03*
X1081561Y549609D02*
D03*
Y569609D02*
D03*
Y559609D02*
D03*
X947561D02*
D03*
Y549609D02*
D03*
Y569609D02*
D03*
X947617Y752238D02*
D03*
Y732238D02*
D03*
Y742238D02*
D03*
X1081617D02*
D03*
Y752238D02*
D03*
Y732238D02*
D03*
X715948Y679823D02*
D03*
Y699823D02*
D03*
Y689823D02*
D03*
X581948D02*
D03*
Y679823D02*
D03*
Y699823D02*
D03*
X764589Y834455D02*
D03*
Y814455D02*
D03*
Y824455D02*
D03*
X898589D02*
D03*
Y834455D02*
D03*
Y814455D02*
D03*
X350800Y966287D02*
D03*
Y986287D02*
D03*
Y976287D02*
D03*
X216800D02*
D03*
Y966287D02*
D03*
Y986287D02*
D03*
Y803658D02*
D03*
Y783658D02*
D03*
Y793658D02*
D03*
X350800D02*
D03*
Y803658D02*
D03*
Y783658D02*
D03*
X533453Y829632D02*
D03*
Y849632D02*
D03*
Y839632D02*
D03*
X399453D02*
D03*
Y829632D02*
D03*
Y849632D02*
D03*
X947552Y934867D02*
D03*
Y914867D02*
D03*
Y924867D02*
D03*
X1081552D02*
D03*
Y934867D02*
D03*
Y914867D02*
D03*
X716061Y1045081D02*
D03*
Y1065081D02*
D03*
Y1055081D02*
D03*
X582061D02*
D03*
Y1045081D02*
D03*
Y1065081D02*
D03*
X581892Y517194D02*
D03*
Y497194D02*
D03*
Y507194D02*
D03*
X715892D02*
D03*
Y517194D02*
D03*
Y497194D02*
D03*
X898533Y631826D02*
D03*
Y651826D02*
D03*
Y641826D02*
D03*
X764533D02*
D03*
Y631826D02*
D03*
Y651826D02*
D03*
X764477Y469197D02*
D03*
Y449197D02*
D03*
Y459197D02*
D03*
X898477D02*
D03*
Y469197D02*
D03*
Y449197D02*
D03*
X533397Y647003D02*
D03*
Y667003D02*
D03*
Y657003D02*
D03*
X399397D02*
D03*
Y647003D02*
D03*
Y667003D02*
D03*
D34*
X649005Y872452D02*
D03*
X466510Y1022261D02*
D03*
X831849Y1007084D02*
D03*
X1210482Y154090D02*
D03*
X991349Y167775D02*
D03*
X790500Y230000D02*
D03*
X1014658Y376964D02*
D03*
X101030Y402724D02*
D03*
X101086Y585353D02*
D03*
X101143Y767982D02*
D03*
X101199Y950611D02*
D03*
X283660Y428399D02*
D03*
X466300Y474374D02*
D03*
X283700Y611029D02*
D03*
X1014561Y559609D02*
D03*
X1014617Y742238D02*
D03*
X648948Y689823D02*
D03*
X831589Y824455D02*
D03*
X283800Y976287D02*
D03*
Y793658D02*
D03*
X466453Y839632D02*
D03*
X1014552Y924867D02*
D03*
X649061Y1055081D02*
D03*
X648892Y507194D02*
D03*
X831533Y641826D02*
D03*
X831477Y459197D02*
D03*
X466397Y657003D02*
D03*
D35*
X699805Y872452D02*
D03*
X598205D02*
D03*
X415709Y1022261D02*
D03*
X517309D02*
D03*
X882649Y1007084D02*
D03*
X781049D02*
D03*
X1169280Y183806D02*
D03*
X1251684Y124374D02*
D03*
X1040886Y156520D02*
D03*
X941811Y179030D02*
D03*
X739700Y230000D02*
D03*
X841300D02*
D03*
X1065458Y376964D02*
D03*
X963858D02*
D03*
X50230Y402724D02*
D03*
X151830D02*
D03*
X151886Y585353D02*
D03*
X50286D02*
D03*
X50343Y767982D02*
D03*
X151943D02*
D03*
X151999Y950611D02*
D03*
X50399D02*
D03*
X232860Y428399D02*
D03*
X334460D02*
D03*
X517100Y474374D02*
D03*
X415500D02*
D03*
X232900Y611029D02*
D03*
X334500D02*
D03*
X1065361Y559609D02*
D03*
X963761D02*
D03*
X963817Y742238D02*
D03*
X1065417D02*
D03*
X699748Y689823D02*
D03*
X598148D02*
D03*
X780789Y824455D02*
D03*
X882389D02*
D03*
X334600Y976287D02*
D03*
X233000D02*
D03*
Y793658D02*
D03*
X334600D02*
D03*
X517253Y839632D02*
D03*
X415653D02*
D03*
X963752Y924867D02*
D03*
X1065352D02*
D03*
X699861Y1055081D02*
D03*
X598261D02*
D03*
X598092Y507194D02*
D03*
X699692D02*
D03*
X882333Y641826D02*
D03*
X780733D02*
D03*
X780677Y459197D02*
D03*
X882277D02*
D03*
X517197Y657003D02*
D03*
X415597D02*
D03*
X1222500Y635000D02*
D03*
Y365000D02*
D03*
D36*
X687105Y847052D02*
D03*
X610905D02*
D03*
X428410Y996861D02*
D03*
X504609D02*
D03*
X869949Y981684D02*
D03*
X793749D02*
D03*
X1164723Y155775D02*
D03*
X1226526Y111202D02*
D03*
X1022875Y134565D02*
D03*
X948568Y151447D02*
D03*
X752400Y204600D02*
D03*
X828600D02*
D03*
X1052758Y351564D02*
D03*
X976558D02*
D03*
X62930Y377324D02*
D03*
X139130D02*
D03*
X139186Y559953D02*
D03*
X62986D02*
D03*
X63043Y742582D02*
D03*
X139243D02*
D03*
X139299Y925211D02*
D03*
X63099D02*
D03*
X245560Y402999D02*
D03*
X321760D02*
D03*
X504400Y448974D02*
D03*
X428200D02*
D03*
X245600Y585629D02*
D03*
X321800D02*
D03*
X1052661Y534209D02*
D03*
X976461D02*
D03*
X976517Y716838D02*
D03*
X1052717D02*
D03*
X687048Y664423D02*
D03*
X610848D02*
D03*
X793489Y799055D02*
D03*
X869689D02*
D03*
X321900Y950887D02*
D03*
X245700D02*
D03*
Y768258D02*
D03*
X321900D02*
D03*
X504553Y814232D02*
D03*
X428353D02*
D03*
X976452Y899467D02*
D03*
X1052652D02*
D03*
X687161Y1029681D02*
D03*
X610961D02*
D03*
X610792Y481794D02*
D03*
X686992D02*
D03*
X869633Y616426D02*
D03*
X793433D02*
D03*
X793377Y433797D02*
D03*
X869577D02*
D03*
X504497Y631603D02*
D03*
X428297D02*
D03*
D37*
X623605Y823684D02*
D03*
X674405D02*
D03*
X491909Y973493D02*
D03*
X441110D02*
D03*
X806449Y958316D02*
D03*
X857249D02*
D03*
X815900Y181232D02*
D03*
X765100D02*
D03*
X989258Y328196D02*
D03*
X1040058D02*
D03*
X126430Y353956D02*
D03*
X75630D02*
D03*
X75686Y536585D02*
D03*
X126486D02*
D03*
X126543Y719214D02*
D03*
X75743D02*
D03*
X75799Y901843D02*
D03*
X126599D02*
D03*
X309060Y379631D02*
D03*
X258260D02*
D03*
X440900Y425606D02*
D03*
X491700D02*
D03*
X309100Y562261D02*
D03*
X258300D02*
D03*
X989161Y510841D02*
D03*
X1039961D02*
D03*
X1040017Y693470D02*
D03*
X989217D02*
D03*
X623548Y641055D02*
D03*
X674348D02*
D03*
X856989Y775687D02*
D03*
X806189D02*
D03*
X258400Y927519D02*
D03*
X309200D02*
D03*
Y744890D02*
D03*
X258400D02*
D03*
X441053Y790864D02*
D03*
X491853D02*
D03*
X1039952Y876099D02*
D03*
X989152D02*
D03*
X623661Y1006313D02*
D03*
X674461D02*
D03*
X674292Y458426D02*
D03*
X623492D02*
D03*
X806133Y593058D02*
D03*
X856933D02*
D03*
X856877Y410429D02*
D03*
X806077D02*
D03*
X440997Y608235D02*
D03*
X491797D02*
D03*
D38*
X1202556Y99678D02*
D03*
X1161354Y129394D02*
D03*
D39*
X955776Y125846D02*
D03*
X1005313Y114592D02*
D03*
D40*
X1282500Y905800D02*
D03*
D41*
Y880400D02*
D03*
Y855000D02*
D03*
Y829600D02*
D03*
D42*
X1192500Y935000D02*
D03*
X1287564Y935063D02*
D03*
X1153658Y929840D02*
D03*
X1238702Y1007084D02*
D03*
D43*
X1189500Y985000D02*
D03*
X1165500D02*
D03*
D44*
X1142500Y982000D02*
D03*
Y958000D02*
D03*
D45*
X1222500Y880000D02*
D03*
X1232000Y906500D02*
D03*
X1213000D02*
D03*
M02*
