G04*
G04 #@! TF.GenerationSoftware,Altium Limited,Altium Designer,23.0.1 (38)*
G04*
G04 Layer_Color=16711935*
%FSLAX44Y44*%
%MOMM*%
G71*
G04*
G04 #@! TF.SameCoordinates,0B1D91C4-5DF2-49A7-A8E5-8765CD2E41FD*
G04*
G04*
G04 #@! TF.FilePolarity,Positive*
G04*
G01*
G75*
%ADD50C,0.1000*%
D50*
X396397Y679003D02*
G03*
X404397Y679003I4000J0D01*
G01*
X528397D02*
G03*
X536397Y679003I4000J0D01*
G01*
Y723003D02*
G03*
X532397Y727003I-4000J0D01*
G01*
X400397D02*
G03*
X396397Y723003I0J-4000D01*
G01*
X404397Y635003D02*
G03*
X396397Y635003I-4000J0D01*
G01*
X536397D02*
G03*
X528397Y635003I-4000J0D01*
G01*
X532397Y587003D02*
G03*
X536397Y591003I0J4000D01*
G01*
X396397D02*
G03*
X400397Y587003I4000J0D01*
G01*
X769477Y437197D02*
G03*
X761477Y437197I-4000J0D01*
G01*
X901477D02*
G03*
X893477Y437197I-4000J0D01*
G01*
X897477Y389197D02*
G03*
X901477Y393197I0J4000D01*
G01*
X761477D02*
G03*
X765477Y389197I4000J0D01*
G01*
X761477Y481197D02*
G03*
X769477Y481197I4000J0D01*
G01*
X893477D02*
G03*
X901477Y481197I4000J0D01*
G01*
Y525197D02*
G03*
X897477Y529197I-4000J0D01*
G01*
X765477D02*
G03*
X761477Y525197I0J-4000D01*
G01*
X761533Y663826D02*
G03*
X769533Y663826I4000J0D01*
G01*
X893533D02*
G03*
X901533Y663826I4000J0D01*
G01*
Y707826D02*
G03*
X897533Y711826I-4000J0D01*
G01*
X765533D02*
G03*
X761533Y707826I0J-4000D01*
G01*
X769533Y619826D02*
G03*
X761533Y619826I-4000J0D01*
G01*
X901533D02*
G03*
X893533Y619826I-4000J0D01*
G01*
X897533Y571826D02*
G03*
X901533Y575826I0J4000D01*
G01*
X761533D02*
G03*
X765533Y571826I4000J0D01*
G01*
X586892Y485194D02*
G03*
X578892Y485194I-4000J0D01*
G01*
X718892D02*
G03*
X710892Y485194I-4000J0D01*
G01*
X714892Y437194D02*
G03*
X718892Y441194I0J4000D01*
G01*
X578892D02*
G03*
X582892Y437194I4000J0D01*
G01*
X578892Y529194D02*
G03*
X586892Y529194I4000J0D01*
G01*
X710892D02*
G03*
X718892Y529194I4000J0D01*
G01*
Y573194D02*
G03*
X714892Y577194I-4000J0D01*
G01*
X582892D02*
G03*
X578892Y573194I0J-4000D01*
G01*
X579061Y1077081D02*
G03*
X587061Y1077081I4000J0D01*
G01*
X711061D02*
G03*
X719061Y1077081I4000J0D01*
G01*
Y1121081D02*
G03*
X715061Y1125081I-4000J0D01*
G01*
X583061D02*
G03*
X579061Y1121081I0J-4000D01*
G01*
X587061Y1033081D02*
G03*
X579061Y1033081I-4000J0D01*
G01*
X719061D02*
G03*
X711061Y1033081I-4000J0D01*
G01*
X715061Y985081D02*
G03*
X719061Y989081I0J4000D01*
G01*
X579061D02*
G03*
X583061Y985081I4000J0D01*
G01*
X952552Y902867D02*
G03*
X944552Y902867I-4000J0D01*
G01*
X1084552D02*
G03*
X1076552Y902867I-4000J0D01*
G01*
X1080552Y854867D02*
G03*
X1084552Y858867I0J4000D01*
G01*
X944552D02*
G03*
X948552Y854867I4000J0D01*
G01*
X944552Y946867D02*
G03*
X952552Y946867I4000J0D01*
G01*
X1076552D02*
G03*
X1084552Y946867I4000J0D01*
G01*
Y990867D02*
G03*
X1080552Y994867I-4000J0D01*
G01*
X948552D02*
G03*
X944552Y990867I0J-4000D01*
G01*
X396453Y861632D02*
G03*
X404453Y861632I4000J0D01*
G01*
X528453D02*
G03*
X536453Y861632I4000J0D01*
G01*
Y905632D02*
G03*
X532453Y909632I-4000J0D01*
G01*
X400453D02*
G03*
X396453Y905632I0J-4000D01*
G01*
X404453Y817632D02*
G03*
X396453Y817632I-4000J0D01*
G01*
X536453D02*
G03*
X528453Y817632I-4000J0D01*
G01*
X532453Y769632D02*
G03*
X536453Y773632I0J4000D01*
G01*
X396453D02*
G03*
X400453Y769632I4000J0D01*
G01*
X221800Y771658D02*
G03*
X213800Y771658I-4000J0D01*
G01*
X353800D02*
G03*
X345800Y771658I-4000J0D01*
G01*
X349800Y723658D02*
G03*
X353800Y727658I0J4000D01*
G01*
X213800D02*
G03*
X217800Y723658I4000J0D01*
G01*
X213800Y815658D02*
G03*
X221800Y815658I4000J0D01*
G01*
X345800D02*
G03*
X353800Y815658I4000J0D01*
G01*
Y859658D02*
G03*
X349800Y863658I-4000J0D01*
G01*
X217800D02*
G03*
X213800Y859658I0J-4000D01*
G01*
Y998287D02*
G03*
X221800Y998287I4000J0D01*
G01*
X345800D02*
G03*
X353800Y998287I4000J0D01*
G01*
Y1042287D02*
G03*
X349800Y1046287I-4000J0D01*
G01*
X217800D02*
G03*
X213800Y1042287I0J-4000D01*
G01*
X221800Y954287D02*
G03*
X213800Y954287I-4000J0D01*
G01*
X353800D02*
G03*
X345800Y954287I-4000J0D01*
G01*
X349800Y906287D02*
G03*
X353800Y910287I0J4000D01*
G01*
X213800D02*
G03*
X217800Y906287I4000J0D01*
G01*
X769589Y802455D02*
G03*
X761589Y802455I-4000J0D01*
G01*
X901589D02*
G03*
X893589Y802455I-4000J0D01*
G01*
X897589Y754455D02*
G03*
X901589Y758455I0J4000D01*
G01*
X761589D02*
G03*
X765589Y754455I4000J0D01*
G01*
X761589Y846455D02*
G03*
X769589Y846455I4000J0D01*
G01*
X893589D02*
G03*
X901589Y846455I4000J0D01*
G01*
Y890455D02*
G03*
X897589Y894455I-4000J0D01*
G01*
X765589D02*
G03*
X761589Y890455I0J-4000D01*
G01*
X578948Y711823D02*
G03*
X586949Y711823I4000J0D01*
G01*
X710948D02*
G03*
X718948Y711823I4000J0D01*
G01*
Y755823D02*
G03*
X714948Y759823I-4000J0D01*
G01*
X582948D02*
G03*
X578948Y755823I0J-4000D01*
G01*
X586949Y667823D02*
G03*
X578948Y667823I-4000J0D01*
G01*
X718948D02*
G03*
X710948Y667823I-4000J0D01*
G01*
X714948Y619823D02*
G03*
X718948Y623823I0J4000D01*
G01*
X578948D02*
G03*
X582948Y619823I4000J0D01*
G01*
X952617Y720238D02*
G03*
X944617Y720238I-4000J0D01*
G01*
X1084617D02*
G03*
X1076617Y720238I-4000J0D01*
G01*
X1080617Y672238D02*
G03*
X1084617Y676238I0J4000D01*
G01*
X944617D02*
G03*
X948617Y672238I4000J0D01*
G01*
X944617Y764238D02*
G03*
X952617Y764238I4000J0D01*
G01*
X1076617D02*
G03*
X1084617Y764238I4000J0D01*
G01*
Y808238D02*
G03*
X1080617Y812238I-4000J0D01*
G01*
X948617D02*
G03*
X944617Y808238I0J-4000D01*
G01*
X944561Y581609D02*
G03*
X952561Y581609I4000J0D01*
G01*
X1076561D02*
G03*
X1084561Y581609I4000J0D01*
G01*
Y625609D02*
G03*
X1080561Y629609I-4000J0D01*
G01*
X948561D02*
G03*
X944561Y625609I0J-4000D01*
G01*
X952561Y537609D02*
G03*
X944561Y537609I-4000J0D01*
G01*
X1084561D02*
G03*
X1076561Y537609I-4000J0D01*
G01*
X1080561Y489609D02*
G03*
X1084561Y493609I0J4000D01*
G01*
X944561D02*
G03*
X948561Y489609I4000J0D01*
G01*
X221700Y589029D02*
G03*
X213700Y589029I-4000J0D01*
G01*
X353700D02*
G03*
X345700Y589029I-4000J0D01*
G01*
X349700Y541029D02*
G03*
X353700Y545028I0J4000D01*
G01*
X213700D02*
G03*
X217700Y541029I4000J0D01*
G01*
X213700Y633028D02*
G03*
X221700Y633028I4000J0D01*
G01*
X345700D02*
G03*
X353700Y633028I4000J0D01*
G01*
Y677029D02*
G03*
X349700Y681029I-4000J0D01*
G01*
X217700D02*
G03*
X213700Y677029I0J-4000D01*
G01*
X396300Y496373D02*
G03*
X404300Y496373I4000J0D01*
G01*
X528300D02*
G03*
X536300Y496373I4000J0D01*
G01*
Y540373D02*
G03*
X532300Y544374I-4000J0D01*
G01*
X400300D02*
G03*
X396300Y540373I0J-4000D01*
G01*
X404300Y452374D02*
G03*
X396300Y452374I-4000J0D01*
G01*
X536300D02*
G03*
X528300Y452374I-4000J0D01*
G01*
X532300Y404374D02*
G03*
X536300Y408373I0J4000D01*
G01*
X396300D02*
G03*
X400300Y404374I4000J0D01*
G01*
X221660Y406399D02*
G03*
X213660Y406399I-4000J0D01*
G01*
X353660D02*
G03*
X345660Y406399I-4000J0D01*
G01*
X349660Y358399D02*
G03*
X353660Y362399I0J4000D01*
G01*
X213660D02*
G03*
X217660Y358399I4000J0D01*
G01*
X213660Y450399D02*
G03*
X221660Y450399I4000J0D01*
G01*
X345660D02*
G03*
X353660Y450399I4000J0D01*
G01*
Y494399D02*
G03*
X349660Y498399I-4000J0D01*
G01*
X217660D02*
G03*
X213660Y494399I0J-4000D01*
G01*
X31199Y972611D02*
G03*
X39199Y972611I4000J0D01*
G01*
X163199D02*
G03*
X171199Y972611I4000J0D01*
G01*
Y1016611D02*
G03*
X167199Y1020611I-4000J0D01*
G01*
X35199D02*
G03*
X31199Y1016611I0J-4000D01*
G01*
X39199Y928612D02*
G03*
X31199Y928612I-4000J0D01*
G01*
X171199D02*
G03*
X163199Y928612I-4000J0D01*
G01*
X167199Y880611D02*
G03*
X171199Y884612I0J4000D01*
G01*
X31199D02*
G03*
X35199Y880611I4000J0D01*
G01*
X39143Y745982D02*
G03*
X31143Y745982I-4000J0D01*
G01*
X171143D02*
G03*
X163143Y745982I-4000J0D01*
G01*
X167143Y697982D02*
G03*
X171143Y701982I0J4000D01*
G01*
X31143D02*
G03*
X35143Y697982I4000J0D01*
G01*
X31143Y789982D02*
G03*
X39143Y789982I4000J0D01*
G01*
X163143D02*
G03*
X171143Y789982I4000J0D01*
G01*
Y833982D02*
G03*
X167143Y837982I-4000J0D01*
G01*
X35143D02*
G03*
X31143Y833982I0J-4000D01*
G01*
X31086Y607353D02*
G03*
X39086Y607353I4000J0D01*
G01*
X163086D02*
G03*
X171086Y607353I4000J0D01*
G01*
Y651353D02*
G03*
X167086Y655353I-4000J0D01*
G01*
X35086D02*
G03*
X31086Y651353I0J-4000D01*
G01*
X39086Y563353D02*
G03*
X31086Y563353I-4000J0D01*
G01*
X171086D02*
G03*
X163086Y563353I-4000J0D01*
G01*
X167086Y515353D02*
G03*
X171086Y519353I0J4000D01*
G01*
X31086D02*
G03*
X35086Y515353I4000J0D01*
G01*
X39030Y380724D02*
G03*
X31030Y380724I-4000J0D01*
G01*
X171030D02*
G03*
X163030Y380724I-4000J0D01*
G01*
X167030Y332724D02*
G03*
X171030Y336724I0J4000D01*
G01*
X31030D02*
G03*
X35030Y332724I4000J0D01*
G01*
X31030Y424724D02*
G03*
X39030Y424724I4000J0D01*
G01*
X163030D02*
G03*
X171030Y424724I4000J0D01*
G01*
Y468724D02*
G03*
X167030Y472724I-4000J0D01*
G01*
X35030D02*
G03*
X31030Y468724I0J-4000D01*
G01*
X944658Y398964D02*
G03*
X952658Y398964I4000J0D01*
G01*
X1076658D02*
G03*
X1084658Y398964I4000J0D01*
G01*
Y442964D02*
G03*
X1080658Y446964I-4000J0D01*
G01*
X948658D02*
G03*
X944658Y442964I0J-4000D01*
G01*
X952658Y354964D02*
G03*
X944658Y354964I-4000J0D01*
G01*
X1084658D02*
G03*
X1076658Y354964I-4000J0D01*
G01*
X1080658Y306964D02*
G03*
X1084658Y310964I0J4000D01*
G01*
X944658D02*
G03*
X948658Y306964I4000J0D01*
G01*
X728500Y208000D02*
G03*
X720500Y208000I-4000J0D01*
G01*
X860500D02*
G03*
X852500Y208000I-4000J0D01*
G01*
X856500Y160000D02*
G03*
X860500Y164000I0J4000D01*
G01*
X720500D02*
G03*
X724500Y160000I4000J0D01*
G01*
X720500Y252000D02*
G03*
X728500Y252000I4000J0D01*
G01*
X852500D02*
G03*
X860500Y252000I4000J0D01*
G01*
Y296000D02*
G03*
X856500Y300000I-4000J0D01*
G01*
X724500D02*
G03*
X720500Y296000I0J-4000D01*
G01*
X927962Y204737D02*
G03*
X935764Y202964I3901J-886D01*
G01*
X1056682Y175492D02*
G03*
X1064483Y173720I3901J-886D01*
G01*
X1074231Y216626D02*
G03*
X1071217Y221413I-3901J886D01*
G01*
X942497Y250658D02*
G03*
X937710Y247643I-886J-3901D01*
G01*
X926015Y160058D02*
G03*
X918214Y161830I-3901J886D01*
G01*
X1054735Y130813D02*
G03*
X1046934Y132586I-3901J886D01*
G01*
X1040200Y84892D02*
G03*
X1044987Y87907I886J3901D01*
G01*
X908466Y118924D02*
G03*
X911480Y114137I3901J-886D01*
G01*
X1147327Y172514D02*
G03*
X1140839Y177193I-3244J2340D01*
G01*
X1254388Y95299D02*
G03*
X1247899Y99979I-3244J2340D01*
G01*
X1223066Y58708D02*
G03*
X1228650Y59612I2340J3244D01*
G01*
X1115101Y141507D02*
G03*
X1116005Y135922I3244J-2340D01*
G01*
X1166577Y212880D02*
G03*
X1173066Y208200I3244J-2340D01*
G01*
X1273637Y135666D02*
G03*
X1280126Y130986I3244J-2340D01*
G01*
X1305864Y166673D02*
G03*
X1304960Y172257I-3244J2340D01*
G01*
X1197899Y249471D02*
G03*
X1192315Y248567I-2340J-3244D01*
G01*
X761849Y1029084D02*
G03*
X769849Y1029084I4000J0D01*
G01*
X893849D02*
G03*
X901849Y1029084I4000J0D01*
G01*
Y1073084D02*
G03*
X897849Y1077084I-4000J0D01*
G01*
X765849D02*
G03*
X761849Y1073084I0J-4000D01*
G01*
X769849Y985084D02*
G03*
X761849Y985084I-4000J0D01*
G01*
X901849D02*
G03*
X893849Y985084I-4000J0D01*
G01*
X897849Y937084D02*
G03*
X901849Y941084I0J4000D01*
G01*
X761849D02*
G03*
X765849Y937084I4000J0D01*
G01*
X404510Y1000261D02*
G03*
X396510Y1000261I-4000J0D01*
G01*
X536510D02*
G03*
X528509Y1000261I-4000J0D01*
G01*
X532509Y952261D02*
G03*
X536510Y956261I0J4000D01*
G01*
X396510D02*
G03*
X400509Y952261I4000J0D01*
G01*
X396510Y1044261D02*
G03*
X404510Y1044261I4000J0D01*
G01*
X528509D02*
G03*
X536510Y1044261I4000J0D01*
G01*
Y1088261D02*
G03*
X532509Y1092261I-4000J0D01*
G01*
X400509D02*
G03*
X396510Y1088261I0J-4000D01*
G01*
X579005Y894452D02*
G03*
X587005Y894452I4000J0D01*
G01*
X711004D02*
G03*
X719005Y894452I4000J0D01*
G01*
Y938452D02*
G03*
X715005Y942452I-4000J0D01*
G01*
X583005D02*
G03*
X579005Y938452I0J-4000D01*
G01*
X587005Y850452D02*
G03*
X579005Y850452I-4000J0D01*
G01*
X719005D02*
G03*
X711004Y850452I-4000J0D01*
G01*
X715005Y802452D02*
G03*
X719005Y806452I0J4000D01*
G01*
X579005D02*
G03*
X583005Y802452I4000J0D01*
G01*
X1303468Y1373D02*
G03*
X1341680Y27342I8211J29016D01*
G01*
X1342032Y1007423D02*
G03*
X1330680Y1021342I-12635J1283D01*
G01*
X928589Y1037406D02*
G03*
X939941Y1023488I12635J-1283D01*
G01*
X928772Y1088278D02*
G03*
X917420Y1102196I-12635J1284D01*
G01*
X746589Y1116406D02*
G03*
X757941Y1102488I12635J-1283D01*
G01*
X746772Y1139277D02*
G03*
X735420Y1153196I-12635J1283D01*
G01*
X562745Y1153433D02*
G03*
X548826Y1142081I-1283J-12635D01*
G01*
X534762Y1122990D02*
G03*
X548680Y1134342I1283J12635D01*
G01*
X382599Y1122693D02*
G03*
X368680Y1111342I-1283J-12635D01*
G01*
X354762Y1075990D02*
G03*
X368680Y1087342I1283J12635D01*
G01*
X198599Y1075693D02*
G03*
X184680Y1064342I-1283J-12635D01*
G01*
X170762Y1048990D02*
G03*
X184680Y1060342I1283J12635D01*
G01*
X16599Y1048693D02*
G03*
X2680Y1037342I-1283J-12635D01*
G01*
X1329Y317260D02*
G03*
X10506Y303757I12635J-1283D01*
G01*
X715005Y802452D02*
G03*
X719005Y806452I0J4000D01*
G01*
X579005D02*
G03*
X583005Y802452I4000J0D01*
G01*
Y942452D02*
G03*
X579005Y938452I0J-4000D01*
G01*
X719005D02*
G03*
X715005Y942452I-4000J0D01*
G01*
X587005Y850452D02*
G03*
X579005Y850452I-4000J-0D01*
G01*
Y894452D02*
G03*
X587005Y894452I4000J0D01*
G01*
X719005Y850452D02*
G03*
X711004Y850452I-4000J-0D01*
G01*
Y894452D02*
G03*
X719005Y894452I4000J0D01*
G01*
X528509Y1044261D02*
G03*
X536510Y1044261I4000J0D01*
G01*
Y1000261D02*
G03*
X528509Y1000261I-4000J-0D01*
G01*
X396510Y1044261D02*
G03*
X404510Y1044261I4000J0D01*
G01*
Y1000261D02*
G03*
X396510Y1000261I-4000J-0D01*
G01*
X536510Y1088261D02*
G03*
X532509Y1092261I-4000J0D01*
G01*
X400509D02*
G03*
X396510Y1088261I0J-4000D01*
G01*
Y956261D02*
G03*
X400509Y952261I4000J0D01*
G01*
X532509D02*
G03*
X536510Y956261I0J4000D01*
G01*
X897849Y937084D02*
G03*
X901849Y941084I0J4000D01*
G01*
X761849D02*
G03*
X765849Y937084I4000J0D01*
G01*
Y1077084D02*
G03*
X761849Y1073084I0J-4000D01*
G01*
X901849D02*
G03*
X897849Y1077084I-4000J0D01*
G01*
X769849Y985084D02*
G03*
X761849Y985084I-4000J-0D01*
G01*
Y1029084D02*
G03*
X769849Y1029084I4000J0D01*
G01*
X901849Y985084D02*
G03*
X893849Y985084I-4000J-0D01*
G01*
Y1029084D02*
G03*
X901849Y1029084I4000J0D01*
G01*
X1273637Y135666D02*
G03*
X1280126Y130986I3244J-2340D01*
G01*
X1254388Y95299D02*
G03*
X1247899Y99979I-3244J2340D01*
G01*
X1166577Y212880D02*
G03*
X1173066Y208200I3244J-2340D01*
G01*
X1147327Y172514D02*
G03*
X1140839Y177193I-3244J2340D01*
G01*
X1305864Y166673D02*
G03*
X1304960Y172257I-3244J2340D01*
G01*
X1197899Y249471D02*
G03*
X1192315Y248567I-2340J-3244D01*
G01*
X1115101Y141507D02*
G03*
X1116005Y135922I3244J-2340D01*
G01*
X1223066Y58708D02*
G03*
X1228650Y59612I2340J3244D01*
G01*
X1040200Y84892D02*
G03*
X1044987Y87907I886J3901D01*
G01*
X908466Y118924D02*
G03*
X911480Y114137I3901J-886D01*
G01*
X942497Y250658D02*
G03*
X937710Y247643I-886J-3901D01*
G01*
X1074231Y216626D02*
G03*
X1071217Y221413I-3901J886D01*
G01*
X926015Y160058D02*
G03*
X918214Y161830I-3901J886D01*
G01*
X927962Y204737D02*
G03*
X935764Y202964I3901J-886D01*
G01*
X1054735Y130813D02*
G03*
X1046934Y132586I-3901J886D01*
G01*
X1056682Y175492D02*
G03*
X1064483Y173720I3901J-886D01*
G01*
X852500Y252000D02*
G03*
X860500Y252000I4000J0D01*
G01*
Y208000D02*
G03*
X852500Y208000I-4000J-0D01*
G01*
X720500Y252000D02*
G03*
X728500Y252000I4000J0D01*
G01*
Y208000D02*
G03*
X720500Y208000I-4000J-0D01*
G01*
X860500Y296000D02*
G03*
X856500Y300000I-4000J0D01*
G01*
X724500D02*
G03*
X720500Y296000I0J-4000D01*
G01*
Y164000D02*
G03*
X724500Y160000I4000J0D01*
G01*
X856500D02*
G03*
X860500Y164000I0J4000D01*
G01*
X1080658Y306964D02*
G03*
X1084658Y310964I0J4000D01*
G01*
X944658D02*
G03*
X948658Y306964I4000J0D01*
G01*
Y446964D02*
G03*
X944658Y442964I0J-4000D01*
G01*
X1084658D02*
G03*
X1080658Y446964I-4000J0D01*
G01*
X952658Y354964D02*
G03*
X944658Y354964I-4000J-0D01*
G01*
Y398964D02*
G03*
X952658Y398964I4000J0D01*
G01*
X1084658Y354964D02*
G03*
X1076658Y354964I-4000J-0D01*
G01*
Y398964D02*
G03*
X1084658Y398964I4000J0D01*
G01*
X163030Y424724D02*
G03*
X171030Y424724I4000J0D01*
G01*
Y380724D02*
G03*
X163030Y380724I-4000J-0D01*
G01*
X31030Y424724D02*
G03*
X39030Y424724I4000J0D01*
G01*
Y380724D02*
G03*
X31030Y380724I-4000J-0D01*
G01*
X171030Y468724D02*
G03*
X167030Y472724I-4000J0D01*
G01*
X35030D02*
G03*
X31030Y468724I0J-4000D01*
G01*
Y336724D02*
G03*
X35030Y332724I4000J0D01*
G01*
X167030D02*
G03*
X171030Y336724I0J4000D01*
G01*
X167086Y515353D02*
G03*
X171086Y519353I0J4000D01*
G01*
X31086D02*
G03*
X35086Y515353I4000J0D01*
G01*
Y655353D02*
G03*
X31086Y651353I0J-4000D01*
G01*
X171086D02*
G03*
X167086Y655353I-4000J0D01*
G01*
X39086Y563353D02*
G03*
X31086Y563353I-4000J-0D01*
G01*
Y607353D02*
G03*
X39086Y607353I4000J0D01*
G01*
X171086Y563353D02*
G03*
X163086Y563353I-4000J-0D01*
G01*
Y607353D02*
G03*
X171086Y607353I4000J0D01*
G01*
X163143Y789982D02*
G03*
X171143Y789982I4000J0D01*
G01*
Y745982D02*
G03*
X163143Y745982I-4000J-0D01*
G01*
X31143Y789982D02*
G03*
X39143Y789982I4000J0D01*
G01*
Y745982D02*
G03*
X31143Y745982I-4000J-0D01*
G01*
X171143Y833982D02*
G03*
X167143Y837982I-4000J0D01*
G01*
X35143D02*
G03*
X31143Y833982I0J-4000D01*
G01*
Y701982D02*
G03*
X35143Y697982I4000J0D01*
G01*
X167143D02*
G03*
X171143Y701982I0J4000D01*
G01*
X167199Y880611D02*
G03*
X171199Y884612I0J4000D01*
G01*
X31199D02*
G03*
X35199Y880611I4000J0D01*
G01*
Y1020611D02*
G03*
X31199Y1016611I0J-4000D01*
G01*
X171199D02*
G03*
X167199Y1020611I-4000J0D01*
G01*
X39199Y928612D02*
G03*
X31199Y928612I-4000J-0D01*
G01*
Y972611D02*
G03*
X39199Y972611I4000J0D01*
G01*
X171199Y928612D02*
G03*
X163199Y928612I-4000J-0D01*
G01*
Y972611D02*
G03*
X171199Y972611I4000J0D01*
G01*
X345660Y450399D02*
G03*
X353660Y450399I4000J0D01*
G01*
Y406399D02*
G03*
X345660Y406399I-4000J-0D01*
G01*
X213660Y450399D02*
G03*
X221660Y450399I4000J0D01*
G01*
Y406399D02*
G03*
X213660Y406399I-4000J-0D01*
G01*
X353660Y494399D02*
G03*
X349660Y498399I-4000J0D01*
G01*
X217660D02*
G03*
X213660Y494399I0J-4000D01*
G01*
Y362399D02*
G03*
X217660Y358399I4000J0D01*
G01*
X349660D02*
G03*
X353660Y362399I0J4000D01*
G01*
X532300Y404374D02*
G03*
X536300Y408373I0J4000D01*
G01*
X396300D02*
G03*
X400300Y404374I4000J0D01*
G01*
Y544374D02*
G03*
X396300Y540373I0J-4000D01*
G01*
X536300D02*
G03*
X532300Y544374I-4000J0D01*
G01*
X404300Y452374D02*
G03*
X396300Y452374I-4000J-0D01*
G01*
Y496373D02*
G03*
X404300Y496373I4000J0D01*
G01*
X536300Y452374D02*
G03*
X528300Y452374I-4000J-0D01*
G01*
Y496373D02*
G03*
X536300Y496373I4000J0D01*
G01*
X345700Y633028D02*
G03*
X353700Y633028I4000J0D01*
G01*
Y589029D02*
G03*
X345700Y589029I-4000J-0D01*
G01*
X213700Y633028D02*
G03*
X221700Y633028I4000J0D01*
G01*
Y589029D02*
G03*
X213700Y589029I-4000J-0D01*
G01*
X353700Y677029D02*
G03*
X349700Y681029I-4000J0D01*
G01*
X217700D02*
G03*
X213700Y677029I0J-4000D01*
G01*
Y545028D02*
G03*
X217700Y541029I4000J0D01*
G01*
X349700D02*
G03*
X353700Y545028I0J4000D01*
G01*
X1080561Y489609D02*
G03*
X1084561Y493609I0J4000D01*
G01*
X944561D02*
G03*
X948561Y489609I4000J0D01*
G01*
Y629609D02*
G03*
X944561Y625609I0J-4000D01*
G01*
X1084561D02*
G03*
X1080561Y629609I-4000J0D01*
G01*
X952561Y537609D02*
G03*
X944561Y537609I-4000J-0D01*
G01*
Y581609D02*
G03*
X952561Y581609I4000J0D01*
G01*
X1084561Y537609D02*
G03*
X1076561Y537609I-4000J-0D01*
G01*
Y581609D02*
G03*
X1084561Y581609I4000J0D01*
G01*
X1076617Y764238D02*
G03*
X1084617Y764238I4000J0D01*
G01*
Y720238D02*
G03*
X1076617Y720238I-4000J-0D01*
G01*
X944617Y764238D02*
G03*
X952617Y764238I4000J0D01*
G01*
Y720238D02*
G03*
X944617Y720238I-4000J-0D01*
G01*
X1084617Y808238D02*
G03*
X1080617Y812238I-4000J0D01*
G01*
X948617D02*
G03*
X944617Y808238I0J-4000D01*
G01*
Y676238D02*
G03*
X948617Y672238I4000J0D01*
G01*
X1080617D02*
G03*
X1084617Y676238I0J4000D01*
G01*
X714948Y619823D02*
G03*
X718948Y623823I0J4000D01*
G01*
X578948D02*
G03*
X582948Y619823I4000J0D01*
G01*
Y759823D02*
G03*
X578948Y755823I0J-4000D01*
G01*
X718948D02*
G03*
X714948Y759823I-4000J0D01*
G01*
X586949Y667823D02*
G03*
X578948Y667823I-4000J-0D01*
G01*
Y711823D02*
G03*
X586949Y711823I4000J0D01*
G01*
X718948Y667823D02*
G03*
X710948Y667823I-4000J-0D01*
G01*
Y711823D02*
G03*
X718948Y711823I4000J0D01*
G01*
X893589Y846455D02*
G03*
X901589Y846455I4000J0D01*
G01*
Y802455D02*
G03*
X893589Y802455I-4000J-0D01*
G01*
X761589Y846455D02*
G03*
X769589Y846455I4000J0D01*
G01*
Y802455D02*
G03*
X761589Y802455I-4000J-0D01*
G01*
X901589Y890455D02*
G03*
X897589Y894455I-4000J0D01*
G01*
X765589D02*
G03*
X761589Y890455I0J-4000D01*
G01*
Y758455D02*
G03*
X765589Y754455I4000J0D01*
G01*
X897589D02*
G03*
X901589Y758455I0J4000D01*
G01*
X349800Y906287D02*
G03*
X353800Y910287I0J4000D01*
G01*
X213800D02*
G03*
X217800Y906287I4000J0D01*
G01*
Y1046287D02*
G03*
X213800Y1042287I0J-4000D01*
G01*
X353800D02*
G03*
X349800Y1046287I-4000J0D01*
G01*
X221800Y954287D02*
G03*
X213800Y954287I-4000J-0D01*
G01*
Y998287D02*
G03*
X221800Y998287I4000J0D01*
G01*
X353800Y954287D02*
G03*
X345800Y954287I-4000J-0D01*
G01*
Y998287D02*
G03*
X353800Y998287I4000J0D01*
G01*
X345800Y815658D02*
G03*
X353800Y815658I4000J0D01*
G01*
Y771658D02*
G03*
X345800Y771658I-4000J-0D01*
G01*
X213800Y815658D02*
G03*
X221800Y815658I4000J0D01*
G01*
Y771658D02*
G03*
X213800Y771658I-4000J-0D01*
G01*
X353800Y859658D02*
G03*
X349800Y863658I-4000J0D01*
G01*
X217800D02*
G03*
X213800Y859658I0J-4000D01*
G01*
Y727658D02*
G03*
X217800Y723658I4000J0D01*
G01*
X349800D02*
G03*
X353800Y727658I0J4000D01*
G01*
X532453Y769632D02*
G03*
X536453Y773632I0J4000D01*
G01*
X396453D02*
G03*
X400453Y769632I4000J0D01*
G01*
Y909632D02*
G03*
X396453Y905632I0J-4000D01*
G01*
X536453D02*
G03*
X532453Y909632I-4000J0D01*
G01*
X404453Y817632D02*
G03*
X396453Y817632I-4000J-0D01*
G01*
Y861632D02*
G03*
X404453Y861632I4000J0D01*
G01*
X536453Y817632D02*
G03*
X528453Y817632I-4000J-0D01*
G01*
Y861632D02*
G03*
X536453Y861632I4000J0D01*
G01*
X1076552Y946867D02*
G03*
X1084552Y946867I4000J0D01*
G01*
Y902867D02*
G03*
X1076552Y902867I-4000J-0D01*
G01*
X944552Y946867D02*
G03*
X952552Y946867I4000J0D01*
G01*
Y902867D02*
G03*
X944552Y902867I-4000J-0D01*
G01*
X1084552Y990867D02*
G03*
X1080552Y994867I-4000J0D01*
G01*
X948552D02*
G03*
X944552Y990867I0J-4000D01*
G01*
Y858867D02*
G03*
X948552Y854867I4000J0D01*
G01*
X1080552D02*
G03*
X1084552Y858867I0J4000D01*
G01*
X715061Y985081D02*
G03*
X719061Y989081I0J4000D01*
G01*
X579061D02*
G03*
X583061Y985081I4000J0D01*
G01*
Y1125081D02*
G03*
X579061Y1121081I0J-4000D01*
G01*
X719061D02*
G03*
X715061Y1125081I-4000J0D01*
G01*
X587061Y1033081D02*
G03*
X579061Y1033081I-4000J-0D01*
G01*
Y1077081D02*
G03*
X587061Y1077081I4000J0D01*
G01*
X719061Y1033081D02*
G03*
X711061Y1033081I-4000J-0D01*
G01*
Y1077081D02*
G03*
X719061Y1077081I4000J0D01*
G01*
X710892Y529194D02*
G03*
X718892Y529194I4000J0D01*
G01*
Y485194D02*
G03*
X710892Y485194I-4000J-0D01*
G01*
X578892Y529194D02*
G03*
X586892Y529194I4000J0D01*
G01*
Y485194D02*
G03*
X578892Y485194I-4000J-0D01*
G01*
X718892Y573194D02*
G03*
X714892Y577194I-4000J0D01*
G01*
X582892D02*
G03*
X578892Y573194I0J-4000D01*
G01*
Y441194D02*
G03*
X582892Y437194I4000J0D01*
G01*
X714892D02*
G03*
X718892Y441194I0J4000D01*
G01*
X897533Y571826D02*
G03*
X901533Y575826I0J4000D01*
G01*
X761533D02*
G03*
X765533Y571826I4000J0D01*
G01*
Y711826D02*
G03*
X761533Y707826I0J-4000D01*
G01*
X901533D02*
G03*
X897533Y711826I-4000J0D01*
G01*
X769533Y619826D02*
G03*
X761533Y619826I-4000J-0D01*
G01*
Y663826D02*
G03*
X769533Y663826I4000J0D01*
G01*
X901533Y619826D02*
G03*
X893533Y619826I-4000J-0D01*
G01*
Y663826D02*
G03*
X901533Y663826I4000J0D01*
G01*
X893477Y481197D02*
G03*
X901477Y481197I4000J0D01*
G01*
Y437197D02*
G03*
X893477Y437197I-4000J-0D01*
G01*
X761477Y481197D02*
G03*
X769477Y481197I4000J0D01*
G01*
Y437197D02*
G03*
X761477Y437197I-4000J-0D01*
G01*
X901477Y525197D02*
G03*
X897477Y529197I-4000J0D01*
G01*
X765477D02*
G03*
X761477Y525197I0J-4000D01*
G01*
Y393197D02*
G03*
X765477Y389197I4000J0D01*
G01*
X897477D02*
G03*
X901477Y393197I0J4000D01*
G01*
X532397Y587003D02*
G03*
X536397Y591003I0J4000D01*
G01*
X396397D02*
G03*
X400397Y587003I4000J0D01*
G01*
Y727003D02*
G03*
X396397Y723003I0J-4000D01*
G01*
X536397D02*
G03*
X532397Y727003I-4000J0D01*
G01*
X404397Y635003D02*
G03*
X396397Y635003I-4000J-0D01*
G01*
Y679003D02*
G03*
X404397Y679003I4000J0D01*
G01*
X536397Y635003D02*
G03*
X528397Y635003I-4000J-0D01*
G01*
Y679003D02*
G03*
X536397Y679003I4000J0D01*
G01*
X404397Y635003D02*
G03*
X396397Y635003I-4000J0D01*
G01*
X536397D02*
G03*
X528397Y635003I-4000J0D01*
G01*
X532397Y587003D02*
G03*
X536397Y591003I0J4000D01*
G01*
X396397D02*
G03*
X400397Y587003I4000J0D01*
G01*
X396397Y679003D02*
G03*
X404397Y679003I4000J0D01*
G01*
X528397D02*
G03*
X536397Y679003I4000J0D01*
G01*
Y723003D02*
G03*
X532397Y727003I-4000J0D01*
G01*
X400397D02*
G03*
X396397Y723003I0J-4000D01*
G01*
X761477Y481197D02*
G03*
X769477Y481197I4000J0D01*
G01*
X893477D02*
G03*
X901477Y481197I4000J0D01*
G01*
Y525197D02*
G03*
X897477Y529197I-4000J0D01*
G01*
X765477D02*
G03*
X761477Y525197I0J-4000D01*
G01*
X769477Y437197D02*
G03*
X761477Y437197I-4000J0D01*
G01*
X901477D02*
G03*
X893477Y437197I-4000J0D01*
G01*
X897477Y389197D02*
G03*
X901477Y393197I0J4000D01*
G01*
X761477D02*
G03*
X765477Y389197I4000J0D01*
G01*
X769533Y619826D02*
G03*
X761533Y619826I-4000J0D01*
G01*
X901533D02*
G03*
X893533Y619826I-4000J0D01*
G01*
X897533Y571826D02*
G03*
X901533Y575826I0J4000D01*
G01*
X761533D02*
G03*
X765533Y571826I4000J0D01*
G01*
X761533Y663826D02*
G03*
X769533Y663826I4000J0D01*
G01*
X893533D02*
G03*
X901533Y663826I4000J0D01*
G01*
Y707826D02*
G03*
X897533Y711826I-4000J0D01*
G01*
X765533D02*
G03*
X761533Y707826I0J-4000D01*
G01*
X578892Y529194D02*
G03*
X586892Y529194I4000J0D01*
G01*
X710892D02*
G03*
X718892Y529194I4000J0D01*
G01*
Y573194D02*
G03*
X714892Y577194I-4000J0D01*
G01*
X582892D02*
G03*
X578892Y573194I0J-4000D01*
G01*
X586892Y485194D02*
G03*
X578892Y485194I-4000J0D01*
G01*
X718892D02*
G03*
X710892Y485194I-4000J0D01*
G01*
X714892Y437194D02*
G03*
X718892Y441194I0J4000D01*
G01*
X578892D02*
G03*
X582892Y437194I4000J0D01*
G01*
X587061Y1033081D02*
G03*
X579061Y1033081I-4000J0D01*
G01*
X719061D02*
G03*
X711061Y1033081I-4000J0D01*
G01*
X715061Y985081D02*
G03*
X719061Y989081I0J4000D01*
G01*
X579061D02*
G03*
X583061Y985081I4000J0D01*
G01*
X579061Y1077081D02*
G03*
X587061Y1077081I4000J0D01*
G01*
X711061D02*
G03*
X719061Y1077081I4000J0D01*
G01*
Y1121081D02*
G03*
X715061Y1125081I-4000J0D01*
G01*
X583061D02*
G03*
X579061Y1121081I0J-4000D01*
G01*
X944552Y946867D02*
G03*
X952552Y946867I4000J0D01*
G01*
X1076552D02*
G03*
X1084552Y946867I4000J0D01*
G01*
Y990867D02*
G03*
X1080552Y994867I-4000J0D01*
G01*
X948552D02*
G03*
X944552Y990867I0J-4000D01*
G01*
X952552Y902867D02*
G03*
X944552Y902867I-4000J0D01*
G01*
X1084552D02*
G03*
X1076552Y902867I-4000J0D01*
G01*
X1080552Y854867D02*
G03*
X1084552Y858867I0J4000D01*
G01*
X944552D02*
G03*
X948552Y854867I4000J0D01*
G01*
X404453Y817632D02*
G03*
X396453Y817632I-4000J0D01*
G01*
X536453D02*
G03*
X528453Y817632I-4000J0D01*
G01*
X532453Y769632D02*
G03*
X536453Y773632I0J4000D01*
G01*
X396453D02*
G03*
X400453Y769632I4000J0D01*
G01*
X396453Y861632D02*
G03*
X404453Y861632I4000J0D01*
G01*
X528453D02*
G03*
X536453Y861632I4000J0D01*
G01*
Y905632D02*
G03*
X532453Y909632I-4000J0D01*
G01*
X400453D02*
G03*
X396453Y905632I0J-4000D01*
G01*
X213800Y815658D02*
G03*
X221800Y815658I4000J0D01*
G01*
X345800D02*
G03*
X353800Y815658I4000J0D01*
G01*
Y859658D02*
G03*
X349800Y863658I-4000J0D01*
G01*
X217800D02*
G03*
X213800Y859658I0J-4000D01*
G01*
X221800Y771658D02*
G03*
X213800Y771658I-4000J0D01*
G01*
X353800D02*
G03*
X345800Y771658I-4000J0D01*
G01*
X349800Y723658D02*
G03*
X353800Y727658I0J4000D01*
G01*
X213800D02*
G03*
X217800Y723658I4000J0D01*
G01*
X221800Y954287D02*
G03*
X213800Y954287I-4000J0D01*
G01*
X353800D02*
G03*
X345800Y954287I-4000J0D01*
G01*
X349800Y906287D02*
G03*
X353800Y910287I0J4000D01*
G01*
X213800D02*
G03*
X217800Y906287I4000J0D01*
G01*
X213800Y998287D02*
G03*
X221800Y998287I4000J0D01*
G01*
X345800D02*
G03*
X353800Y998287I4000J0D01*
G01*
Y1042287D02*
G03*
X349800Y1046287I-4000J0D01*
G01*
X217800D02*
G03*
X213800Y1042287I0J-4000D01*
G01*
X761589Y846455D02*
G03*
X769589Y846455I4000J0D01*
G01*
X893589D02*
G03*
X901589Y846455I4000J0D01*
G01*
Y890455D02*
G03*
X897589Y894455I-4000J0D01*
G01*
X765589D02*
G03*
X761589Y890455I0J-4000D01*
G01*
X769589Y802455D02*
G03*
X761589Y802455I-4000J0D01*
G01*
X901589D02*
G03*
X893589Y802455I-4000J0D01*
G01*
X897589Y754455D02*
G03*
X901589Y758455I0J4000D01*
G01*
X761589D02*
G03*
X765589Y754455I4000J0D01*
G01*
X586949Y667823D02*
G03*
X578948Y667823I-4000J0D01*
G01*
X718948D02*
G03*
X710948Y667823I-4000J0D01*
G01*
X714948Y619823D02*
G03*
X718948Y623823I0J4000D01*
G01*
X578948D02*
G03*
X582948Y619823I4000J0D01*
G01*
X578948Y711823D02*
G03*
X586949Y711823I4000J0D01*
G01*
X710948D02*
G03*
X718948Y711823I4000J0D01*
G01*
Y755823D02*
G03*
X714948Y759823I-4000J0D01*
G01*
X582948D02*
G03*
X578948Y755823I0J-4000D01*
G01*
X944617Y764238D02*
G03*
X952617Y764238I4000J0D01*
G01*
X1076617D02*
G03*
X1084617Y764238I4000J0D01*
G01*
Y808238D02*
G03*
X1080617Y812238I-4000J0D01*
G01*
X948617D02*
G03*
X944617Y808238I0J-4000D01*
G01*
X952617Y720238D02*
G03*
X944617Y720238I-4000J0D01*
G01*
X1084617D02*
G03*
X1076617Y720238I-4000J0D01*
G01*
X1080617Y672238D02*
G03*
X1084617Y676238I0J4000D01*
G01*
X944617D02*
G03*
X948617Y672238I4000J0D01*
G01*
X952561Y537609D02*
G03*
X944561Y537609I-4000J0D01*
G01*
X1084561D02*
G03*
X1076561Y537609I-4000J0D01*
G01*
X1080561Y489609D02*
G03*
X1084561Y493609I0J4000D01*
G01*
X944561D02*
G03*
X948561Y489609I4000J0D01*
G01*
X944561Y581609D02*
G03*
X952561Y581609I4000J0D01*
G01*
X1076561D02*
G03*
X1084561Y581609I4000J0D01*
G01*
Y625609D02*
G03*
X1080561Y629609I-4000J0D01*
G01*
X948561D02*
G03*
X944561Y625609I0J-4000D01*
G01*
X213700Y633028D02*
G03*
X221700Y633028I4000J0D01*
G01*
X345700D02*
G03*
X353700Y633028I4000J0D01*
G01*
Y677029D02*
G03*
X349700Y681029I-4000J0D01*
G01*
X217700D02*
G03*
X213700Y677029I0J-4000D01*
G01*
X221700Y589029D02*
G03*
X213700Y589029I-4000J0D01*
G01*
X353700D02*
G03*
X345700Y589029I-4000J0D01*
G01*
X349700Y541029D02*
G03*
X353700Y545028I0J4000D01*
G01*
X213700D02*
G03*
X217700Y541029I4000J0D01*
G01*
X404300Y452374D02*
G03*
X396300Y452374I-4000J0D01*
G01*
X536300D02*
G03*
X528300Y452374I-4000J0D01*
G01*
X532300Y404374D02*
G03*
X536300Y408373I0J4000D01*
G01*
X396300D02*
G03*
X400300Y404374I4000J0D01*
G01*
X396300Y496373D02*
G03*
X404300Y496373I4000J0D01*
G01*
X528300D02*
G03*
X536300Y496373I4000J0D01*
G01*
Y540373D02*
G03*
X532300Y544374I-4000J0D01*
G01*
X400300D02*
G03*
X396300Y540373I0J-4000D01*
G01*
X213660Y450399D02*
G03*
X221660Y450399I4000J0D01*
G01*
X345660D02*
G03*
X353660Y450399I4000J0D01*
G01*
Y494399D02*
G03*
X349660Y498399I-4000J0D01*
G01*
X217660D02*
G03*
X213660Y494399I0J-4000D01*
G01*
X221660Y406399D02*
G03*
X213660Y406399I-4000J0D01*
G01*
X353660D02*
G03*
X345660Y406399I-4000J0D01*
G01*
X349660Y358399D02*
G03*
X353660Y362399I0J4000D01*
G01*
X213660D02*
G03*
X217660Y358399I4000J0D01*
G01*
X31143Y789982D02*
G03*
X39143Y789982I4000J0D01*
G01*
X163143D02*
G03*
X171143Y789982I4000J0D01*
G01*
Y833982D02*
G03*
X167143Y837982I-4000J0D01*
G01*
X35143D02*
G03*
X31143Y833982I0J-4000D01*
G01*
X39143Y745982D02*
G03*
X31143Y745982I-4000J0D01*
G01*
X171143D02*
G03*
X163143Y745982I-4000J0D01*
G01*
X167143Y697982D02*
G03*
X171143Y701982I0J4000D01*
G01*
X31143D02*
G03*
X35143Y697982I4000J0D01*
G01*
X39086Y563353D02*
G03*
X31086Y563353I-4000J0D01*
G01*
X171086D02*
G03*
X163086Y563353I-4000J0D01*
G01*
X167086Y515353D02*
G03*
X171086Y519353I0J4000D01*
G01*
X31086D02*
G03*
X35086Y515353I4000J0D01*
G01*
X31086Y607353D02*
G03*
X39086Y607353I4000J0D01*
G01*
X163086D02*
G03*
X171086Y607353I4000J0D01*
G01*
Y651353D02*
G03*
X167086Y655353I-4000J0D01*
G01*
X35086D02*
G03*
X31086Y651353I0J-4000D01*
G01*
X31030Y424724D02*
G03*
X39030Y424724I4000J0D01*
G01*
X163030D02*
G03*
X171030Y424724I4000J0D01*
G01*
Y468724D02*
G03*
X167030Y472724I-4000J0D01*
G01*
X35030D02*
G03*
X31030Y468724I0J-4000D01*
G01*
X39030Y380724D02*
G03*
X31030Y380724I-4000J0D01*
G01*
X171030D02*
G03*
X163030Y380724I-4000J0D01*
G01*
X167030Y332724D02*
G03*
X171030Y336724I0J4000D01*
G01*
X31030D02*
G03*
X35030Y332724I4000J0D01*
G01*
X952658Y354964D02*
G03*
X944658Y354964I-4000J0D01*
G01*
X1084658D02*
G03*
X1076658Y354964I-4000J0D01*
G01*
X1080658Y306964D02*
G03*
X1084658Y310964I0J4000D01*
G01*
X944658D02*
G03*
X948658Y306964I4000J0D01*
G01*
X944658Y398964D02*
G03*
X952658Y398964I4000J0D01*
G01*
X1076658D02*
G03*
X1084658Y398964I4000J0D01*
G01*
Y442964D02*
G03*
X1080658Y446964I-4000J0D01*
G01*
X948658D02*
G03*
X944658Y442964I0J-4000D01*
G01*
X720500Y252000D02*
G03*
X728500Y252000I4000J0D01*
G01*
X852500D02*
G03*
X860500Y252000I4000J0D01*
G01*
Y296000D02*
G03*
X856500Y300000I-4000J0D01*
G01*
X724500D02*
G03*
X720500Y296000I0J-4000D01*
G01*
X728500Y208000D02*
G03*
X720500Y208000I-4000J0D01*
G01*
X860500D02*
G03*
X852500Y208000I-4000J0D01*
G01*
X856500Y160000D02*
G03*
X860500Y164000I0J4000D01*
G01*
X720500D02*
G03*
X724500Y160000I4000J0D01*
G01*
X926015Y160058D02*
G03*
X918214Y161830I-3901J886D01*
G01*
X1054735Y130813D02*
G03*
X1046934Y132586I-3901J886D01*
G01*
X1040200Y84892D02*
G03*
X1044987Y87907I886J3901D01*
G01*
X908466Y118924D02*
G03*
X911480Y114137I3901J-886D01*
G01*
X927962Y204737D02*
G03*
X935763Y202964I3901J-886D01*
G01*
X1056682Y175492D02*
G03*
X1064483Y173720I3901J-886D01*
G01*
X1074231Y216626D02*
G03*
X1071217Y221413I-3901J886D01*
G01*
X942497Y250658D02*
G03*
X937710Y247643I-886J-3901D01*
G01*
X1166577Y212880D02*
G03*
X1173066Y208200I3244J-2340D01*
G01*
X1273637Y135666D02*
G03*
X1280126Y130986I3244J-2340D01*
G01*
X1305864Y166673D02*
G03*
X1304960Y172257I-3244J2340D01*
G01*
X1197899Y249471D02*
G03*
X1192315Y248567I-2340J-3244D01*
G01*
X1147327Y172514D02*
G03*
X1140839Y177193I-3244J2340D01*
G01*
X1254388Y95299D02*
G03*
X1247899Y99979I-3244J2340D01*
G01*
X1223066Y58708D02*
G03*
X1228650Y59612I2340J3244D01*
G01*
X1115101Y141506D02*
G03*
X1116005Y135922I3244J-2340D01*
G01*
X769849Y985084D02*
G03*
X761849Y985084I-4000J0D01*
G01*
X901849D02*
G03*
X893849Y985084I-4000J0D01*
G01*
X897849Y937084D02*
G03*
X901849Y941084I0J4000D01*
G01*
X761849D02*
G03*
X765849Y937084I4000J0D01*
G01*
X761849Y1029084D02*
G03*
X769849Y1029084I4000J0D01*
G01*
X893849D02*
G03*
X901849Y1029084I4000J0D01*
G01*
Y1073084D02*
G03*
X897849Y1077084I-4000J0D01*
G01*
X765849D02*
G03*
X761849Y1073084I0J-4000D01*
G01*
X396510Y1044261D02*
G03*
X404510Y1044261I4000J0D01*
G01*
X528509D02*
G03*
X536510Y1044261I4000J0D01*
G01*
Y1088261D02*
G03*
X532509Y1092261I-4000J0D01*
G01*
X400509D02*
G03*
X396510Y1088261I0J-4000D01*
G01*
X404510Y1000261D02*
G03*
X396510Y1000261I-4000J0D01*
G01*
X536510D02*
G03*
X528509Y1000261I-4000J0D01*
G01*
X532509Y952261D02*
G03*
X536510Y956261I0J4000D01*
G01*
X396510D02*
G03*
X400509Y952261I4000J0D01*
G01*
X587005Y850452D02*
G03*
X579005Y850452I-4000J0D01*
G01*
X719005D02*
G03*
X711004Y850452I-4000J0D01*
G01*
X715005Y802452D02*
G03*
X719005Y806452I0J4000D01*
G01*
X579005D02*
G03*
X583005Y802452I4000J0D01*
G01*
X579005Y894452D02*
G03*
X587005Y894452I4000J0D01*
G01*
X711004D02*
G03*
X719005Y894452I4000J0D01*
G01*
Y938452D02*
G03*
X715005Y942452I-4000J0D01*
G01*
X583005D02*
G03*
X579005Y938452I0J-4000D01*
G01*
X39199Y928612D02*
G03*
X31199Y928612I-4000J0D01*
G01*
X171199D02*
G03*
X163199Y928612I-4000J0D01*
G01*
X167199Y880611D02*
G03*
X171199Y884612I0J4000D01*
G01*
X31199D02*
G03*
X35199Y880611I4000J0D01*
G01*
X31199Y972611D02*
G03*
X39199Y972611I4000J0D01*
G01*
X163199D02*
G03*
X171199Y972611I4000J0D01*
G01*
Y1016611D02*
G03*
X167199Y1020611I-4000J0D01*
G01*
X35199D02*
G03*
X31199Y1016611I0J-4000D01*
G01*
X1303468Y1373D02*
G03*
X1341680Y27342I8211J29016D01*
G01*
X1342032Y1007423D02*
G03*
X1330680Y1021342I-12635J1283D01*
G01*
X928589Y1037406D02*
G03*
X939941Y1023488I12635J-1283D01*
G01*
X928772Y1088278D02*
G03*
X917420Y1102196I-12635J1284D01*
G01*
X746589Y1116406D02*
G03*
X757941Y1102488I12635J-1283D01*
G01*
X746772Y1139277D02*
G03*
X735420Y1153196I-12635J1283D01*
G01*
X562745Y1153433D02*
G03*
X548826Y1142081I-1283J-12635D01*
G01*
X534762Y1122990D02*
G03*
X548680Y1134342I1283J12635D01*
G01*
X382599Y1122693D02*
G03*
X368680Y1111342I-1283J-12635D01*
G01*
X354762Y1075990D02*
G03*
X368680Y1087342I1283J12635D01*
G01*
X198599Y1075693D02*
G03*
X184680Y1064342I-1283J-12635D01*
G01*
X170762Y1048990D02*
G03*
X184680Y1060342I1283J12635D01*
G01*
X16599Y1048693D02*
G03*
X2680Y1037342I-1283J-12635D01*
G01*
X1329Y317260D02*
G03*
X10506Y303757I12635J-1283D01*
G01*
X404397Y679003D02*
Y719003D01*
X404397Y719003D02*
X404397Y719003D01*
X404397Y719003D02*
X528397D01*
X528397Y719003D02*
X528397Y719003D01*
X528397Y679003D02*
Y719003D01*
X536397Y679003D02*
Y723003D01*
X400397Y727003D02*
X532397D01*
X396397Y679003D02*
Y723003D01*
X404397Y595003D02*
Y635003D01*
X404397Y595003D02*
X404397Y595003D01*
X404397Y595003D02*
X528397D01*
X528397Y595003D02*
X528397Y595003D01*
X528397Y595003D02*
Y635003D01*
X536397Y591003D02*
Y635003D01*
X400397Y587003D02*
X532397D01*
X396397Y591003D02*
Y635003D01*
X769477Y397197D02*
Y437197D01*
X769477Y397197D02*
X769477Y397197D01*
X769477Y397197D02*
X893477D01*
X893477Y397197D02*
X893477Y397197D01*
X893477Y397197D02*
Y437197D01*
X901477Y393197D02*
Y437197D01*
X765477Y389197D02*
X897477D01*
X761477Y393197D02*
Y437197D01*
X769477Y481197D02*
Y521197D01*
X769477Y521197D02*
X769477Y521197D01*
X769477Y521197D02*
X893477D01*
X893477Y521197D02*
X893477Y521197D01*
X893477Y481197D02*
Y521197D01*
X901477Y481197D02*
Y525197D01*
X765477Y529197D02*
X897477D01*
X761477Y481197D02*
Y525197D01*
X769533Y663826D02*
Y703826D01*
X769533Y703826D02*
X769533Y703826D01*
X769533Y703826D02*
X893533D01*
X893533Y703826D02*
X893533Y703826D01*
X893533Y663826D02*
Y703826D01*
X901533Y663826D02*
Y707826D01*
X765533Y711826D02*
X897533D01*
X761533Y663826D02*
Y707826D01*
X769533Y579826D02*
Y619826D01*
X769533Y579826D02*
X769533Y579826D01*
X769533Y579826D02*
X893533D01*
X893533Y579826D02*
X893533Y579826D01*
X893533Y579826D02*
Y619826D01*
X901533Y575826D02*
Y619826D01*
X765533Y571826D02*
X897533D01*
X761533Y575826D02*
Y619826D01*
X586892Y445194D02*
Y485194D01*
X586892Y445194D02*
X586892Y445194D01*
X586892Y445194D02*
X710892D01*
X710892Y445194D02*
X710892Y445194D01*
X710892Y445194D02*
Y485194D01*
X718892Y441194D02*
Y485194D01*
X582892Y437194D02*
X714892D01*
X578892Y441194D02*
Y485194D01*
X586892Y529194D02*
Y569194D01*
X586892Y569194D02*
X586892Y569194D01*
X586892Y569194D02*
X710892D01*
X710892Y569194D02*
X710892Y569194D01*
X710892Y529194D02*
Y569194D01*
X718892Y529194D02*
Y573194D01*
X582892Y577194D02*
X714892D01*
X578892Y529194D02*
Y573194D01*
X587061Y1077081D02*
Y1117081D01*
X587061Y1117081D02*
X587061Y1117081D01*
X587061Y1117081D02*
X711061D01*
X711061Y1117081D02*
X711061Y1117081D01*
X711061Y1077081D02*
Y1117081D01*
X719061Y1077081D02*
Y1121081D01*
X583061Y1125081D02*
X715061D01*
X579061Y1077081D02*
Y1121081D01*
X587061Y993081D02*
Y1033081D01*
X587061Y993081D02*
X587061Y993081D01*
X587061Y993081D02*
X711061D01*
X711061Y993081D02*
X711061Y993081D01*
X711061Y993081D02*
Y1033081D01*
X719061Y989081D02*
Y1033081D01*
X583061Y985081D02*
X715061D01*
X579061Y989081D02*
Y1033081D01*
X952552Y862867D02*
Y902867D01*
X952552Y862867D02*
X952552Y862867D01*
X952552Y862867D02*
X1076552D01*
X1076552Y862867D02*
X1076552Y862867D01*
X1076552Y862867D02*
Y902867D01*
X1084552Y858867D02*
Y902867D01*
X948552Y854867D02*
X1080552D01*
X944552Y858867D02*
Y902867D01*
X952552Y946867D02*
Y986867D01*
X952552Y986867D02*
X952552Y986867D01*
X952552Y986867D02*
X1076552D01*
X1076552Y986867D02*
X1076552Y986867D01*
X1076552Y946867D02*
Y986867D01*
X1084552Y946867D02*
Y990867D01*
X948552Y994867D02*
X1080552D01*
X944552Y946867D02*
Y990867D01*
X404453Y861632D02*
Y901632D01*
X404453Y901632D02*
X404453Y901632D01*
X404453Y901632D02*
X528453D01*
X528453Y901632D02*
X528453Y901632D01*
X528453Y861632D02*
Y901632D01*
X536453Y861632D02*
Y905632D01*
X400453Y909632D02*
X532453D01*
X396453Y861632D02*
Y905632D01*
X404453Y777632D02*
Y817632D01*
X404453Y777632D02*
X404453Y777632D01*
X404453Y777632D02*
X528453D01*
X528453Y777632D02*
X528453Y777632D01*
X528453Y777632D02*
Y817632D01*
X536453Y773632D02*
Y817632D01*
X400453Y769632D02*
X532453D01*
X396453Y773632D02*
Y817632D01*
X221800Y731658D02*
Y771658D01*
X221800Y731658D02*
X221800Y731658D01*
X221800Y731658D02*
X345800D01*
X345800Y731658D02*
X345800Y731658D01*
X345800Y731658D02*
Y771658D01*
X353800Y727658D02*
Y771658D01*
X217800Y723658D02*
X349800D01*
X213800Y727658D02*
Y771658D01*
X221800Y815658D02*
Y855658D01*
X221800Y855658D02*
X221800Y855658D01*
X221800Y855658D02*
X345800D01*
X345800Y855658D02*
X345800Y855658D01*
X345800Y815658D02*
Y855658D01*
X353800Y815658D02*
Y859658D01*
X217800Y863658D02*
X349800D01*
X213800Y815658D02*
Y859658D01*
X221800Y998287D02*
Y1038287D01*
X221800Y1038287D02*
X221800Y1038287D01*
X221800Y1038287D02*
X345800D01*
X345800Y1038287D02*
X345800Y1038287D01*
X345800Y998287D02*
Y1038287D01*
X353800Y998287D02*
Y1042287D01*
X217800Y1046287D02*
X349800D01*
X213800Y998287D02*
Y1042287D01*
X221800Y914287D02*
Y954287D01*
X221800Y914287D02*
X221800Y914287D01*
X221800Y914287D02*
X345800D01*
X345800Y914287D02*
X345800Y914287D01*
X345800Y914287D02*
Y954287D01*
X353800Y910287D02*
Y954287D01*
X217800Y906287D02*
X349800D01*
X213800Y910287D02*
Y954287D01*
X769589Y762455D02*
Y802455D01*
X769589Y762455D02*
X769589Y762455D01*
X769589Y762455D02*
X893589D01*
X893589Y762455D02*
X893589Y762455D01*
X893589Y762455D02*
Y802455D01*
X901589Y758455D02*
Y802455D01*
X765589Y754455D02*
X897589D01*
X761589Y758455D02*
Y802455D01*
X769589Y846455D02*
Y886455D01*
X769589Y886455D02*
X769589Y886455D01*
X769589Y886455D02*
X893589D01*
X893589Y886455D02*
X893589Y886455D01*
X893589Y846455D02*
Y886455D01*
X901589Y846455D02*
Y890455D01*
X765589Y894455D02*
X897589D01*
X761589Y846455D02*
Y890455D01*
X586949Y711823D02*
Y751823D01*
X586948Y751823D02*
X586949Y751823D01*
X586948Y751823D02*
X710948D01*
X710948Y751823D02*
X710948Y751823D01*
X710948Y711823D02*
Y751823D01*
X718948Y711823D02*
Y755823D01*
X582948Y759823D02*
X714948D01*
X578948Y711823D02*
Y755823D01*
X586949Y627823D02*
Y667823D01*
X586948Y627823D02*
X586949Y627823D01*
X586948Y627823D02*
X710948D01*
X710948Y627823D02*
X710948Y627823D01*
X710948Y627823D02*
Y667823D01*
X718948Y623823D02*
Y667823D01*
X582948Y619823D02*
X714948D01*
X578948Y623823D02*
Y667823D01*
X952617Y680238D02*
Y720238D01*
X952617Y680238D02*
X952617Y680238D01*
X952617Y680238D02*
X1076617D01*
X1076617Y680238D02*
X1076617Y680238D01*
X1076617Y680238D02*
Y720238D01*
X1084617Y676238D02*
Y720238D01*
X948617Y672238D02*
X1080617D01*
X944617Y676238D02*
Y720238D01*
X952617Y764238D02*
Y804238D01*
X952617Y804238D02*
X952617Y804238D01*
X952617Y804238D02*
X1076617D01*
X1076617Y804238D02*
X1076617Y804238D01*
X1076617Y764238D02*
Y804238D01*
X1084617Y764238D02*
Y808238D01*
X948617Y812238D02*
X1080617D01*
X944617Y764238D02*
Y808238D01*
X952561Y581609D02*
Y621609D01*
X952561Y621609D02*
X952561Y621609D01*
X952561Y621609D02*
X1076561D01*
X1076561Y621609D02*
X1076561Y621609D01*
X1076561Y581609D02*
Y621609D01*
X1084561Y581609D02*
Y625609D01*
X948561Y629609D02*
X1080561D01*
X944561Y581609D02*
Y625609D01*
X952561Y497609D02*
Y537609D01*
X952561Y497609D02*
X952561Y497609D01*
X952561Y497609D02*
X1076561D01*
X1076561Y497609D02*
X1076561Y497609D01*
X1076561Y497609D02*
Y537609D01*
X1084561Y493609D02*
Y537609D01*
X948561Y489609D02*
X1080561D01*
X944561Y493609D02*
Y537609D01*
X221700Y549029D02*
Y589029D01*
X221700Y549029D02*
X221700Y549029D01*
X221700Y549029D02*
X345700D01*
X345700Y549029D02*
X345700Y549029D01*
X345700Y549029D02*
Y589029D01*
X353700Y545028D02*
Y589029D01*
X217700Y541029D02*
X349700D01*
X213700Y545028D02*
Y589029D01*
X221700Y633028D02*
Y673028D01*
X221700Y673028D02*
X221700Y673028D01*
X221700Y673028D02*
X345700D01*
X345700Y673028D02*
X345700Y673028D01*
X345700Y633028D02*
Y673028D01*
X353700Y633028D02*
Y677029D01*
X217700Y681029D02*
X349700D01*
X213700Y633028D02*
Y677029D01*
X404300Y496373D02*
Y536373D01*
X404300Y536373D02*
X404300Y536373D01*
X404300Y536373D02*
X528300D01*
X528300Y536373D02*
X528300Y536373D01*
X528300Y496373D02*
Y536373D01*
X536300Y496373D02*
Y540373D01*
X400300Y544374D02*
X532300D01*
X396300Y496373D02*
Y540373D01*
X404300Y412374D02*
Y452374D01*
X404300Y412374D02*
X404300Y412374D01*
X404300Y412374D02*
X528300D01*
X528300Y412374D02*
X528300Y412374D01*
X528300Y412374D02*
Y452374D01*
X536300Y408373D02*
Y452374D01*
X400300Y404374D02*
X532300D01*
X396300Y408373D02*
Y452374D01*
X221660Y366399D02*
Y406399D01*
X221660Y366399D02*
X221660Y366399D01*
X221660Y366399D02*
X345660D01*
X345660Y366399D02*
X345660Y366399D01*
X345660Y366399D02*
Y406399D01*
X353660Y362399D02*
Y406399D01*
X217660Y358399D02*
X349660D01*
X213660Y362399D02*
Y406399D01*
X221660Y450399D02*
Y490399D01*
X221660Y490399D02*
X221660Y490399D01*
X221660Y490399D02*
X345660D01*
X345660Y490399D02*
X345660Y490399D01*
X345660Y450399D02*
Y490399D01*
X353660Y450399D02*
Y494399D01*
X217660Y498399D02*
X349660D01*
X213660Y450399D02*
Y494399D01*
X39199Y972611D02*
Y1012611D01*
X39199Y1012611D02*
X39199Y1012611D01*
X39199Y1012611D02*
X163199D01*
X163199Y1012611D02*
X163199Y1012611D01*
X163199Y972611D02*
Y1012611D01*
X171199Y972611D02*
Y1016611D01*
X35199Y1020611D02*
X167199D01*
X31199Y972611D02*
Y1016611D01*
X39199Y888612D02*
Y928612D01*
X39199Y888612D02*
X39199Y888612D01*
X39199Y888612D02*
X163199D01*
X163199Y888612D02*
X163199Y888612D01*
X163199Y888612D02*
Y928612D01*
X171199Y884612D02*
Y928612D01*
X35199Y880611D02*
X167199D01*
X31199Y884612D02*
Y928612D01*
X39143Y705982D02*
Y745982D01*
X39143Y705982D02*
X39143Y705982D01*
X39143Y705982D02*
X163143D01*
X163143Y705982D02*
X163143Y705982D01*
X163143Y705982D02*
Y745982D01*
X171143Y701982D02*
Y745982D01*
X35143Y697982D02*
X167143D01*
X31143Y701982D02*
Y745982D01*
X39143Y789982D02*
Y829982D01*
X39143Y829982D02*
X39143Y829982D01*
X39143Y829982D02*
X163143D01*
X163143Y829982D02*
X163143Y829982D01*
X163143Y789982D02*
Y829982D01*
X171143Y789982D02*
Y833982D01*
X35143Y837982D02*
X167143D01*
X31143Y789982D02*
Y833982D01*
X39086Y607353D02*
Y647353D01*
X39086Y647353D02*
X39086Y647353D01*
X39086Y647353D02*
X163086D01*
X163086Y647353D02*
X163086Y647353D01*
X163086Y607353D02*
Y647353D01*
X171086Y607353D02*
Y651353D01*
X35086Y655353D02*
X167086D01*
X31086Y607353D02*
Y651353D01*
X39086Y523353D02*
Y563353D01*
X39086Y523353D02*
X39086Y523353D01*
X39086Y523353D02*
X163086D01*
X163086Y523353D02*
X163086Y523353D01*
X163086Y523353D02*
Y563353D01*
X171086Y519353D02*
Y563353D01*
X35086Y515353D02*
X167086D01*
X31086Y519353D02*
Y563353D01*
X39030Y340724D02*
Y380724D01*
X39030Y340724D02*
X39030Y340724D01*
X39030Y340724D02*
X163030D01*
X163030Y340724D02*
X163030Y340724D01*
X163030Y340724D02*
Y380724D01*
X171030Y336724D02*
Y380724D01*
X35030Y332724D02*
X167030D01*
X31030Y336724D02*
Y380724D01*
X39030Y424724D02*
Y464724D01*
X39030Y464724D02*
X39030Y464724D01*
X39030Y464724D02*
X163030D01*
X163030Y464724D02*
X163030Y464724D01*
X163030Y424724D02*
Y464724D01*
X171030Y424724D02*
Y468724D01*
X35030Y472724D02*
X167030D01*
X31030Y424724D02*
Y468724D01*
X952658Y398964D02*
Y438964D01*
X952658Y438964D02*
X952658Y438964D01*
X952658Y438964D02*
X1076658D01*
X1076658Y438964D02*
X1076658Y438964D01*
X1076658Y398964D02*
Y438964D01*
X1084658Y398964D02*
Y442964D01*
X948658Y446964D02*
X1080658D01*
X944658Y398964D02*
Y442964D01*
X952658Y314964D02*
Y354964D01*
X952658Y314964D02*
X952658Y314964D01*
X952658Y314964D02*
X1076658D01*
X1076658Y314964D02*
X1076658Y314964D01*
X1076658Y314964D02*
Y354964D01*
X1084658Y310964D02*
Y354964D01*
X948658Y306964D02*
X1080658D01*
X944658Y310964D02*
Y354964D01*
X728500Y168000D02*
Y208000D01*
X728500Y168000D02*
X728500Y168000D01*
X728500Y168000D02*
X852500D01*
X852500Y168000D02*
X852500Y168000D01*
X852500Y168000D02*
Y208000D01*
X860500Y164000D02*
Y208000D01*
X724500Y160000D02*
X856500D01*
X720500Y164000D02*
Y208000D01*
X728500Y252000D02*
Y292000D01*
X728500Y292000D02*
X728500Y292000D01*
X728500Y292000D02*
X852500D01*
X852500Y292000D02*
X852500Y292000D01*
X852500Y252000D02*
Y292000D01*
X860500Y252000D02*
Y296000D01*
X724500Y300000D02*
X856500D01*
X720500Y252000D02*
Y296000D01*
X935764Y202964D02*
X944625Y241970D01*
X944625Y241970D02*
X944625Y241970D01*
X944625Y241970D02*
X1065544Y214498D01*
X1065544Y214498D02*
X1065544Y214498D01*
X1056682Y175492D02*
X1065544Y214498D01*
X1064483Y173720D02*
X1074231Y216626D01*
X942497Y250658D02*
X1071217Y221413D01*
X927962Y204737D02*
X937710Y247643D01*
X917153Y121052D02*
X926015Y160058D01*
X917153Y121052D02*
X917153Y121052D01*
X917153Y121052D02*
X1038072Y93580D01*
X1038072Y93580D02*
X1038072Y93580D01*
X1038072Y93580D02*
X1046934Y132586D01*
X1044987Y87907D02*
X1054735Y130813D01*
X911480Y114137D02*
X1040200Y84892D01*
X908466Y118924D02*
X918214Y161830D01*
X1123929Y140071D02*
X1147327Y172514D01*
X1123929Y140071D02*
X1123929Y140071D01*
X1123929Y140071D02*
X1224501Y67536D01*
X1224501Y67536D02*
X1224501Y67536D01*
X1224501Y67536D02*
X1247899Y99979D01*
X1228650Y59612D02*
X1254388Y95299D01*
X1116005Y135922D02*
X1223066Y58708D01*
X1115101Y141507D02*
X1140839Y177193D01*
X1173066Y208200D02*
X1196464Y240643D01*
X1196464Y240643D02*
X1196464Y240643D01*
X1196464Y240643D02*
X1297036Y168108D01*
X1297036Y168108D02*
X1297036Y168108D01*
X1273637Y135666D02*
X1297036Y168108D01*
X1280126Y130986D02*
X1305864Y166673D01*
X1197899Y249471D02*
X1304960Y172257D01*
X1166577Y212880D02*
X1192315Y248567D01*
X769849Y1029084D02*
Y1069084D01*
X769849Y1069084D02*
X769849Y1069084D01*
X769849Y1069084D02*
X893849D01*
X893849Y1069084D02*
X893849Y1069084D01*
X893849Y1029084D02*
Y1069084D01*
X901849Y1029084D02*
Y1073084D01*
X765849Y1077084D02*
X897849D01*
X761849Y1029084D02*
Y1073084D01*
X769849Y945084D02*
Y985084D01*
X769849Y945084D02*
X769849Y945084D01*
X769849Y945084D02*
X893849D01*
X893849Y945084D02*
X893849Y945084D01*
X893849Y945084D02*
Y985084D01*
X901849Y941084D02*
Y985084D01*
X765849Y937084D02*
X897849D01*
X761849Y941084D02*
Y985084D01*
X404510Y960261D02*
Y1000261D01*
X404510Y960261D02*
X404510Y960261D01*
X404510Y960261D02*
X528509D01*
X528509Y960261D02*
X528509Y960261D01*
X528509Y960261D02*
Y1000261D01*
X536510Y956261D02*
Y1000261D01*
X400509Y952261D02*
X532509D01*
X396510Y956261D02*
Y1000261D01*
X404510Y1044261D02*
Y1084261D01*
X404510Y1084261D02*
X404510Y1084261D01*
X404510Y1084261D02*
X528509D01*
X528509Y1084261D02*
X528509Y1084261D01*
X528509Y1044261D02*
Y1084261D01*
X536510Y1044261D02*
Y1088261D01*
X400509Y1092261D02*
X532509D01*
X396510Y1044261D02*
Y1088261D01*
X587005Y894452D02*
Y934452D01*
X587005Y934452D02*
X587005Y934452D01*
X587005Y934452D02*
X711005D01*
X711004Y934452D02*
X711005Y934452D01*
X711004Y894452D02*
Y934452D01*
X719005Y894452D02*
Y938452D01*
X583005Y942452D02*
X715005D01*
X579005Y894452D02*
Y938452D01*
X587005Y810452D02*
Y850452D01*
X587005Y810452D02*
X587005Y810452D01*
X587005Y810452D02*
X711005D01*
X711004Y810452D02*
X711005Y810452D01*
X711004Y810452D02*
Y850452D01*
X719005Y806452D02*
Y850452D01*
X583005Y802452D02*
X715005D01*
X579005Y806452D02*
Y850452D01*
X10506Y303757D02*
X1303468Y1373D01*
X1341680Y27342D02*
X1342772Y618278D01*
X1342032Y1007423D02*
X1342772Y618278D01*
X1099556Y1022233D02*
X1330680Y1021342D01*
X939941Y1023488D02*
X1099556Y1022233D01*
X928589Y1037406D02*
X928772Y1088278D01*
X757941Y1102488D02*
X917420Y1102196D01*
X746589Y1116406D02*
X746772Y1139277D01*
X562745Y1153433D02*
X735420Y1153196D01*
X548680Y1134342D02*
X548826Y1142081D01*
X382599Y1122693D02*
X534762Y1122990D01*
X368680Y1087342D02*
X368680Y1111342D01*
X198599Y1075694D02*
X354762Y1075990D01*
X184680Y1060342D02*
X184680Y1064342D01*
X16599Y1048693D02*
X170762Y1048990D01*
X1329Y317260D02*
X2680Y1037342D01*
X583005Y802452D02*
X715005D01*
X587005Y810452D02*
X711005D01*
X587005Y934452D02*
X711005D01*
X583005Y942452D02*
X715005D01*
X587005Y810452D02*
X587005Y850452D01*
X579005Y806452D02*
Y850452D01*
X711004D02*
X711005Y810452D01*
X719005Y806452D02*
Y850452D01*
X711004Y894452D02*
X711005Y934452D01*
X719005Y894452D02*
Y938452D01*
X587005Y934452D02*
X587005Y894452D01*
X579005D02*
Y938452D01*
X396510Y1044261D02*
Y1088261D01*
X404510Y1084261D02*
X404510Y1044261D01*
X536510Y1044261D02*
Y1088261D01*
X528509Y1044261D02*
X528509Y1084261D01*
X536510Y956261D02*
Y1000261D01*
X528509D02*
X528509Y960261D01*
X396510Y956261D02*
Y1000261D01*
X404510Y960261D02*
X404510Y1000261D01*
X400509Y1092261D02*
X532509D01*
X404510Y1084261D02*
X528509D01*
X404510Y960261D02*
X528509D01*
X400509Y952261D02*
X532509D01*
X765849Y937084D02*
X897849D01*
X769849Y945084D02*
X893849D01*
X769849Y1069084D02*
X893849D01*
X765849Y1077084D02*
X897849D01*
X769849Y945084D02*
X769849Y985084D01*
X761849Y941084D02*
Y985084D01*
X893849D02*
X893849Y945084D01*
X901849Y941084D02*
Y985084D01*
X893849Y1029084D02*
X893849Y1069084D01*
X901849Y1029084D02*
Y1073084D01*
X769849Y1069084D02*
X769849Y1029084D01*
X761849D02*
Y1073084D01*
X1166577Y212880D02*
X1192315Y248567D01*
X1173066Y208200D02*
X1196464Y240643D01*
X1280126Y130986D02*
X1305864Y166673D01*
X1273637Y135666D02*
X1297036Y168108D01*
X1228650Y59612D02*
X1254388Y95299D01*
X1224501Y67536D02*
X1247899Y99979D01*
X1115101Y141507D02*
X1140839Y177193D01*
X1123929Y140071D02*
X1147327Y172514D01*
X1197899Y249471D02*
X1304960Y172257D01*
X1196464Y240643D02*
X1297036Y168108D01*
X1123929Y140071D02*
X1224501Y67536D01*
X1116005Y135922D02*
X1223066Y58708D01*
X911480Y114137D02*
X1040200Y84892D01*
X917153Y121052D02*
X1038072Y93580D01*
X944625Y241970D02*
X1065544Y214498D01*
X942497Y250658D02*
X1071217Y221413D01*
X917153Y121052D02*
X926015Y160058D01*
X908466Y118924D02*
X918214Y161830D01*
X1038072Y93580D02*
X1046934Y132586D01*
X1044987Y87907D02*
X1054735Y130813D01*
X1056682Y175492D02*
X1065544Y214498D01*
X1064483Y173720D02*
X1074231Y216626D01*
X935764Y202964D02*
X944625Y241970D01*
X927962Y204737D02*
X937710Y247643D01*
X720500Y252000D02*
Y296000D01*
X728500Y292000D02*
X728500Y252000D01*
X860500Y252000D02*
Y296000D01*
X852500Y252000D02*
X852500Y292000D01*
X860500Y164000D02*
Y208000D01*
X852500D02*
X852500Y168000D01*
X720500Y164000D02*
Y208000D01*
X728500Y168000D02*
X728500Y208000D01*
X724500Y300000D02*
X856500D01*
X728500Y292000D02*
X852500D01*
X728500Y168000D02*
X852500D01*
X724500Y160000D02*
X856500D01*
X948658Y306964D02*
X1080658D01*
X952658Y314964D02*
X1076658D01*
X952658Y438964D02*
X1076658D01*
X948658Y446964D02*
X1080658D01*
X952658Y314964D02*
X952658Y354964D01*
X944658Y310964D02*
Y354964D01*
X1076658D02*
X1076658Y314964D01*
X1084658Y310964D02*
Y354964D01*
X1076658Y398964D02*
X1076658Y438964D01*
X1084658Y398964D02*
Y442964D01*
X952658Y438964D02*
X952658Y398964D01*
X944658D02*
Y442964D01*
X31030Y424724D02*
Y468724D01*
X39030Y464724D02*
X39030Y424724D01*
X171030Y424724D02*
Y468724D01*
X163030Y424724D02*
X163030Y464724D01*
X171030Y336724D02*
Y380724D01*
X163030D02*
X163030Y340724D01*
X31030Y336724D02*
Y380724D01*
X39030Y340724D02*
X39030Y380724D01*
X35030Y472724D02*
X167030D01*
X39030Y464724D02*
X163030D01*
X39030Y340724D02*
X163030D01*
X35030Y332724D02*
X167030D01*
X35086Y515353D02*
X167086D01*
X39086Y523353D02*
X163086D01*
X39086Y647353D02*
X163086D01*
X35086Y655353D02*
X167086D01*
X39086Y523353D02*
X39086Y563353D01*
X31086Y519353D02*
Y563353D01*
X163086D02*
X163086Y523353D01*
X171086Y519353D02*
Y563353D01*
X163086Y607353D02*
X163086Y647353D01*
X171086Y607353D02*
Y651353D01*
X39086Y647353D02*
X39086Y607353D01*
X31086D02*
Y651353D01*
X31143Y789982D02*
Y833982D01*
X39143Y829982D02*
X39143Y789982D01*
X171143Y789982D02*
Y833982D01*
X163143Y789982D02*
X163143Y829982D01*
X171143Y701982D02*
Y745982D01*
X163143D02*
X163143Y705982D01*
X31143Y701982D02*
Y745982D01*
X39143Y705982D02*
X39143Y745982D01*
X35143Y837982D02*
X167143D01*
X39143Y829982D02*
X163143D01*
X39143Y705982D02*
X163143D01*
X35143Y697982D02*
X167143D01*
X35199Y880611D02*
X167199D01*
X39199Y888612D02*
X163199D01*
X39199Y1012611D02*
X163199D01*
X35199Y1020611D02*
X167199D01*
X39199Y888612D02*
X39199Y928612D01*
X31199Y884612D02*
Y928612D01*
X163199D02*
X163199Y888612D01*
X171199Y884612D02*
Y928612D01*
X163199Y972611D02*
X163199Y1012611D01*
X171199Y972611D02*
Y1016611D01*
X39199Y1012611D02*
X39199Y972611D01*
X31199D02*
Y1016611D01*
X213660Y450399D02*
Y494399D01*
X221660Y490399D02*
X221660Y450399D01*
X353660Y450399D02*
Y494399D01*
X345660Y450399D02*
X345660Y490399D01*
X353660Y362399D02*
Y406399D01*
X345660D02*
X345660Y366399D01*
X213660Y362399D02*
Y406399D01*
X221660Y366399D02*
X221660Y406399D01*
X217660Y498399D02*
X349660D01*
X221660Y490399D02*
X345660D01*
X221660Y366399D02*
X345660D01*
X217660Y358399D02*
X349660D01*
X400300Y404374D02*
X532300D01*
X404300Y412374D02*
X528300D01*
X404300Y536373D02*
X528300D01*
X400300Y544374D02*
X532300D01*
X404300Y412374D02*
X404300Y452374D01*
X396300Y408373D02*
Y452374D01*
X528300D02*
X528300Y412374D01*
X536300Y408373D02*
Y452374D01*
X528300Y496373D02*
X528300Y536373D01*
X536300Y496373D02*
Y540373D01*
X404300Y536373D02*
X404300Y496373D01*
X396300D02*
Y540373D01*
X213700Y633028D02*
Y677029D01*
X221700Y673028D02*
X221700Y633028D01*
X353700Y633028D02*
Y677029D01*
X345700Y633028D02*
X345700Y673028D01*
X353700Y545028D02*
Y589029D01*
X345700D02*
X345700Y549029D01*
X213700Y545028D02*
Y589029D01*
X221700Y549029D02*
X221700Y589029D01*
X217700Y681029D02*
X349700D01*
X221700Y673028D02*
X345700D01*
X221700Y549029D02*
X345700D01*
X217700Y541029D02*
X349700D01*
X948561Y489609D02*
X1080561D01*
X952561Y497609D02*
X1076561D01*
X952561Y621609D02*
X1076561D01*
X948561Y629609D02*
X1080561D01*
X952561Y497609D02*
X952561Y537609D01*
X944561Y493609D02*
Y537609D01*
X1076561D02*
X1076561Y497609D01*
X1084561Y493609D02*
Y537609D01*
X1076561Y581609D02*
X1076561Y621609D01*
X1084561Y581609D02*
Y625609D01*
X952561Y621609D02*
X952561Y581609D01*
X944561D02*
Y625609D01*
X944617Y764238D02*
Y808238D01*
X952617Y804238D02*
X952617Y764238D01*
X1084617Y764238D02*
Y808238D01*
X1076617Y764238D02*
X1076617Y804238D01*
X1084617Y676238D02*
Y720238D01*
X1076617D02*
X1076617Y680238D01*
X944617Y676238D02*
Y720238D01*
X952617Y680238D02*
X952617Y720238D01*
X948617Y812238D02*
X1080617D01*
X952617Y804238D02*
X1076617D01*
X952617Y680238D02*
X1076617D01*
X948617Y672238D02*
X1080617D01*
X582948Y619823D02*
X714948D01*
X586948Y627823D02*
X710948D01*
X586948Y751823D02*
X710948D01*
X582948Y759823D02*
X714948D01*
X586948Y627823D02*
X586949Y667823D01*
X578948Y623823D02*
Y667823D01*
X710948D02*
X710948Y627823D01*
X718948Y623823D02*
Y667823D01*
X710948Y711823D02*
X710948Y751823D01*
X718948Y711823D02*
Y755823D01*
X586948Y751823D02*
X586949Y711823D01*
X578948D02*
Y755823D01*
X761589Y846455D02*
Y890455D01*
X769589Y886455D02*
X769589Y846455D01*
X901589Y846455D02*
Y890455D01*
X893589Y846455D02*
X893589Y886455D01*
X901589Y758455D02*
Y802455D01*
X893589D02*
X893589Y762455D01*
X761589Y758455D02*
Y802455D01*
X769589Y762455D02*
X769589Y802455D01*
X765589Y894455D02*
X897589D01*
X769589Y886455D02*
X893589D01*
X769589Y762455D02*
X893589D01*
X765589Y754455D02*
X897589D01*
X217800Y906287D02*
X349800D01*
X221800Y914287D02*
X345800D01*
X221800Y1038287D02*
X345800D01*
X217800Y1046287D02*
X349800D01*
X221800Y914287D02*
X221800Y954287D01*
X213800Y910287D02*
Y954287D01*
X345800D02*
X345800Y914287D01*
X353800Y910287D02*
Y954287D01*
X345800Y998287D02*
X345800Y1038287D01*
X353800Y998287D02*
Y1042287D01*
X221800Y1038287D02*
X221800Y998287D01*
X213800D02*
Y1042287D01*
Y815658D02*
Y859658D01*
X221800Y855658D02*
X221800Y815658D01*
X353800Y815658D02*
Y859658D01*
X345800Y815658D02*
X345800Y855658D01*
X353800Y727658D02*
Y771658D01*
X345800D02*
X345800Y731658D01*
X213800Y727658D02*
Y771658D01*
X221800Y731658D02*
X221800Y771658D01*
X217800Y863658D02*
X349800D01*
X221800Y855658D02*
X345800D01*
X221800Y731658D02*
X345800D01*
X217800Y723658D02*
X349800D01*
X400453Y769632D02*
X532453D01*
X404453Y777632D02*
X528453D01*
X404453Y901632D02*
X528453D01*
X400453Y909632D02*
X532453D01*
X404453Y777632D02*
X404453Y817632D01*
X396453Y773632D02*
Y817632D01*
X528453D02*
X528453Y777632D01*
X536453Y773632D02*
Y817632D01*
X528453Y861632D02*
X528453Y901632D01*
X536453Y861632D02*
Y905632D01*
X404453Y901632D02*
X404453Y861632D01*
X396453D02*
Y905632D01*
X944552Y946867D02*
Y990867D01*
X952552Y986867D02*
X952552Y946867D01*
X1084552Y946867D02*
Y990867D01*
X1076552Y946867D02*
X1076552Y986867D01*
X1084552Y858867D02*
Y902867D01*
X1076552D02*
X1076552Y862867D01*
X944552Y858867D02*
Y902867D01*
X952552Y862867D02*
X952552Y902867D01*
X948552Y994867D02*
X1080552D01*
X952552Y986867D02*
X1076552D01*
X952552Y862867D02*
X1076552D01*
X948552Y854867D02*
X1080552D01*
X583061Y985081D02*
X715061D01*
X587061Y993081D02*
X711061D01*
X587061Y1117081D02*
X711061D01*
X583061Y1125081D02*
X715061D01*
X587061Y993081D02*
X587061Y1033081D01*
X579061Y989081D02*
Y1033081D01*
X711061D02*
X711061Y993081D01*
X719061Y989081D02*
Y1033081D01*
X711061Y1077081D02*
X711061Y1117081D01*
X719061Y1077081D02*
Y1121081D01*
X587061Y1117081D02*
X587061Y1077081D01*
X579061D02*
Y1121081D01*
X578892Y529194D02*
Y573194D01*
X586892Y569194D02*
X586892Y529194D01*
X718892Y529194D02*
Y573194D01*
X710892Y529194D02*
X710892Y569194D01*
X718892Y441194D02*
Y485194D01*
X710892D02*
X710892Y445194D01*
X578892Y441194D02*
Y485194D01*
X586892Y445194D02*
X586892Y485194D01*
X582892Y577194D02*
X714892D01*
X586892Y569194D02*
X710892D01*
X586892Y445194D02*
X710892D01*
X582892Y437194D02*
X714892D01*
X765533Y571826D02*
X897533D01*
X769533Y579826D02*
X893533D01*
X769533Y703826D02*
X893533D01*
X765533Y711826D02*
X897533D01*
X769533Y579826D02*
X769533Y619826D01*
X761533Y575826D02*
Y619826D01*
X893533D02*
X893533Y579826D01*
X901533Y575826D02*
Y619826D01*
X893533Y663826D02*
X893533Y703826D01*
X901533Y663826D02*
Y707826D01*
X769533Y703826D02*
X769533Y663826D01*
X761533D02*
Y707826D01*
X761477Y481197D02*
Y525197D01*
X769477Y521197D02*
X769477Y481197D01*
X901477Y481197D02*
Y525197D01*
X893477Y481197D02*
X893477Y521197D01*
X901477Y393197D02*
Y437197D01*
X893477D02*
X893477Y397197D01*
X761477Y393197D02*
Y437197D01*
X769477Y397197D02*
X769477Y437197D01*
X765477Y529197D02*
X897477D01*
X769477Y521197D02*
X893477D01*
X769477Y397197D02*
X893477D01*
X765477Y389197D02*
X897477D01*
X400397Y587003D02*
X532397D01*
X404397Y595003D02*
X528397D01*
X404397Y719003D02*
X528397D01*
X400397Y727003D02*
X532397D01*
X404397Y595003D02*
X404397Y635003D01*
X396397Y591003D02*
Y635003D01*
X528397D02*
X528397Y595003D01*
X536397Y591003D02*
Y635003D01*
X528397Y679003D02*
X528397Y719003D01*
X536397Y679003D02*
Y723003D01*
X404397Y719003D02*
X404397Y679003D01*
X396397D02*
Y723003D01*
X404397Y595003D02*
X404397Y635003D01*
X404397Y595003D02*
X528397Y595003D01*
Y635003D01*
X536397Y591003D02*
Y635003D01*
X400397Y587003D02*
X532397D01*
X396397Y591003D02*
Y635003D01*
X404397Y719003D02*
X404397Y679003D01*
X404397Y719003D02*
X528397Y719003D01*
Y679003D02*
Y719003D01*
X536397Y679003D02*
Y723003D01*
X400397Y727003D02*
X532397D01*
X396397Y679003D02*
Y723003D01*
X769477Y521197D02*
X769477Y481197D01*
X769477Y521197D02*
X893477Y521197D01*
Y481197D02*
Y521197D01*
X901477Y481197D02*
Y525197D01*
X765477Y529197D02*
X897477D01*
X761477Y481197D02*
Y525197D01*
X769477Y397197D02*
X769477Y437197D01*
X769477Y397197D02*
X893477Y397197D01*
Y437197D01*
X901477Y393197D02*
Y437197D01*
X765477Y389197D02*
X897477D01*
X761477Y393197D02*
Y437197D01*
X769533Y579826D02*
X769533Y619826D01*
X769533Y579826D02*
X893533Y579826D01*
Y619826D01*
X901533Y575826D02*
Y619826D01*
X765533Y571826D02*
X897533D01*
X761533Y575826D02*
Y619826D01*
X769533Y703826D02*
X769533Y663826D01*
X769533Y703826D02*
X893533Y703826D01*
Y663826D02*
Y703826D01*
X901533Y663826D02*
Y707826D01*
X765533Y711826D02*
X897533D01*
X761533Y663826D02*
Y707826D01*
X586892Y569194D02*
X586892Y529194D01*
X586892Y569194D02*
X710892Y569194D01*
Y529194D02*
Y569194D01*
X718892Y529194D02*
Y573194D01*
X582892Y577194D02*
X714892D01*
X578892Y529194D02*
Y573194D01*
X586892Y445194D02*
X586892Y485194D01*
X586892Y445194D02*
X710892Y445194D01*
Y485194D01*
X718892Y441194D02*
Y485194D01*
X582892Y437194D02*
X714892D01*
X578892Y441194D02*
Y485194D01*
X587061Y993081D02*
X587061Y1033081D01*
X587061Y993081D02*
X711061Y993081D01*
Y1033081D01*
X719061Y989081D02*
Y1033081D01*
X583061Y985081D02*
X715061D01*
X579061Y989081D02*
Y1033081D01*
X587061Y1117081D02*
X587061Y1077081D01*
X587061Y1117081D02*
X711061Y1117081D01*
Y1077081D02*
Y1117081D01*
X719061Y1077081D02*
Y1121081D01*
X583061Y1125081D02*
X715061D01*
X579061Y1077081D02*
Y1121081D01*
X952552Y986867D02*
X952552Y946867D01*
X952552Y986867D02*
X1076552Y986867D01*
Y946867D02*
Y986867D01*
X1084552Y946867D02*
Y990867D01*
X948552Y994867D02*
X1080552D01*
X944552Y946867D02*
Y990867D01*
X952552Y862867D02*
X952552Y902867D01*
X952552Y862867D02*
X1076552Y862867D01*
Y902867D01*
X1084552Y858867D02*
Y902867D01*
X948552Y854867D02*
X1080552D01*
X944552Y858867D02*
Y902867D01*
X404453Y777632D02*
X404453Y817632D01*
X404453Y777632D02*
X528453Y777632D01*
Y817632D01*
X536453Y773632D02*
Y817632D01*
X400453Y769632D02*
X532453D01*
X396453Y773632D02*
Y817632D01*
X404453Y901632D02*
X404453Y861632D01*
X404453Y901632D02*
X528453Y901632D01*
Y861632D02*
Y901632D01*
X536453Y861632D02*
Y905632D01*
X400453Y909632D02*
X532453D01*
X396453Y861632D02*
Y905632D01*
X221800Y855658D02*
X221800Y815658D01*
X221800Y855658D02*
X345800Y855658D01*
Y815658D02*
Y855658D01*
X353800Y815658D02*
Y859658D01*
X217800Y863658D02*
X349800D01*
X213800Y815658D02*
Y859658D01*
X221800Y731658D02*
X221800Y771658D01*
X221800Y731658D02*
X345800Y731658D01*
Y771658D01*
X353800Y727658D02*
Y771658D01*
X217800Y723658D02*
X349800D01*
X213800Y727658D02*
Y771658D01*
X221800Y914287D02*
X221800Y954287D01*
X221800Y914287D02*
X345800Y914287D01*
Y954287D01*
X353800Y910287D02*
Y954287D01*
X217800Y906287D02*
X349800D01*
X213800Y910287D02*
Y954287D01*
X221800Y1038287D02*
X221800Y998287D01*
X221800Y1038287D02*
X345800Y1038287D01*
Y998287D02*
Y1038287D01*
X353800Y998287D02*
Y1042287D01*
X217800Y1046287D02*
X349800D01*
X213800Y998287D02*
Y1042287D01*
X769589Y886455D02*
X769589Y846455D01*
X769589Y886455D02*
X893589Y886455D01*
Y846455D02*
Y886455D01*
X901589Y846455D02*
Y890455D01*
X765589Y894455D02*
X897589D01*
X761589Y846455D02*
Y890455D01*
X769589Y762455D02*
X769589Y802455D01*
X769589Y762455D02*
X893589Y762455D01*
Y802455D01*
X901589Y758455D02*
Y802455D01*
X765589Y754455D02*
X897589D01*
X761589Y758455D02*
Y802455D01*
X586948Y627823D02*
X586949Y667823D01*
X586948Y627823D02*
X710948Y627823D01*
Y667823D01*
X718948Y623823D02*
Y667823D01*
X582948Y619823D02*
X714948D01*
X578948Y623823D02*
Y667823D01*
X586948Y751823D02*
X586949Y711823D01*
X586948Y751823D02*
X710948Y751823D01*
Y711823D02*
Y751823D01*
X718948Y711823D02*
Y755823D01*
X582948Y759823D02*
X714948D01*
X578948Y711823D02*
Y755823D01*
X952617Y804238D02*
X952617Y764238D01*
X952617Y804238D02*
X1076617Y804238D01*
Y764238D02*
Y804238D01*
X1084617Y764238D02*
Y808238D01*
X948617Y812238D02*
X1080617D01*
X944617Y764238D02*
Y808238D01*
X952617Y680238D02*
X952617Y720238D01*
X952617Y680238D02*
X1076617Y680238D01*
Y720238D01*
X1084617Y676238D02*
Y720238D01*
X948617Y672238D02*
X1080617D01*
X944617Y676238D02*
Y720238D01*
X952561Y497609D02*
X952561Y537609D01*
X952561Y497609D02*
X1076561Y497609D01*
Y537609D01*
X1084561Y493609D02*
Y537609D01*
X948561Y489609D02*
X1080561D01*
X944561Y493609D02*
Y537609D01*
X952561Y621609D02*
X952561Y581609D01*
X952561Y621609D02*
X1076561Y621609D01*
Y581609D02*
Y621609D01*
X1084561Y581609D02*
Y625609D01*
X948561Y629609D02*
X1080561D01*
X944561Y581609D02*
Y625609D01*
X221700Y673028D02*
X221700Y633028D01*
X221700Y673028D02*
X345700Y673028D01*
Y633028D02*
Y673028D01*
X353700Y633028D02*
Y677029D01*
X217700Y681029D02*
X349700D01*
X213700Y633028D02*
Y677029D01*
X221700Y549029D02*
X221700Y589029D01*
X221700Y549029D02*
X345700Y549029D01*
Y589029D01*
X353700Y545028D02*
Y589029D01*
X217700Y541029D02*
X349700D01*
X213700Y545028D02*
Y589029D01*
X404300Y412374D02*
X404300Y452374D01*
X404300Y412374D02*
X528300Y412374D01*
Y452374D01*
X536300Y408373D02*
Y452374D01*
X400300Y404374D02*
X532300D01*
X396300Y408373D02*
Y452374D01*
X404300Y536373D02*
X404300Y496373D01*
X404300Y536373D02*
X528300Y536373D01*
Y496373D02*
Y536373D01*
X536300Y496373D02*
Y540373D01*
X400300Y544374D02*
X532300D01*
X396300Y496373D02*
Y540373D01*
X221660Y490399D02*
X221660Y450399D01*
X221660Y490399D02*
X345660Y490399D01*
Y450399D02*
Y490399D01*
X353660Y450399D02*
Y494399D01*
X217660Y498399D02*
X349660D01*
X213660Y450399D02*
Y494399D01*
X221660Y366399D02*
X221660Y406399D01*
X221660Y366399D02*
X345660Y366399D01*
Y406399D01*
X353660Y362399D02*
Y406399D01*
X217660Y358399D02*
X349660D01*
X213660Y362399D02*
Y406399D01*
X39143Y829982D02*
X39143Y789982D01*
X39143Y829982D02*
X163143Y829982D01*
Y789982D02*
Y829982D01*
X171143Y789982D02*
Y833982D01*
X35143Y837982D02*
X167143D01*
X31143Y789982D02*
Y833982D01*
X39143Y705982D02*
X39143Y745982D01*
X39143Y705982D02*
X163143Y705982D01*
Y745982D01*
X171143Y701982D02*
Y745982D01*
X35143Y697982D02*
X167143D01*
X31143Y701982D02*
Y745982D01*
X39086Y523353D02*
X39086Y563353D01*
X39086Y523353D02*
X163086Y523353D01*
Y563353D01*
X171086Y519353D02*
Y563353D01*
X35086Y515353D02*
X167086D01*
X31086Y519353D02*
Y563353D01*
X39086Y647353D02*
X39086Y607353D01*
X39086Y647353D02*
X163086Y647353D01*
Y607353D02*
Y647353D01*
X171086Y607353D02*
Y651353D01*
X35086Y655353D02*
X167086D01*
X31086Y607353D02*
Y651353D01*
X39030Y464724D02*
X39030Y424724D01*
X39030Y464724D02*
X163030Y464724D01*
Y424724D02*
Y464724D01*
X171030Y424724D02*
Y468724D01*
X35030Y472724D02*
X167030D01*
X31030Y424724D02*
Y468724D01*
X39030Y340724D02*
X39030Y380724D01*
X39030Y340724D02*
X163030Y340724D01*
Y380724D01*
X171030Y336724D02*
Y380724D01*
X35030Y332724D02*
X167030D01*
X31030Y336724D02*
Y380724D01*
X952658Y314964D02*
X952658Y354964D01*
X952658Y314964D02*
X1076658Y314964D01*
Y354964D01*
X1084658Y310964D02*
Y354964D01*
X948658Y306964D02*
X1080658D01*
X944658Y310964D02*
Y354964D01*
X952658Y438964D02*
X952658Y398964D01*
X952658Y438964D02*
X1076658Y438964D01*
Y398964D02*
Y438964D01*
X1084658Y398964D02*
Y442964D01*
X948658Y446964D02*
X1080658D01*
X944658Y398964D02*
Y442964D01*
X728500Y292000D02*
X728500Y252000D01*
X728500Y292000D02*
X852500Y292000D01*
Y252000D02*
Y292000D01*
X860500Y252000D02*
Y296000D01*
X724500Y300000D02*
X856500D01*
X720500Y252000D02*
Y296000D01*
X728500Y168000D02*
X728500Y208000D01*
X728500Y168000D02*
X852500Y168000D01*
Y208000D01*
X860500Y164000D02*
Y208000D01*
X724500Y160000D02*
X856500D01*
X720500Y164000D02*
Y208000D01*
X917153Y121052D02*
X926015Y160058D01*
X917153Y121052D02*
X1038072Y93580D01*
X1046934Y132586D01*
X1044987Y87907D02*
X1054735Y130813D01*
X911480Y114137D02*
X1040200Y84892D01*
X908466Y118924D02*
X918214Y161830D01*
X935764Y202964D02*
X944625Y241970D01*
X1065544Y214498D01*
X1056682Y175492D02*
X1065544Y214498D01*
X1064483Y173720D02*
X1074231Y216626D01*
X942497Y250658D02*
X1071217Y221413D01*
X927962Y204737D02*
X937710Y247643D01*
X1173066Y208200D02*
X1196464Y240643D01*
X1297036Y168108D01*
X1273637Y135666D02*
X1297036Y168108D01*
X1280126Y130986D02*
X1305864Y166673D01*
X1197899Y249471D02*
X1304960Y172257D01*
X1166577Y212880D02*
X1192315Y248567D01*
X1123929Y140071D02*
X1147327Y172514D01*
X1123929Y140071D02*
X1224501Y67536D01*
X1247899Y99979D01*
X1228650Y59612D02*
X1254388Y95299D01*
X1116005Y135922D02*
X1223066Y58708D01*
X1115101Y141507D02*
X1140839Y177193D01*
X769849Y945084D02*
X769849Y985084D01*
X769849Y945084D02*
X893849Y945084D01*
Y985084D01*
X901849Y941084D02*
Y985084D01*
X765849Y937084D02*
X897849D01*
X761849Y941084D02*
Y985084D01*
X769849Y1069084D02*
X769849Y1029084D01*
X769849Y1069084D02*
X893849Y1069084D01*
Y1029084D02*
Y1069084D01*
X901849Y1029084D02*
Y1073084D01*
X765849Y1077084D02*
X897849D01*
X761849Y1029084D02*
Y1073084D01*
X404510Y1084261D02*
X404510Y1044261D01*
X404510Y1084261D02*
X528509Y1084261D01*
Y1044261D02*
Y1084261D01*
X536510Y1044261D02*
Y1088261D01*
X400509Y1092261D02*
X532509D01*
X396510Y1044261D02*
Y1088261D01*
X404510Y960261D02*
X404510Y1000261D01*
X404510Y960261D02*
X528509Y960261D01*
Y1000261D01*
X536510Y956261D02*
Y1000261D01*
X400509Y952261D02*
X532509D01*
X396510Y956261D02*
Y1000261D01*
X587005Y810452D02*
X587005Y850452D01*
X587005Y810452D02*
X711004Y810452D01*
Y850452D01*
X719005Y806452D02*
Y850452D01*
X583005Y802452D02*
X715005D01*
X579005Y806452D02*
Y850452D01*
X587005Y934452D02*
X587005Y894452D01*
X587005Y934452D02*
X711004Y934452D01*
Y894452D02*
Y934452D01*
X719005Y894452D02*
Y938452D01*
X583005Y942452D02*
X715005D01*
X579005Y894452D02*
Y938452D01*
X39199Y888612D02*
X39199Y928612D01*
X39199Y888612D02*
X163199Y888612D01*
Y928612D01*
X171199Y884612D02*
Y928612D01*
X35199Y880611D02*
X167199D01*
X31199Y884612D02*
Y928612D01*
X39199Y1012611D02*
X39199Y972611D01*
X39199Y1012611D02*
X163199Y1012611D01*
Y972611D02*
Y1012611D01*
X171199Y972611D02*
Y1016611D01*
X35199Y1020611D02*
X167199D01*
X31199Y972611D02*
Y1016611D01*
X10506Y303757D02*
X1303468Y1373D01*
X1341680Y27342D02*
X1342772Y618278D01*
X1342032Y1007423D02*
X1342772Y618278D01*
X1099556Y1022233D02*
X1330680Y1021342D01*
X939941Y1023488D02*
X1099556Y1022233D01*
X928589Y1037406D02*
X928772Y1088278D01*
X757941Y1102488D02*
X917420Y1102196D01*
X746589Y1116406D02*
X746772Y1139277D01*
X562745Y1153433D02*
X735420Y1153196D01*
X548680Y1134342D02*
X548826Y1142081D01*
X382599Y1122693D02*
X534762Y1122990D01*
X368680Y1087342D02*
X368680Y1111342D01*
X198599Y1075694D02*
X354762Y1075990D01*
X184680Y1060342D02*
X184680Y1064342D01*
X16599Y1048693D02*
X170762Y1048990D01*
X1329Y317260D02*
X2680Y1037342D01*
M02*
