G04*
G04 #@! TF.GenerationSoftware,Altium Limited,Altium Designer,23.0.1 (38)*
G04*
G04 Layer_Color=16711935*
%FSLAX44Y44*%
%MOMM*%
G71*
G04*
G04 #@! TF.SameCoordinates,0B1D91C4-5DF2-49A7-A8E5-8765CD2E41FD*
G04*
G04*
G04 #@! TF.FilePolarity,Negative*
G04*
G01*
G75*
%ADD14C,0.2500*%
G04:AMPARAMS|DCode=17|XSize=15.2032mm|YSize=8.7032mm|CornerRadius=2.2266mm|HoleSize=0mm|Usage=FLASHONLY|Rotation=90.000|XOffset=0mm|YOffset=0mm|HoleType=Round|Shape=RoundedRectangle|*
%AMROUNDEDRECTD17*
21,1,15.2032,4.2500,0,0,90.0*
21,1,10.7500,8.7032,0,0,90.0*
1,1,4.4532,2.1250,5.3750*
1,1,4.4532,2.1250,-5.3750*
1,1,4.4532,-2.1250,-5.3750*
1,1,4.4532,-2.1250,5.3750*
%
%ADD17ROUNDEDRECTD17*%
%ADD18C,1.8032*%
%ADD19C,4.5032*%
%ADD20C,2.2032*%
%ADD21C,2.7032*%
%ADD22O,2.7032X2.0032*%
G04:AMPARAMS|DCode=23|XSize=2.7032mm|YSize=2.0032mm|CornerRadius=0mm|HoleSize=0mm|Usage=FLASHONLY|Rotation=324.200|XOffset=0mm|YOffset=0mm|HoleType=Round|Shape=Round|*
%AMOVALD23*
21,1,0.7000,2.0032,0.0000,0.0000,324.2*
1,1,2.0032,-0.2839,0.2047*
1,1,2.0032,0.2839,-0.2047*
%
%ADD23OVALD23*%

G04:AMPARAMS|DCode=24|XSize=2.7032mm|YSize=2.0032mm|CornerRadius=0mm|HoleSize=0mm|Usage=FLASHONLY|Rotation=347.200|XOffset=0mm|YOffset=0mm|HoleType=Round|Shape=Round|*
%AMOVALD24*
21,1,0.7000,2.0032,0.0000,0.0000,347.2*
1,1,2.0032,-0.3413,0.0775*
1,1,2.0032,0.3413,-0.0775*
%
%ADD24OVALD24*%

%ADD25R,1.7032X1.7032*%
%ADD26C,1.7032*%
%ADD27C,0.8032*%
G04:AMPARAMS|DCode=46|XSize=1.5532mm|YSize=1.9032mm|CornerRadius=0.4391mm|HoleSize=0mm|Usage=FLASHONLY|Rotation=90.000|XOffset=0mm|YOffset=0mm|HoleType=Round|Shape=RoundedRectangle|*
%AMROUNDEDRECTD46*
21,1,1.5532,1.0250,0,0,90.0*
21,1,0.6750,1.9032,0,0,90.0*
1,1,0.8782,0.5125,0.3375*
1,1,0.8782,0.5125,-0.3375*
1,1,0.8782,-0.5125,-0.3375*
1,1,0.8782,-0.5125,0.3375*
%
%ADD46ROUNDEDRECTD46*%
G04:AMPARAMS|DCode=47|XSize=1.5532mm|YSize=1.9032mm|CornerRadius=0.4391mm|HoleSize=0mm|Usage=FLASHONLY|Rotation=180.000|XOffset=0mm|YOffset=0mm|HoleType=Round|Shape=RoundedRectangle|*
%AMROUNDEDRECTD47*
21,1,1.5532,1.0250,0,0,180.0*
21,1,0.6750,1.9032,0,0,180.0*
1,1,0.8782,-0.3375,0.5125*
1,1,0.8782,0.3375,0.5125*
1,1,0.8782,0.3375,-0.5125*
1,1,0.8782,-0.3375,-0.5125*
%
%ADD47ROUNDEDRECTD47*%
G04:AMPARAMS|DCode=48|XSize=0.8532mm|YSize=1.7532mm|CornerRadius=0.2641mm|HoleSize=0mm|Usage=FLASHONLY|Rotation=180.000|XOffset=0mm|YOffset=0mm|HoleType=Round|Shape=RoundedRectangle|*
%AMROUNDEDRECTD48*
21,1,0.8532,1.2250,0,0,180.0*
21,1,0.3250,1.7532,0,0,180.0*
1,1,0.5282,-0.1625,0.6125*
1,1,0.5282,0.1625,0.6125*
1,1,0.5282,0.1625,-0.6125*
1,1,0.5282,-0.1625,-0.6125*
%
%ADD48ROUNDEDRECTD48*%
D14*
X1011294Y79180D02*
X1021243Y78169D01*
D17*
X1222500Y500000D02*
D03*
D18*
X636305Y923252D02*
D03*
X661705D02*
D03*
X479210Y1073061D02*
D03*
X453810D02*
D03*
X819149Y1057884D02*
D03*
X844549D02*
D03*
X1250499Y187863D02*
D03*
X1229898Y202721D02*
D03*
X990219Y220126D02*
D03*
X1014988Y214499D02*
D03*
X803200Y280800D02*
D03*
X777800D02*
D03*
X1001958Y427764D02*
D03*
X1027358D02*
D03*
X113730Y453524D02*
D03*
X88330D02*
D03*
X88386Y636153D02*
D03*
X113786D02*
D03*
X113843Y818782D02*
D03*
X88443D02*
D03*
X88499Y1001412D02*
D03*
X113899D02*
D03*
X296360Y479199D02*
D03*
X270960D02*
D03*
X453600Y525173D02*
D03*
X479000D02*
D03*
X296400Y661829D02*
D03*
X271000D02*
D03*
X1001861Y610409D02*
D03*
X1027261D02*
D03*
X1027317Y793038D02*
D03*
X1001917D02*
D03*
X636248Y740623D02*
D03*
X661648D02*
D03*
X844289Y875255D02*
D03*
X818889D02*
D03*
X271100Y1027087D02*
D03*
X296500D02*
D03*
Y844458D02*
D03*
X271100D02*
D03*
X453753Y890432D02*
D03*
X479153D02*
D03*
X1027252Y975667D02*
D03*
X1001852D02*
D03*
X636361Y1105881D02*
D03*
X661761D02*
D03*
X661592Y557994D02*
D03*
X636192D02*
D03*
X818833Y692626D02*
D03*
X844233D02*
D03*
X844177Y509997D02*
D03*
X818777D02*
D03*
X453697Y707803D02*
D03*
X479097D02*
D03*
D19*
X649005Y872452D02*
D03*
X466510Y1022261D02*
D03*
X831849Y1007084D02*
D03*
X1210482Y154090D02*
D03*
X991349Y167775D02*
D03*
X790500Y230000D02*
D03*
X1014658Y376964D02*
D03*
X101030Y402724D02*
D03*
X101086Y585353D02*
D03*
X101143Y767982D02*
D03*
X101199Y950611D02*
D03*
X283660Y428399D02*
D03*
X466300Y474374D02*
D03*
X283700Y611029D02*
D03*
X1014561Y559609D02*
D03*
X1014617Y742238D02*
D03*
X648948Y689823D02*
D03*
X831589Y824455D02*
D03*
X283800Y976287D02*
D03*
Y793658D02*
D03*
X466453Y839632D02*
D03*
X1014552Y924867D02*
D03*
X649061Y1055081D02*
D03*
X648892Y507194D02*
D03*
X831533Y641826D02*
D03*
X831477Y459197D02*
D03*
X466397Y657003D02*
D03*
D20*
X699805Y872452D02*
D03*
X598205D02*
D03*
X415709Y1022261D02*
D03*
X517309D02*
D03*
X882649Y1007084D02*
D03*
X781049D02*
D03*
X1169280Y183806D02*
D03*
X1251684Y124374D02*
D03*
X1040886Y156520D02*
D03*
X941811Y179030D02*
D03*
X739700Y230000D02*
D03*
X841300D02*
D03*
X1065458Y376964D02*
D03*
X963858D02*
D03*
X50230Y402724D02*
D03*
X151830D02*
D03*
X151886Y585353D02*
D03*
X50286D02*
D03*
X50343Y767982D02*
D03*
X151943D02*
D03*
X151999Y950611D02*
D03*
X50399D02*
D03*
X232860Y428399D02*
D03*
X334460D02*
D03*
X517100Y474374D02*
D03*
X415500D02*
D03*
X232900Y611029D02*
D03*
X334500D02*
D03*
X1065361Y559609D02*
D03*
X963761D02*
D03*
X963817Y742238D02*
D03*
X1065417D02*
D03*
X699748Y689823D02*
D03*
X598148D02*
D03*
X780789Y824455D02*
D03*
X882389D02*
D03*
X334600Y976287D02*
D03*
X233000D02*
D03*
Y793658D02*
D03*
X334600D02*
D03*
X517253Y839632D02*
D03*
X415653D02*
D03*
X963752Y924867D02*
D03*
X1065352D02*
D03*
X699861Y1055081D02*
D03*
X598261D02*
D03*
X598092Y507194D02*
D03*
X699692D02*
D03*
X882333Y641826D02*
D03*
X780733D02*
D03*
X780677Y459197D02*
D03*
X882277D02*
D03*
X517197Y657003D02*
D03*
X415597D02*
D03*
X1222500Y635000D02*
D03*
Y365000D02*
D03*
D21*
X687105Y847052D02*
D03*
X610905D02*
D03*
X428410Y996861D02*
D03*
X504609D02*
D03*
X869949Y981684D02*
D03*
X793749D02*
D03*
X1164723Y155775D02*
D03*
X1226526Y111202D02*
D03*
X1022875Y134565D02*
D03*
X948568Y151447D02*
D03*
X752400Y204600D02*
D03*
X828600D02*
D03*
X1052758Y351564D02*
D03*
X976558D02*
D03*
X62930Y377324D02*
D03*
X139130D02*
D03*
X139186Y559953D02*
D03*
X62986D02*
D03*
X63043Y742582D02*
D03*
X139243D02*
D03*
X139299Y925211D02*
D03*
X63099D02*
D03*
X245560Y402999D02*
D03*
X321760D02*
D03*
X504400Y448974D02*
D03*
X428200D02*
D03*
X245600Y585629D02*
D03*
X321800D02*
D03*
X1052661Y534209D02*
D03*
X976461D02*
D03*
X976517Y716838D02*
D03*
X1052717D02*
D03*
X687048Y664423D02*
D03*
X610848D02*
D03*
X793489Y799055D02*
D03*
X869689D02*
D03*
X321900Y950887D02*
D03*
X245700D02*
D03*
Y768258D02*
D03*
X321900D02*
D03*
X504553Y814232D02*
D03*
X428353D02*
D03*
X976452Y899467D02*
D03*
X1052652D02*
D03*
X687161Y1029681D02*
D03*
X610961D02*
D03*
X610792Y481794D02*
D03*
X686992D02*
D03*
X869633Y616426D02*
D03*
X793433D02*
D03*
X793377Y433797D02*
D03*
X869577D02*
D03*
X504497Y631603D02*
D03*
X428297D02*
D03*
D22*
X623605Y823684D02*
D03*
X674405D02*
D03*
X491909Y973493D02*
D03*
X441110D02*
D03*
X806449Y958316D02*
D03*
X857249D02*
D03*
X815900Y181232D02*
D03*
X765100D02*
D03*
X989258Y328196D02*
D03*
X1040058D02*
D03*
X126430Y353956D02*
D03*
X75630D02*
D03*
X75686Y536585D02*
D03*
X126486D02*
D03*
X126543Y719214D02*
D03*
X75743D02*
D03*
X75799Y901843D02*
D03*
X126599D02*
D03*
X309060Y379631D02*
D03*
X258260D02*
D03*
X440900Y425606D02*
D03*
X491700D02*
D03*
X309100Y562261D02*
D03*
X258300D02*
D03*
X989161Y510841D02*
D03*
X1039961D02*
D03*
X1040017Y693470D02*
D03*
X989217D02*
D03*
X623548Y641055D02*
D03*
X674348D02*
D03*
X856989Y775687D02*
D03*
X806189D02*
D03*
X258400Y927519D02*
D03*
X309200D02*
D03*
Y744890D02*
D03*
X258400D02*
D03*
X441053Y790864D02*
D03*
X491853D02*
D03*
X1039952Y876099D02*
D03*
X989152D02*
D03*
X623661Y1006313D02*
D03*
X674461D02*
D03*
X674292Y458426D02*
D03*
X623492D02*
D03*
X806133Y593058D02*
D03*
X856933D02*
D03*
X856877Y410429D02*
D03*
X806077D02*
D03*
X440997Y608235D02*
D03*
X491797D02*
D03*
D23*
X1202556Y99678D02*
D03*
X1161354Y129394D02*
D03*
D24*
X955776Y125846D02*
D03*
X1005313Y114592D02*
D03*
D25*
X1282500Y905800D02*
D03*
D26*
Y880400D02*
D03*
Y855000D02*
D03*
Y829600D02*
D03*
D27*
X1192500Y935000D02*
D03*
X1287564Y935063D02*
D03*
X1153658Y929840D02*
D03*
X1238702Y1007084D02*
D03*
D46*
X1189500Y985000D02*
D03*
X1165500D02*
D03*
D47*
X1142500Y982000D02*
D03*
Y958000D02*
D03*
D48*
X1222500Y880000D02*
D03*
X1232000Y906500D02*
D03*
X1213000D02*
D03*
M02*
