G04*
G04 #@! TF.GenerationSoftware,Altium Limited,Altium Designer,23.0.1 (38)*
G04*
G04 Layer_Physical_Order=2*
G04 Layer_Color=16711680*
%FSLAX44Y44*%
%MOMM*%
G71*
G04*
G04 #@! TF.SameCoordinates,731B261B-C9CE-40F0-B7EB-595BBDBE4ECB*
G04*
G04*
G04 #@! TF.FilePolarity,Positive*
G04*
G01*
G75*
%ADD10C,0.2540*%
G04:AMPARAMS|DCode=14|XSize=15mm|YSize=8.5mm|CornerRadius=2.125mm|HoleSize=0mm|Usage=FLASHONLY|Rotation=90.000|XOffset=0mm|YOffset=0mm|HoleType=Round|Shape=RoundedRectangle|*
%AMROUNDEDRECTD14*
21,1,15.0000,4.2500,0,0,90.0*
21,1,10.7500,8.5000,0,0,90.0*
1,1,4.2500,2.1250,5.3750*
1,1,4.2500,2.1250,-5.3750*
1,1,4.2500,-2.1250,-5.3750*
1,1,4.2500,-2.1250,5.3750*
%
%ADD14ROUNDEDRECTD14*%
%ADD29C,1.1000*%
%ADD30C,1.7000*%
%ADD31C,0.5000*%
%ADD32C,2.5000*%
%ADD33C,1.0000*%
%ADD34C,2.0000*%
%ADD35O,2.5000X1.8000*%
%ADD36C,4.3000*%
%ADD37C,1.6000*%
%ADD38R,1.5000X1.5000*%
%ADD39C,1.5000*%
G04:AMPARAMS|DCode=40|XSize=2.5mm|YSize=1.8mm|CornerRadius=0mm|HoleSize=0mm|Usage=FLASHONLY|Rotation=324.200|XOffset=0mm|YOffset=0mm|HoleType=Round|Shape=Round|*
%AMOVALD40*
21,1,0.7000,1.8000,0.0000,0.0000,324.2*
1,1,1.8000,-0.2839,0.2047*
1,1,1.8000,0.2839,-0.2047*
%
%ADD40OVALD40*%

G04:AMPARAMS|DCode=41|XSize=2.5mm|YSize=1.8mm|CornerRadius=0mm|HoleSize=0mm|Usage=FLASHONLY|Rotation=347.200|XOffset=0mm|YOffset=0mm|HoleType=Round|Shape=Round|*
%AMOVALD41*
21,1,0.7000,1.8000,0.0000,0.0000,347.2*
1,1,1.8000,-0.3413,0.0775*
1,1,1.8000,0.3413,-0.0775*
%
%ADD41OVALD41*%

%ADD42C,0.6000*%
G04:AMPARAMS|DCode=43|XSize=1.35mm|YSize=1.7mm|CornerRadius=0.3375mm|HoleSize=0mm|Usage=FLASHONLY|Rotation=180.000|XOffset=0mm|YOffset=0mm|HoleType=Round|Shape=RoundedRectangle|*
%AMROUNDEDRECTD43*
21,1,1.3500,1.0250,0,0,180.0*
21,1,0.6750,1.7000,0,0,180.0*
1,1,0.6750,-0.3375,0.5125*
1,1,0.6750,0.3375,0.5125*
1,1,0.6750,0.3375,-0.5125*
1,1,0.6750,-0.3375,-0.5125*
%
%ADD43ROUNDEDRECTD43*%
G04:AMPARAMS|DCode=44|XSize=1.35mm|YSize=1.7mm|CornerRadius=0.3375mm|HoleSize=0mm|Usage=FLASHONLY|Rotation=90.000|XOffset=0mm|YOffset=0mm|HoleType=Round|Shape=RoundedRectangle|*
%AMROUNDEDRECTD44*
21,1,1.3500,1.0250,0,0,90.0*
21,1,0.6750,1.7000,0,0,90.0*
1,1,0.6750,0.5125,0.3375*
1,1,0.6750,0.5125,-0.3375*
1,1,0.6750,-0.5125,-0.3375*
1,1,0.6750,-0.5125,0.3375*
%
%ADD44ROUNDEDRECTD44*%
G04:AMPARAMS|DCode=45|XSize=0.65mm|YSize=1.55mm|CornerRadius=0.1625mm|HoleSize=0mm|Usage=FLASHONLY|Rotation=180.000|XOffset=0mm|YOffset=0mm|HoleType=Round|Shape=RoundedRectangle|*
%AMROUNDEDRECTD45*
21,1,0.6500,1.2250,0,0,180.0*
21,1,0.3250,1.5500,0,0,180.0*
1,1,0.3250,-0.1625,0.6125*
1,1,0.3250,0.1625,0.6125*
1,1,0.3250,0.1625,-0.6125*
1,1,0.3250,-0.1625,-0.6125*
%
%ADD45ROUNDEDRECTD45*%
D10*
X898849Y1007084D02*
X1238702D01*
X943018Y254051D02*
X943762D01*
X944155Y253659D01*
X1070299Y225000D01*
X924569Y272500D02*
X943018Y254051D01*
X1125167Y224256D02*
X1156141Y193282D01*
X1070299Y225000D02*
X1124423D01*
X1125167Y224256D01*
X924569Y272500D02*
Y343875D01*
X924748Y344055D02*
X947658Y366964D01*
X924569Y196031D02*
Y272246D01*
X579842Y383659D02*
X634071Y329430D01*
X723500Y240000D01*
X392500Y329430D02*
X634071D01*
X210366Y359378D02*
Y412106D01*
Y359378D02*
X210675Y359069D01*
X210366Y412106D02*
X216660Y418400D01*
X210675Y329430D02*
Y359069D01*
X389325Y329430D02*
X392500D01*
X32009D02*
X210675D01*
X389325D01*
X392500D02*
Y331525D01*
X27736Y333702D02*
X32009Y329430D01*
X575598Y388156D02*
Y490899D01*
Y387902D02*
X579662Y383838D01*
X699118D01*
X762129Y473562D02*
X764477Y471215D01*
Y629752D02*
Y631770D01*
X758182Y622791D02*
X762186Y626794D01*
X758182Y478176D02*
X762129Y474229D01*
X762186Y627461D02*
X764477Y629752D01*
X758182Y478176D02*
Y622791D01*
X762186Y626794D02*
Y627461D01*
X762129Y473562D02*
Y474229D01*
X764477Y469197D02*
Y471215D01*
X754993Y383838D02*
X758182Y387028D01*
Y440218D01*
X762129Y444165D02*
Y444831D01*
X754993Y383838D02*
X898434D01*
X764477Y447178D02*
Y449197D01*
X762129Y444831D02*
X764477Y447178D01*
X758182Y440218D02*
X762129Y444165D01*
X699372Y383838D02*
X754993D01*
X1185000Y935000D02*
X1192500D01*
X1132738Y882738D02*
X1185000Y935000D01*
X1228600D02*
X1232000Y931600D01*
X1189500Y985000D02*
X1192500Y982000D01*
Y935000D02*
X1228600D01*
X1192500D02*
Y982000D01*
X1132738Y718044D02*
Y882738D01*
X1287564Y935063D02*
X1287627Y935127D01*
X1287500Y935000D02*
X1287564Y935063D01*
X941258Y941162D02*
X947552Y934867D01*
X941267Y628630D02*
Y725887D01*
Y628630D02*
X981581Y668944D01*
X940007Y627370D02*
X941267Y628630D01*
X898434Y383838D02*
X940007Y425412D01*
Y627370D01*
X981581Y668944D02*
X1083638D01*
X1132738Y718044D01*
X758295Y840749D02*
Y990530D01*
X758239Y658120D02*
Y808105D01*
X764589Y814455D01*
X392500Y331525D02*
Y457574D01*
X399300Y464374D01*
X575598Y490899D02*
X581892Y497193D01*
X27736Y386430D02*
X34031Y392724D01*
X27736Y333702D02*
Y386430D01*
X924569Y196031D02*
X928229Y192371D01*
X1235400Y935000D02*
X1287500D01*
X1232000Y931600D02*
X1235400Y935000D01*
X1232000Y906500D02*
Y931600D01*
X1142500Y940998D02*
X1153658Y929840D01*
X1142500Y940998D02*
Y958000D01*
Y982000D02*
X1162499D01*
X1165500Y985000D01*
X1222500Y735000D02*
Y880000D01*
X1262732Y905800D02*
X1282500D01*
X1251702Y894770D02*
X1262732Y905800D01*
X1224730Y894770D02*
X1251702D01*
X1213000Y906500D02*
X1224730Y894770D01*
X27736Y419018D02*
X34031Y412724D01*
X27736Y419018D02*
Y569003D01*
X34086Y575353D01*
X210366Y444693D02*
X216660Y438400D01*
X210366Y444693D02*
Y594694D01*
X216700Y601029D01*
X399300Y484374D02*
X399300D01*
X393006Y490668D02*
X399300Y484374D01*
X393006Y490668D02*
Y640611D01*
X399397Y647003D01*
X34086Y595353D02*
Y595353D01*
X27792Y601647D02*
X34086Y595353D01*
X27792Y601647D02*
Y751632D01*
X34143Y757982D01*
X575598Y523488D02*
X581892Y517193D01*
X575598Y523488D02*
Y673473D01*
X581949Y679823D01*
X216700Y621029D02*
X216700D01*
X210406Y627323D02*
X216700Y621029D01*
X210406Y627323D02*
Y777264D01*
X216800Y783658D01*
X393103Y673297D02*
X399397Y667003D01*
X393103Y673297D02*
Y823282D01*
X399453Y829632D01*
X27849Y784276D02*
X34143Y777982D01*
X27849Y784276D02*
Y934261D01*
X34199Y940611D01*
X758239Y658120D02*
X764532Y651826D01*
X759864Y813028D02*
X761292Y814455D01*
X764589D01*
X575654Y706118D02*
X581949Y699823D01*
X575654Y706118D02*
Y856102D01*
X582005Y862452D01*
X210506Y809952D02*
X216800Y803658D01*
X210506Y809952D02*
Y959992D01*
X216800Y966287D01*
X392500Y856585D02*
X399453Y849632D01*
X392500Y856585D02*
Y1005252D01*
X399510Y1012261D01*
X758295Y840749D02*
X764589Y834455D01*
X758295Y990530D02*
X764849Y997084D01*
X575710Y888746D02*
X582005Y882452D01*
X575710Y888746D02*
Y1038731D01*
X582061Y1045082D01*
X941267Y393355D02*
X947658Y386964D01*
X941267Y393355D02*
Y543314D01*
X947561Y549608D01*
X941267Y725887D02*
X947618Y732238D01*
X941258Y758597D02*
X947618Y752238D01*
X941258Y758597D02*
Y908573D01*
X947552Y914867D01*
X754008Y807172D02*
X759864Y813028D01*
D14*
X1222500Y500000D02*
D03*
D29*
X963752Y934867D02*
X977552D01*
X963752D02*
X977552D01*
X963752D02*
X977552D01*
Y924867D02*
Y934867D01*
Y924867D02*
Y934867D01*
Y924867D02*
Y934867D01*
Y924867D02*
Y934867D01*
Y924867D02*
Y934867D01*
X963752D02*
X977552D01*
X963752D02*
X977552D01*
Y924867D02*
Y934867D01*
Y924867D02*
Y934867D01*
X963752D02*
X977552D01*
X963752D02*
X977552D01*
X963752D02*
X977552D01*
X947552Y924867D02*
X963752D01*
X947552D02*
X963752D01*
X947552D02*
X963752D01*
X977552Y924867D02*
Y924867D01*
Y924867D02*
Y924867D01*
Y924867D02*
Y924867D01*
Y924867D02*
Y924867D01*
Y934867D01*
Y924867D02*
Y924867D01*
Y924867D02*
Y924867D01*
Y924867D02*
Y924867D01*
Y924867D02*
Y924867D01*
X963752Y914867D02*
X968752D01*
X963752D02*
X968752D01*
X963752D02*
X968752D01*
X963752D02*
X968752D01*
X963752D02*
X968752D01*
X963752D02*
X968752D01*
X963752D02*
X968752D01*
X963752D02*
X968752D01*
X794849Y1007084D02*
Y1017084D01*
X781049D02*
X794849D01*
X781049D02*
X794849D01*
X781049D02*
X794849D01*
X781049D02*
X794849D01*
Y988084D02*
Y1007084D01*
Y988084D02*
Y1007084D01*
Y988084D02*
Y1007084D01*
Y988084D02*
Y1007084D01*
Y988084D02*
Y1007084D01*
Y988084D02*
Y1007084D01*
Y988084D02*
Y1007084D01*
Y988084D02*
Y1007084D01*
Y1017084D01*
Y1007084D02*
Y1017084D01*
Y1007084D02*
Y1017084D01*
Y1007084D02*
Y1017084D01*
Y1007084D02*
Y1017084D01*
X781049D02*
X794849D01*
X781049D02*
X794849D01*
X781049D02*
X794849D01*
X781049D02*
X794849D01*
Y1007084D02*
Y1017084D01*
Y1007084D02*
Y1017084D01*
X781049Y997084D02*
X786049D01*
X781049D02*
X786049D01*
X947552Y914867D02*
X963752D01*
X947552Y924867D02*
X963752D01*
X947552D02*
X963752D01*
X947552D02*
X963752D01*
X947552D02*
X963752D01*
X947552D02*
X963752D01*
X947552Y914867D02*
X963752D01*
X947552D02*
X963752D01*
X947552D02*
X963752D01*
X947552D02*
X963752D01*
X947552D02*
X963752D01*
X947552D02*
X963752D01*
X947552D02*
X963752D01*
X780789Y834455D02*
X794589D01*
Y824455D02*
Y834455D01*
X780789D02*
X794589D01*
X780789D02*
X794589D01*
X780789D02*
X794589D01*
X780789D02*
X794589D01*
X963817Y752238D02*
X977618D01*
X963817D02*
X977618D01*
X963817D02*
X977618D01*
Y742238D02*
Y752238D01*
Y742238D02*
Y752238D01*
Y742238D02*
Y752238D01*
X963817D02*
X977618D01*
X963817D02*
X977618D01*
X963817D02*
X977618D01*
Y742238D02*
Y752238D01*
Y742238D02*
Y752238D01*
Y742238D02*
Y742238D01*
Y742238D02*
Y742238D01*
Y752238D01*
Y742238D02*
Y752238D01*
Y742238D02*
Y752238D01*
X963817D02*
X963817D01*
X963817D02*
X963817D01*
X963817D02*
X963817D01*
X963817D02*
X963817D01*
X963817D02*
X963817D01*
X963817D02*
X963817D01*
X963817D02*
X963817D01*
X977618D01*
X963817D02*
X977618D01*
X963817D02*
X963817D01*
X947618Y742238D02*
X963817D01*
X977618Y742238D02*
Y742238D01*
Y742238D02*
Y742238D01*
Y742238D02*
Y742238D01*
Y742238D02*
Y742238D01*
Y742238D02*
Y742238D01*
Y742238D02*
Y742238D01*
X963817Y732238D02*
X968818D01*
X947618D02*
X963817D01*
X947618D02*
X963817D01*
X947618D02*
X963817D01*
X968818D01*
X963817D02*
X968818D01*
X963817D02*
X968818D01*
X963817D02*
X968818D01*
X963817D02*
X968818D01*
X963817D02*
X968818D01*
X963817D02*
X968818D01*
X794589Y805455D02*
Y824455D01*
Y805455D02*
Y824455D01*
Y805455D02*
Y824455D01*
Y805455D02*
Y824455D01*
Y805455D02*
Y824455D01*
Y805455D02*
Y824455D01*
Y805455D02*
Y824455D01*
Y805455D02*
Y824455D01*
Y834455D01*
Y824455D02*
Y834455D01*
Y824455D02*
Y834455D01*
X780789D02*
X794589D01*
X780789D02*
X794589D01*
X780789D02*
X794589D01*
Y824455D02*
Y834455D01*
Y824455D02*
Y834455D01*
Y824455D02*
Y834455D01*
Y824455D02*
Y834455D01*
X947618Y742238D02*
X963817D01*
X947618D02*
X963817D01*
X947618D02*
X963817D01*
X947618D02*
X963817D01*
X947618D02*
X963817D01*
X947618D02*
X963817D01*
X947618Y732238D02*
X963817D01*
X947618D02*
X963817D01*
X947618D02*
X963817D01*
X947618D02*
X963817D01*
X947618D02*
X963817D01*
X947618Y742238D02*
X963817D01*
X794532Y641826D02*
Y651826D01*
X780733D02*
X794532D01*
Y641826D02*
Y651826D01*
X780733D02*
X794532D01*
Y641826D02*
Y651826D01*
X780733D02*
X794532D01*
X780733D02*
X794532D01*
X780733D02*
X794532D01*
Y641826D02*
Y651826D01*
Y641826D02*
Y651826D01*
Y641826D02*
Y651826D01*
Y641826D02*
Y651826D01*
X780733D02*
X794532D01*
X780733D02*
X794532D01*
X780733D02*
X794532D01*
Y641826D02*
Y651826D01*
X764849Y1017084D02*
X781049D01*
X764849D02*
X781049D01*
X764849D02*
X781049D01*
X612061Y1055081D02*
Y1055082D01*
X764849Y1017084D02*
X781049D01*
X764849Y1007084D02*
X781049D01*
X764849D02*
X781049D01*
X764849Y1017084D02*
X781049D01*
X764849D02*
X781049D01*
X764849D02*
X781049D01*
X764849D02*
X781049D01*
X612061Y1055082D02*
Y1065082D01*
Y1055082D02*
Y1065082D01*
Y1055082D02*
Y1065082D01*
Y1055082D02*
Y1065082D01*
Y1055082D02*
Y1065082D01*
Y1055082D02*
Y1065082D01*
Y1055082D02*
Y1065082D01*
Y1055081D02*
Y1055082D01*
Y1055081D02*
Y1055082D01*
Y1055081D02*
Y1055082D01*
Y1055081D02*
Y1055082D01*
Y1055081D02*
Y1055082D01*
Y1055081D02*
Y1055082D01*
Y1065082D01*
Y1055081D02*
Y1055082D01*
X764849Y997084D02*
X781049D01*
X764849D02*
X781049D01*
X764849Y1007084D02*
X781049D01*
X764849Y997084D02*
X781049D01*
X786049D01*
X781049D02*
X786049D01*
X781049D02*
X786049D01*
X781049D02*
X786049D01*
X764849D02*
X781049D01*
X764849D02*
X781049D01*
X764849D02*
X781049D01*
X786049D01*
X781049D02*
X786049D01*
X764849Y1007084D02*
X781049D01*
X764849D02*
X781049D01*
X764849D02*
X781049D01*
X764849D02*
X781049D01*
X764849D02*
X781049D01*
X764849Y997084D02*
X781049D01*
X764849D02*
X781049D01*
X612005Y872452D02*
Y882452D01*
Y872452D02*
Y882452D01*
Y872452D02*
Y882452D01*
Y872452D02*
Y882452D01*
X598261Y1065082D02*
X612061D01*
X598261D02*
X612061D01*
X598261D02*
X612061D01*
X598261D02*
X612061D01*
X598261D02*
X612061D01*
X598261D02*
X612061D01*
X598261D02*
X612061D01*
X598261D02*
X612061D01*
X582061Y1055082D02*
X598261D01*
X582061D02*
X598261D01*
X582061D02*
X598261D01*
X582061D02*
X598261D01*
X582061D02*
X598261D01*
X582061D02*
X598261D01*
X582061Y1065082D02*
X598261D01*
X582061D02*
X598261D01*
X582061D02*
X598261D01*
X582061D02*
X598261D01*
X582061D02*
X598261D01*
X582061D02*
X598261D01*
X582061D02*
X598261D01*
X582061D02*
X598261D01*
X582061Y1055082D02*
X598261D01*
X582061D02*
X598261D01*
X598204Y882452D02*
X612005D01*
X598204D02*
X612005D01*
Y872452D02*
Y882452D01*
X598204D02*
X612005D01*
Y872452D02*
Y882452D01*
X598204D02*
X612005D01*
X598204D02*
X612005D01*
X598204D02*
X612005D01*
X582061Y1045082D02*
X598261D01*
X582061D02*
X598261D01*
X582061D02*
X598261D01*
X582061D02*
X598261D01*
X582061D02*
X598261D01*
X582061D02*
X598261D01*
X582061D02*
X598261D01*
X603261D01*
X598261D02*
X603261D01*
X598261D02*
X603261D01*
X598261D02*
X603261D01*
X598261D02*
X603261D01*
X598261D02*
X603261D01*
X582061D02*
X598261D01*
X603261D01*
X598261D02*
X603261D01*
X764589Y834455D02*
X780789D01*
X764589D02*
X780789D01*
X764589Y824455D02*
X780789D01*
X764589D02*
X780789D01*
X764589Y834455D02*
X780789D01*
X764589D02*
X780789D01*
X764589D02*
X780789D01*
X764589D02*
X780789D01*
X764589D02*
X780789D01*
X764589Y824455D02*
X780789D01*
X764589D02*
X780789D01*
X764589D02*
X780789D01*
X764589D02*
X780789D01*
X764589D02*
X780789D01*
X764589D02*
X780789D01*
X612005Y872451D02*
Y872452D01*
Y872451D02*
Y872452D01*
Y872451D02*
Y872452D01*
Y872451D02*
Y872452D01*
Y882452D01*
Y872452D02*
Y882452D01*
Y872451D02*
Y872452D01*
Y872451D02*
Y872452D01*
X764589Y834455D02*
X780789D01*
X612005Y872451D02*
Y872452D01*
Y872451D02*
Y872452D01*
X780789Y814455D02*
X785789D01*
X780789D02*
X785789D01*
X780789D02*
X785789D01*
X780789D02*
X785789D01*
X780789D02*
X785789D01*
X780789D02*
X785789D01*
X780789D02*
X785789D01*
X780789D02*
X785789D01*
X764532Y641826D02*
X780733D01*
X764532D02*
X780733D01*
X764532D02*
X780733D01*
X764532Y651826D02*
X780733D01*
X764532D02*
X780733D01*
X764532D02*
X780733D01*
X764532D02*
X780733D01*
X764532D02*
X780733D01*
X764532D02*
X780733D01*
X764532D02*
X780733D01*
X764532D02*
X780733D01*
X598204Y882452D02*
X612005D01*
X598204D02*
X612005D01*
X598149Y699823D02*
X611949D01*
X598149D02*
X611949D01*
X598149D02*
X611949D01*
Y689823D02*
Y699823D01*
X598149D02*
X611949D01*
X598149D02*
X611949D01*
X598149D02*
X611949D01*
X598149D02*
X611949D01*
X598204Y862452D02*
X603204D01*
X598204D02*
X603204D01*
X598204D02*
X603204D01*
X598204D02*
X603204D01*
X582005D02*
X598204D01*
X603204D01*
X598204D02*
X603204D01*
X598204D02*
X603204D01*
X598204D02*
X603204D01*
X598149Y699823D02*
X611949D01*
Y670823D02*
Y689823D01*
Y670823D02*
Y689823D01*
Y699823D01*
Y670823D02*
Y689823D01*
Y699823D01*
Y689823D02*
Y699823D01*
Y689823D02*
Y699823D01*
Y670823D02*
Y689823D01*
Y670823D02*
Y689823D01*
Y670823D02*
Y689823D01*
Y670823D02*
Y689823D01*
Y670823D02*
Y689823D01*
Y699823D01*
Y689823D02*
Y699823D01*
Y689823D02*
Y699823D01*
X598149Y679823D02*
X603149D01*
X598149D02*
X603149D01*
X598149D02*
X603149D01*
X598149D02*
X603149D01*
X598149D02*
X603149D01*
X598149D02*
X603149D01*
X598149D02*
X603149D01*
X598149D02*
X603149D01*
X977561Y559608D02*
Y569609D01*
X963761D02*
X977561D01*
Y559608D02*
Y569609D01*
Y559608D02*
Y559608D01*
Y569609D01*
X963761D02*
X977561D01*
X963761D02*
X977561D01*
X963761D02*
X977561D01*
X963761D02*
X977561D01*
Y559608D02*
Y559608D01*
Y559608D02*
Y559608D01*
Y559608D02*
Y559608D01*
Y559608D02*
Y559608D01*
Y559608D02*
Y559608D01*
Y559608D02*
Y559608D01*
Y569609D01*
Y559608D02*
Y569609D01*
Y559608D02*
Y559608D01*
Y569609D01*
Y559608D02*
Y569609D01*
Y559608D02*
Y569609D01*
X963761Y549608D02*
X968761D01*
X963761D02*
X968761D01*
X963761D02*
X968761D01*
X963761D02*
X968761D01*
X963761D02*
X968761D01*
X977658Y376964D02*
Y386964D01*
Y376964D02*
Y386964D01*
Y376964D02*
Y386964D01*
Y357964D02*
Y376964D01*
Y357964D02*
Y376964D01*
Y357964D02*
Y376964D01*
Y386964D01*
Y376964D02*
Y386964D01*
Y376964D02*
Y386964D01*
Y376964D02*
Y386964D01*
X963858D02*
X977658D01*
X963858D02*
X977658D01*
X963858D02*
X977658D01*
X963858D02*
X977658D01*
X963858D02*
X977658D01*
X963858D02*
X977658D01*
Y357964D02*
Y376964D01*
Y357964D02*
Y376964D01*
Y357964D02*
Y376964D01*
X963858Y386964D02*
X977658D01*
X963858D02*
X977658D01*
Y376964D02*
Y386964D01*
X963761Y569609D02*
X977561D01*
X963761D02*
X977561D01*
X963761D02*
X977561D01*
X947561D02*
X963761D01*
X947561D02*
X963761D01*
X947561Y559608D02*
X963761D01*
X947561Y569609D02*
X963761D01*
X947561Y559608D02*
X963761D01*
X947561D02*
X963761D01*
X947561D02*
X963761D01*
X947561D02*
X963761D01*
X947561D02*
X963761D01*
X947561D02*
X963761D01*
X947561D02*
X963761D01*
X947561Y569609D02*
X947561D01*
X947561D02*
X947561D01*
X947561D02*
X947561D01*
X963761D01*
X947561D02*
X963761D01*
X947561D02*
X947561D01*
X947561D02*
X947561D01*
X947561D02*
X947561D01*
X947561D02*
X947561D01*
X947561D02*
X947561D01*
X963761D01*
X947561D02*
X963761D01*
X947561D02*
X963761D01*
X947561Y549608D02*
X963761D01*
X947561D02*
X963761D01*
X947561D02*
X963761D01*
X968761D01*
X963761D02*
X968761D01*
X963761D02*
X968761D01*
X947658Y386964D02*
X963858D01*
X947658D02*
X963858D01*
X947658D02*
X963858D01*
X947658D02*
X963858D01*
X947658D02*
X963858D01*
X947658Y376964D02*
X963858D01*
X947658D02*
X963858D01*
X947658Y386964D02*
X963858D01*
X947658D02*
X963858D01*
X947658Y376964D02*
X963858D01*
X947561Y549608D02*
X963761D01*
X947561D02*
X963761D01*
X947561D02*
X963761D01*
X947561D02*
X963761D01*
X947658Y376964D02*
X963858D01*
X947658D02*
X963858D01*
X947658Y386964D02*
X963858D01*
X947561Y549608D02*
X963761D01*
X1175130Y191916D02*
X1186323Y183844D01*
X1175130Y191916D02*
X1175130Y191916D01*
X1186323Y183844D01*
X1175130Y191916D02*
X1175130Y191916D01*
X1175130Y191917D02*
X1175130Y191916D01*
X1161991Y201393D02*
X1175130Y191917D01*
X1175130Y191916D01*
X1161991Y201393D02*
X1175130Y191917D01*
X1175130Y191916D02*
X1186323Y183844D01*
X1175130Y191916D02*
X1175130Y191916D01*
X1186323Y183844D01*
X1175130Y191916D02*
X1175130Y191916D01*
X1175130D02*
X1186323Y183844D01*
X1175130Y191916D02*
X1186323Y183844D01*
X1175130Y191916D02*
X1186323Y183844D01*
X1175130Y191916D02*
X1186323Y183844D01*
X1161991Y201393D02*
X1175130Y191917D01*
X1161991Y201393D02*
X1175130Y191917D01*
X1161991Y201393D02*
X1175130Y191917D01*
X1175130Y191916D01*
X1161991Y201393D02*
X1175130Y191917D01*
X1175130Y191916D01*
X1161991Y201393D02*
X1175130Y191917D01*
X1161991Y201393D02*
X1175130Y191917D01*
X1156141Y193282D02*
X1169280Y183806D01*
X1156141Y193282D02*
X1169280Y183806D01*
X1156141Y193282D02*
X1169280Y183806D01*
X1156141Y193282D02*
X1169280Y183806D01*
X1156141Y193282D02*
X1156141Y193282D01*
X1169280Y183806D01*
X1156141Y193282D02*
X1156141Y193282D01*
X1169280Y183806D01*
X1156141Y193282D02*
X1156141Y193282D01*
X1169280Y183806D01*
X1180473Y175733D02*
X1186323Y183844D01*
X1180473Y175733D02*
X1180473Y175733D01*
X1186323Y183844D01*
X1180473Y175733D02*
X1180473Y175733D01*
X1180473Y175733D02*
X1180473Y175733D01*
X1169359Y160323D02*
X1180473Y175733D01*
X1180473Y175733D01*
X1169359Y160323D02*
X1180473Y175733D01*
X1180473Y175733D01*
X1169359Y160323D02*
X1180473Y175733D01*
X1169359Y160323D02*
X1180473Y175733D01*
X1169359Y160323D02*
X1180473Y175733D01*
X1169359Y160323D02*
X1180473Y175733D01*
X1180473Y175733D01*
X1169359Y160323D02*
X1180473Y175733D01*
X1169359Y160323D02*
X1180473Y175733D01*
X1156141Y193282D02*
X1169280Y183806D01*
X1156141Y193282D02*
X1156141Y193282D01*
X1163431Y175695D02*
X1167487Y172770D01*
X1163431Y175695D02*
X1163431Y175695D01*
X1167487Y172770D01*
X1163431Y175695D02*
X1163431Y175695D01*
X1150292Y185171D02*
X1163431Y175695D01*
X1150292Y185171D02*
X1163431Y175695D01*
X1150292Y185171D02*
X1163431Y175695D01*
X1150292Y185171D02*
X1163431Y175695D01*
X1163431Y175695D02*
X1167487Y172770D01*
X1163431Y175695D02*
X1167487Y172770D01*
X1163431Y175695D02*
X1167487Y172770D01*
X1163431Y175695D02*
X1167487Y172770D01*
X1163431Y175695D02*
X1167487Y172770D01*
X1163431Y175695D02*
X1163431Y175695D01*
X1167487Y172770D01*
X1163431Y175695D02*
X1163431Y175695D01*
X963858Y366964D02*
X968858D01*
X963858D02*
X968858D01*
X977658Y357964D02*
Y376964D01*
Y357964D02*
Y376964D01*
X963858Y366964D02*
X968858D01*
X963858D02*
X968858D01*
X963858D02*
X968858D01*
X963858D02*
X968858D01*
X963858D02*
X968858D01*
X963858D02*
X968858D01*
X947658D02*
X963858D01*
X947658Y376964D02*
X963858D01*
X947658D02*
X963858D01*
X947658D02*
X963858D01*
X947658Y366964D02*
X963858D01*
X947658D02*
X963858D01*
X947658D02*
X963858D01*
X947658D02*
X963858D01*
X947658D02*
X963858D01*
X947658D02*
X963858D01*
X947658D02*
X963858D01*
X928229Y192371D02*
X944027Y188782D01*
X928229Y192371D02*
X928229D01*
X944027Y188782D01*
X928229Y192371D02*
X928229D01*
X944027Y188782D01*
X928229Y192371D02*
X928229D01*
X1150292Y185171D02*
X1163431Y175695D01*
X1150292Y185171D02*
X1150292Y185171D01*
X1163431Y175695D01*
X1150292Y185171D02*
X1150292Y185171D01*
X1163431Y175695D01*
X1150292Y185171D02*
X1150292Y185171D01*
X1163431Y175695D01*
X1150292Y185171D02*
X1150292Y185171D01*
X928229Y192371D02*
X944027Y188782D01*
X928229Y192371D02*
X944027Y188782D01*
X928229Y192371D02*
X944027Y188782D01*
X928229Y192371D02*
X944027Y188782D01*
X928229Y192371D02*
X928229D01*
X944027Y188782D01*
X780733Y631826D02*
X785733D01*
X764532D02*
X780733D01*
X785733D01*
X780733D02*
X785733D01*
X780733D02*
X785733D01*
X780733D02*
X785733D01*
X780733D02*
X785733D01*
X780733D02*
X785733D01*
X780733D02*
X785733D01*
X764532Y641826D02*
X780733D01*
X764532D02*
X780733D01*
X764532D02*
X780733D01*
X764532D02*
X780733D01*
X764532Y631826D02*
X780733D01*
X764532D02*
X780733D01*
X764532D02*
X780733D01*
X764532D02*
X780733D01*
X764532D02*
X780733D01*
X764532D02*
X780733D01*
X764532D02*
X780733D01*
X794532Y622826D02*
Y641826D01*
Y622826D02*
Y641826D01*
Y622826D02*
Y641826D01*
Y622826D02*
Y641826D01*
Y622826D02*
Y641826D01*
Y622826D02*
Y641826D01*
Y622826D02*
Y641826D01*
Y622826D02*
Y641826D01*
X794477Y459197D02*
Y469197D01*
X780677D02*
X794477D01*
Y459197D02*
Y469197D01*
Y459197D02*
Y469197D01*
Y459197D02*
Y469197D01*
X780677D02*
X794477D01*
X780677D02*
X794477D01*
Y459197D02*
Y469197D01*
Y459197D02*
Y469197D01*
Y459197D02*
Y469197D01*
X780677D02*
X794477D01*
X780677D02*
X794477D01*
Y459197D02*
Y469197D01*
X780677D02*
X794477D01*
X780677D02*
X794477D01*
X780677D02*
X794477D01*
X764532Y641826D02*
X780733D01*
X611892Y507193D02*
Y517193D01*
Y507193D02*
Y517193D01*
Y507193D02*
Y517193D01*
Y507193D02*
Y517193D01*
Y507193D02*
Y517193D01*
Y507193D02*
Y517193D01*
X598092D02*
X611892D01*
X598092D02*
X611892D01*
X598092D02*
X611892D01*
X598092D02*
X611892D01*
X598092D02*
X611892D01*
X598092D02*
X611892D01*
Y507193D02*
Y517193D01*
Y507193D02*
Y517193D01*
X598092Y497193D02*
X603093D01*
X598092Y517193D02*
X611892D01*
X598092D02*
X611892D01*
X598092Y497193D02*
X603093D01*
X598092D02*
X603093D01*
X598092D02*
X603093D01*
X598092D02*
X603093D01*
X598092D02*
X603093D01*
X598092D02*
X603093D01*
X764477Y469197D02*
X764477D01*
X764477D02*
X764477D01*
X764477D02*
X764477D01*
X764477D02*
X764477D01*
X780677D01*
X764477D02*
X764477D01*
X764477D02*
X764477D01*
X764477D02*
X764477D01*
X764477D02*
X764477D01*
X780677D01*
X764477D02*
X780677D01*
X764477D02*
X780677D01*
X764477D02*
X780677D01*
X764477D02*
X780677D01*
X764477D02*
X780677D01*
X764477D02*
X780677D01*
X611892Y488194D02*
Y507193D01*
Y488194D02*
Y507193D01*
Y488194D02*
Y507193D01*
Y488194D02*
Y507193D01*
Y488194D02*
Y507193D01*
Y488194D02*
Y507193D01*
Y488194D02*
Y507193D01*
Y488194D02*
Y507193D01*
X598092Y497193D02*
X603093D01*
X794477Y440197D02*
Y459197D01*
Y440197D02*
Y459197D01*
Y440197D02*
Y459197D01*
Y440197D02*
Y459197D01*
Y440197D02*
Y459197D01*
Y440197D02*
Y459197D01*
Y440197D02*
Y459197D01*
X780677Y449197D02*
X785676D01*
X780677D02*
X785676D01*
X780677D02*
X785676D01*
X780677D02*
X785676D01*
X780677D02*
X785676D01*
X764477D02*
X764477D01*
X764477Y459197D02*
X780677D01*
X764477Y449197D02*
X764477D01*
X764477D02*
X764477D01*
X764477D02*
X764477D01*
X764477D02*
X764477D01*
X764477D02*
X764477D01*
X780677D01*
X785676D01*
X764477D02*
X780677D01*
X785676D01*
X780677D02*
X785676D01*
X764477D02*
X780677D01*
X764477D02*
X780677D01*
X764477D02*
X780677D01*
X764477D02*
X780677D01*
X764477D02*
X780677D01*
X764477D02*
X780677D01*
X926014Y182619D02*
X941811Y179030D01*
X926014Y182619D02*
X941811Y179030D01*
X926014Y182619D02*
X941811Y179030D01*
X926014Y182619D02*
X941811Y179030D01*
X926013Y182619D02*
X926014D01*
X941811Y179030D01*
X926013Y182619D02*
X926014D01*
X941811Y179030D01*
X926013Y182619D02*
X926014D01*
X941811Y179030D01*
X926014Y182619D02*
X941811Y179030D01*
X926013Y182619D02*
X926014D01*
X939596Y169278D02*
X939596D01*
X923798Y172867D02*
X939596Y169278D01*
X939596D01*
X923798Y172867D02*
X939596Y169278D01*
X939596D01*
X923798Y172867D02*
X939596Y169278D01*
X923798Y172867D02*
X939596Y169278D01*
X939596D01*
X923798Y172867D02*
X939596Y169278D01*
X794477Y440197D02*
Y459197D01*
X923798Y172867D02*
X939596Y169278D01*
X923798Y172867D02*
X939596Y169278D01*
X923798Y172867D02*
X939596Y169278D01*
X764477Y459197D02*
X780677D01*
X764477D02*
X780677D01*
X764477D02*
X780677D01*
X764477D02*
X780677D01*
X764477D02*
X780677D01*
X764477D02*
X780677D01*
X764477D02*
X780677D01*
X764477Y449197D02*
X764477D01*
X764477D02*
X764477D01*
X723500Y240000D02*
X739700D01*
X723500D02*
X739700D01*
X739700D01*
X723500D02*
X739700D01*
X723500D02*
X739700D01*
X739700D01*
X739700D02*
X739700D01*
X739700D02*
X739700D01*
X723500Y230000D02*
X739700D01*
X723500D02*
X739700D01*
X753500Y230001D02*
Y230001D01*
Y230001D02*
X753500Y211000D01*
X753500Y230001D02*
Y230001D01*
Y230001D02*
X753500Y211000D01*
X753500Y230001D02*
Y230001D01*
Y230001D02*
X753500Y211000D01*
X753500Y230001D02*
X753500Y211000D01*
X753500Y230001D02*
Y230001D01*
Y230001D02*
X753500Y211000D01*
X753500Y230001D02*
X753500Y211000D01*
X753500Y230001D02*
X753500Y211000D01*
X753500Y230001D02*
X753500Y211000D01*
X723500Y230000D02*
X739700D01*
X723500D02*
X739700D01*
X723500Y220000D02*
X723500D01*
X723500D02*
X723500D01*
X723500D02*
X723500D01*
X723500D02*
X723500D01*
X739700D02*
X744700D01*
X739700D02*
X744700D01*
X739700D02*
X744700D01*
X739700D02*
X744700D01*
X723500D02*
X739700D01*
X723500D02*
X739700D01*
X723500D02*
X739700D01*
X723500D02*
X739700D01*
X415710Y1032261D02*
X429510D01*
X415710D02*
X429510D01*
Y1022261D02*
Y1032261D01*
Y1022261D02*
Y1032261D01*
X415710D02*
X429510D01*
X415710D02*
X429510D01*
X415710D02*
X429510D01*
X415710D02*
X429510D01*
Y1003261D02*
Y1022261D01*
Y1003261D02*
Y1022261D01*
Y1003261D02*
Y1022261D01*
X415710Y1032261D02*
X429510D01*
Y1003261D02*
Y1022261D01*
Y1032261D01*
Y1022261D02*
Y1032261D01*
Y1022261D02*
Y1032261D01*
Y1022261D02*
Y1032261D01*
Y1022261D02*
Y1032261D01*
Y1022261D02*
Y1032261D01*
X415710Y1012261D02*
X420710D01*
X415710D02*
X420710D01*
X415710D02*
X420710D01*
X415710D02*
X420710D01*
X415710D02*
X420710D01*
X415710D02*
X420710D01*
X415710D02*
X420710D01*
X582005Y872452D02*
X598204D01*
X582005D02*
X598204D01*
X582005D02*
X598204D01*
X582005Y882452D02*
X598204D01*
X582005D02*
X598204D01*
X582005D02*
X598204D01*
X582005D02*
X598204D01*
X582005Y862452D02*
X598204D01*
X582005D02*
X598204D01*
X582005Y872452D02*
X598204D01*
X582005D02*
X598204D01*
X582005D02*
X598204D01*
X582005D02*
X598204D01*
X582005D02*
X598204D01*
X429510Y1003261D02*
Y1022261D01*
Y1003261D02*
Y1022261D01*
Y1003261D02*
Y1022261D01*
Y1003261D02*
Y1022261D01*
X582005Y882452D02*
X598204D01*
X582005D02*
X598204D01*
X582005D02*
X598204D01*
X582005D02*
X598204D01*
X415710Y1032261D02*
X429510D01*
X399510Y1022261D02*
X415710D01*
X399510D02*
X415710D01*
X399510Y1012261D02*
X415710D01*
X399510Y1022261D02*
X415710D01*
X399510Y1032261D02*
X415710D01*
X399510Y1022261D02*
X415710D01*
X399510Y1012261D02*
X415710D01*
X399510D02*
X415710D01*
X399510D02*
X415710D01*
X399510D02*
X415710D01*
X399510D02*
X415710D01*
X399510D02*
X415710D01*
X399510Y1032261D02*
X415710D01*
X399510D02*
X415710D01*
X399510D02*
X415710D01*
X399510D02*
X415710D01*
X399510D02*
X415710D01*
X399510D02*
X415710D01*
X399510Y1022261D02*
X415710D01*
X399510D02*
X415710D01*
X399510Y1032261D02*
X415710D01*
X399510Y1022261D02*
X415710D01*
X399510D02*
X415710D01*
X399510Y1012261D02*
X415710D01*
X420710D01*
X246800Y976287D02*
Y986287D01*
Y976287D02*
Y986287D01*
Y976287D02*
Y986287D01*
Y976287D02*
Y986287D01*
Y976287D02*
Y986287D01*
X233000D02*
X246800D01*
X233000D02*
X246800D01*
X233000D02*
X246800D01*
X233000D02*
X246800D01*
X233000D02*
X246800D01*
X233000D02*
X246800D01*
Y957287D02*
Y976287D01*
Y957287D02*
Y976287D01*
Y986287D01*
Y957287D02*
Y976287D01*
Y957287D02*
Y976287D01*
Y957287D02*
Y976287D01*
Y986287D01*
X233000D02*
X246800D01*
X233000D02*
X246800D01*
Y976287D02*
Y986287D01*
X582005Y862452D02*
X598204D01*
X582005D02*
X598204D01*
X582005D02*
X598204D01*
X582005D02*
X598204D01*
X582005D02*
X598204D01*
X429454Y839632D02*
Y849632D01*
Y839632D02*
Y849632D01*
Y839632D02*
Y849632D01*
Y839631D02*
Y839632D01*
Y849632D01*
Y839631D02*
Y839632D01*
Y839631D02*
Y839632D01*
Y849632D01*
Y839632D02*
Y849632D01*
Y839632D02*
Y849632D01*
X415653D02*
X429454D01*
X415653D02*
X429454D01*
X415653D02*
X429454D01*
X415653D02*
X429454D01*
X415653D02*
X429454D01*
Y839631D02*
Y839632D01*
Y839631D02*
Y839632D01*
Y839631D02*
Y839632D01*
Y839631D02*
Y839632D01*
X415653Y849632D02*
X429454D01*
Y839632D02*
Y849632D01*
X415653D02*
X429454D01*
X415653D02*
X429454D01*
Y839631D02*
Y839632D01*
X581949Y699823D02*
X598149D01*
X581949D02*
X598149D01*
X581949D02*
X598149D01*
X581949D02*
X598149D01*
X581949Y689823D02*
X598149D01*
X581949D02*
X598149D01*
X581949D02*
X598149D01*
X581949Y699823D02*
X598149D01*
X581949D02*
X598149D01*
X581949D02*
X598149D01*
X581949Y689823D02*
X598149D01*
X581949Y699823D02*
X598149D01*
X415653Y829632D02*
X420654D01*
X415653D02*
X420654D01*
X415653D02*
X420654D01*
X415653D02*
X420654D01*
X415653D02*
X420654D01*
X415653D02*
X420654D01*
X399453Y839632D02*
X415653D01*
X399453Y829632D02*
X415653D01*
X399453Y849632D02*
X415653D01*
X399453Y839632D02*
X415653D01*
X399453D02*
X415653D01*
X399453Y829632D02*
X415653D01*
X420654D01*
X415653D02*
X420654D01*
X399453D02*
X415653D01*
X399453D02*
X415653D01*
X399453D02*
X415653D01*
X399453D02*
X415653D01*
X399453Y849632D02*
X415653D01*
X399453D02*
X415653D01*
X399453D02*
X415653D01*
X399453D02*
X415653D01*
X399453D02*
X415653D01*
X399453D02*
X415653D01*
X399453D02*
X415653D01*
X399453Y839632D02*
X415653D01*
X399453D02*
X415653D01*
X399453D02*
X415653D01*
X399453D02*
X415653D01*
X399453D02*
X415653D01*
X399453Y829632D02*
X415653D01*
X399453D02*
X415653D01*
X246800Y793658D02*
Y793658D01*
Y793658D02*
Y793658D01*
Y793658D02*
Y793658D01*
Y793658D02*
Y793658D01*
Y793658D02*
Y793658D01*
Y793658D02*
Y793658D01*
Y803658D01*
Y793658D02*
Y803658D01*
Y793658D02*
Y803658D01*
X233000D02*
X246800D01*
X233000D02*
X246800D01*
X233000D02*
X246800D01*
Y793658D02*
Y803658D01*
Y793658D02*
Y803658D01*
Y793658D02*
Y793658D01*
Y793658D02*
Y793658D01*
Y803658D01*
Y793658D02*
Y803658D01*
X216800Y976287D02*
X233000D01*
X216800D02*
X233000D01*
X216800D02*
X233000D01*
X216800Y966287D02*
X233000D01*
X216800Y986287D02*
X233000D01*
X216800D02*
X233000D01*
X216800Y976287D02*
X233000D01*
X216800D02*
X233000D01*
X216800Y966287D02*
X233000D01*
X238000D01*
X216800D02*
X233000D01*
X216800D02*
X233000D01*
X216800D02*
X233000D01*
X216800D02*
X233000D01*
X216800D02*
X233000D01*
X216800D02*
X233000D01*
X216800Y986287D02*
X233000D01*
X216800D02*
X233000D01*
X216800D02*
X233000D01*
X216800D02*
X233000D01*
X216800D02*
X233000D01*
X216800Y976287D02*
X233000D01*
X216800Y986287D02*
X233000D01*
X216800Y976287D02*
X233000D01*
X216800D02*
X233000D01*
X246800Y957287D02*
Y976287D01*
X233000Y966287D02*
X238000D01*
X246800Y957287D02*
Y976287D01*
Y957287D02*
Y976287D01*
X233000Y966287D02*
X238000D01*
X233000D02*
X238000D01*
X233000Y803658D02*
X246800D01*
X233000D02*
X246800D01*
Y793658D02*
Y803658D01*
X233000D02*
X246800D01*
X233000Y966287D02*
X238000D01*
X233000D02*
X238000D01*
X233000D02*
X238000D01*
X233000D02*
X238000D01*
X64199Y950611D02*
Y960611D01*
Y950611D02*
Y960611D01*
Y950611D02*
Y960611D01*
Y950611D02*
Y960611D01*
Y950611D02*
Y960611D01*
X216800Y803658D02*
X233000D01*
X216800D02*
X233000D01*
X64199Y931612D02*
Y950611D01*
Y931612D02*
Y950611D01*
Y931612D02*
Y950611D01*
Y931612D02*
Y950611D01*
Y931612D02*
Y950611D01*
X50399Y960611D02*
X64199D01*
Y950611D02*
Y960611D01*
X50399D02*
X64199D01*
X50399D02*
X64199D01*
X50399D02*
X64199D01*
X50399D02*
X64199D01*
X50399D02*
X64199D01*
X50399D02*
X64199D01*
X50399D02*
X64199D01*
Y950611D02*
Y960611D01*
Y950611D02*
Y960611D01*
X34199Y950611D02*
X50399D01*
X34199D02*
X50399D01*
X34199D02*
X50399D01*
X34199D02*
X50399D01*
X34199Y960611D02*
X50399D01*
X34199D02*
X50399D01*
X34199D02*
X50399D01*
X34199D02*
X50399D01*
X34199D02*
X50399D01*
X34199D02*
X50399D01*
X34199D02*
X50399D01*
X34199Y950611D02*
X50399D01*
X34199D02*
X50399D01*
X34199D02*
X50399D01*
X34199Y960611D02*
X50399D01*
X34199Y950611D02*
X50399D01*
X64199Y931612D02*
Y950611D01*
Y931612D02*
Y950611D01*
Y931612D02*
Y950611D01*
X50399Y940611D02*
X55399D01*
X50399D02*
X55399D01*
X50399D02*
X55399D01*
X50399D02*
X55399D01*
X50399D02*
X55399D01*
X34199D02*
X50399D01*
X34199D02*
X50399D01*
X34199D02*
X50399D01*
X34199D02*
X50399D01*
X55399D01*
X50399D02*
X55399D01*
X50399D02*
X55399D01*
X34199D02*
X50399D01*
X34199D02*
X50399D01*
X34199D02*
X50399D01*
X34199D02*
X50399D01*
X216800Y803658D02*
X233000D01*
X216800D02*
X233000D01*
X216800D02*
X233000D01*
X246800D01*
X216800D02*
X233000D01*
X216800D02*
X233000D01*
X216800D02*
X233000D01*
X246800D01*
X216800Y783658D02*
X233000D01*
X216800D02*
X233000D01*
X216800Y793658D02*
X233000D01*
X216800D02*
X233000D01*
X216800D02*
X233000D01*
X216800D02*
X216800D01*
X216800D02*
X216800D01*
X216800D02*
X216800D01*
X216800D02*
X216800D01*
X216800D02*
X216800D01*
X233000D01*
X216800D02*
X233000D01*
X216800D02*
X233000D01*
X216800D02*
X233000D01*
X216800D02*
X216800D01*
X216800D02*
X216800D01*
X216800D02*
X216800D01*
X233000D01*
Y783658D02*
X238000D01*
X233000D02*
X238000D01*
X216800D02*
X233000D01*
X238000D01*
X216800D02*
X233000D01*
X216800D02*
X233000D01*
X216800D02*
X233000D01*
X216800D02*
X233000D01*
X238000D01*
X233000D02*
X238000D01*
X233000D02*
X238000D01*
X233000D02*
X238000D01*
X233000D02*
X238000D01*
X216800D02*
X233000D01*
X64143Y767982D02*
Y777982D01*
Y767982D02*
Y777982D01*
Y767982D02*
Y777982D01*
Y767982D02*
Y777982D01*
Y748983D02*
Y767982D01*
Y748983D02*
Y767982D01*
Y748983D02*
Y767982D01*
Y748983D02*
Y767982D01*
Y748983D02*
Y767982D01*
X50343Y777982D02*
X64143D01*
X50343D02*
X64143D01*
X50343D02*
X64143D01*
X50343D02*
X64143D01*
X50343D02*
X64143D01*
X50343D02*
X64143D01*
X50343D02*
X64143D01*
X50343D02*
X64143D01*
Y767982D02*
Y777982D01*
Y767982D02*
Y777982D01*
X34143Y767982D02*
X50343D01*
X34143D02*
X50343D01*
X34143D02*
X50343D01*
X34143D02*
X50343D01*
X34143Y777982D02*
X50343D01*
X34143D02*
X50343D01*
X34143D02*
X50343D01*
X34143D02*
X50343D01*
X34143D02*
X50343D01*
X34143D02*
X50343D01*
X34143D02*
X50343D01*
X34143Y767982D02*
X50343D01*
X34143D02*
X50343D01*
X34143D02*
X50343D01*
X34143Y777982D02*
X50343D01*
X34143Y767982D02*
X50343D01*
X64143D02*
Y777982D01*
Y748983D02*
Y767982D01*
Y748983D02*
Y767982D01*
Y748983D02*
Y767982D01*
Y777982D01*
X50343Y757982D02*
X55343D01*
X50343D02*
X55343D01*
X50343D02*
X55343D01*
X34143D02*
X50343D01*
X34143D02*
X50343D01*
X34143D02*
X50343D01*
X34143D02*
X50343D01*
X34143D02*
X50343D01*
X34143D02*
X50343D01*
X55343D01*
X50343D02*
X55343D01*
X50343D02*
X55343D01*
X50343D02*
X55343D01*
X50343D02*
X55343D01*
X34143D02*
X50343D01*
X34143D02*
X50343D01*
X581949Y689823D02*
X598149D01*
X581949D02*
X598149D01*
X581949Y679823D02*
X598149D01*
X581949D02*
X598149D01*
X581949D02*
X598149D01*
X581949Y689823D02*
X598149D01*
X581949D02*
X598149D01*
X581949Y679823D02*
X598149D01*
X581949D02*
X598149D01*
X581949D02*
X598149D01*
X581949D02*
X598149D01*
X581949D02*
X598149D01*
X415597Y667003D02*
X429397D01*
X415597D02*
X429397D01*
X415597D02*
X429397D01*
X415597D02*
X429397D01*
X415597D02*
X429397D01*
X415597D02*
X429397D01*
X415597D02*
X429397D01*
X415597D02*
X429397D01*
Y657003D02*
Y667003D01*
Y657003D02*
Y667003D01*
Y657003D02*
Y667003D01*
Y657003D02*
Y667003D01*
Y657003D02*
Y667003D01*
Y657003D02*
Y667003D01*
Y657003D02*
Y667003D01*
Y638002D02*
Y657003D01*
Y638002D02*
Y657003D01*
Y638002D02*
Y657003D01*
Y638002D02*
Y657003D01*
Y638002D02*
Y657003D01*
Y638002D02*
Y657003D01*
X581892Y517193D02*
X598092D01*
X581892D02*
X598092D01*
X581892D02*
X598092D01*
X581892D02*
X598092D01*
X581892D02*
X598092D01*
X429397Y657003D02*
Y667003D01*
Y638002D02*
Y657003D01*
Y638002D02*
Y657003D01*
X415597Y647003D02*
X420598D01*
X415597D02*
X420598D01*
X415597D02*
X420598D01*
X415597D02*
X420598D01*
X415597D02*
X420598D01*
X415597D02*
X420598D01*
X415597D02*
X420598D01*
X415597D02*
X420598D01*
X399397Y657003D02*
X415597D01*
X399397D02*
X415597D01*
X399397D02*
X415597D01*
X399397Y647003D02*
X415597D01*
X399397Y657003D02*
X415597D01*
X399397Y667003D02*
X415597D01*
X399397D02*
X415597D01*
X399397Y657003D02*
X415597D01*
X399397Y647003D02*
X415597D01*
X399397D02*
X415597D01*
X399397D02*
X415597D01*
X399397D02*
X415597D01*
X399397D02*
X415597D01*
X399397D02*
X415597D01*
X399397D02*
X415597D01*
X399397Y667003D02*
X415597D01*
X399397D02*
X415597D01*
X399397D02*
X415597D01*
X399397D02*
X415597D01*
X399397Y657003D02*
X415597D01*
X399397D02*
X415597D01*
X399397D02*
X415597D01*
X399397Y667003D02*
X415597D01*
X399397D02*
X415597D01*
X246700Y592028D02*
Y611029D01*
Y592028D02*
Y611029D01*
Y592028D02*
Y611029D01*
Y592028D02*
Y611029D01*
Y621029D01*
Y611029D02*
Y621029D01*
Y611029D02*
Y621029D01*
Y592028D02*
Y611029D01*
Y592028D02*
Y611029D01*
Y592028D02*
Y611029D01*
Y592028D02*
Y611029D01*
X232900Y621029D02*
X246700D01*
X232900D02*
X246700D01*
X232900D02*
X246700D01*
X232900D02*
X246700D01*
X232900D02*
X246700D01*
X232900D02*
X246700D01*
X232900D02*
X246700D01*
X232900D02*
X246700D01*
Y611029D02*
Y621029D01*
Y611029D02*
Y621029D01*
Y611029D02*
Y621029D01*
Y611029D02*
Y621029D01*
Y611029D02*
Y621029D01*
X581892Y507193D02*
X598092D01*
X581892D02*
X598092D01*
X581892D02*
X598092D01*
X581892Y517193D02*
X598092D01*
X581892D02*
X598092D01*
X581892D02*
X598092D01*
X581892Y497193D02*
X598092D01*
X581892D02*
X598092D01*
X581892D02*
X598092D01*
X581892D02*
X598092D01*
X581892D02*
X598092D01*
X581892D02*
X598092D01*
X581892D02*
X598092D01*
X581892D02*
X598092D01*
X581892Y507193D02*
X598092D01*
X581892D02*
X598092D01*
X581892D02*
X598092D01*
X581892D02*
X598092D01*
X581892D02*
X598092D01*
X415500Y484374D02*
X429300D01*
Y474374D02*
Y484374D01*
Y474374D02*
Y484374D01*
X415500D02*
X429300D01*
X415500D02*
X429300D01*
X415500D02*
X429300D01*
X415500D02*
X429300D01*
X415500D02*
X429300D01*
X415500D02*
X429300D01*
Y474374D02*
Y484374D01*
Y474373D02*
Y474374D01*
Y474373D02*
Y474374D01*
Y474373D02*
Y474374D01*
Y484374D01*
Y474374D02*
Y484374D01*
Y474374D02*
Y484374D01*
Y474374D02*
Y484374D01*
Y474373D02*
Y474374D01*
Y474373D02*
Y474374D01*
Y484374D01*
Y474373D02*
Y474374D01*
Y474373D02*
Y474374D01*
Y474373D02*
Y474374D01*
X415500Y464374D02*
X420500D01*
X415500D02*
X420500D01*
X415500D02*
X420500D01*
X415500D02*
X420500D01*
X415500D02*
X420500D01*
X415500Y484374D02*
X429300D01*
X399300Y474374D02*
X415500D01*
X399300D02*
X415500D01*
X399300D02*
X415500D01*
X399300D02*
X415500D01*
X399300D02*
X415500D01*
X399300D02*
X415500D01*
X399300Y464374D02*
X415500D01*
X399300D02*
X415500D01*
X399300D02*
X415500D01*
X420500D01*
X399300D02*
X415500D01*
X399300Y474374D02*
X415500D01*
X399300D02*
X415500D01*
X399300Y484374D02*
X415500D01*
X399300D02*
X415500D01*
X399300D02*
X415500D01*
X399300D02*
X415500D01*
X399300D02*
X415500D01*
X399300D02*
X415500D01*
X399300D02*
X415500D01*
X399300D02*
X415500D01*
Y464374D02*
X420500D01*
X415500D02*
X420500D01*
X399300D02*
X415500D01*
X399300D02*
X415500D01*
X399300D02*
X415500D01*
X399300D02*
X415500D01*
X246660Y428400D02*
Y438400D01*
Y409399D02*
Y428400D01*
Y438400D01*
Y409399D02*
Y428400D01*
Y438400D01*
Y409399D02*
Y428400D01*
Y409399D02*
Y428400D01*
Y409399D02*
Y428400D01*
Y409399D02*
Y428400D01*
Y409399D02*
Y428400D01*
Y409399D02*
Y428400D01*
X216700Y611029D02*
X232900D01*
X216700D02*
X232900D01*
X216700D02*
X232900D01*
X216700Y601029D02*
X232900D01*
X216700Y611029D02*
X232900D01*
X216700Y621029D02*
X232900D01*
X216700D02*
X232900D01*
X216700Y611029D02*
X232900D01*
X216700Y601029D02*
X232900D01*
X216700D02*
X232900D01*
X216700D02*
X232900D01*
X216700D02*
X232900D01*
X216700Y621029D02*
X232900D01*
X216700D02*
X232900D01*
X216700D02*
X232900D01*
X216700Y611029D02*
X232900D01*
X216700D02*
X232900D01*
X216700Y621029D02*
X232900D01*
X216700D02*
X232900D01*
X216700D02*
X232900D01*
X216700Y611029D02*
X232900D01*
Y601029D02*
X237900D01*
X232900D02*
X237900D01*
X232900D02*
X237900D01*
X232900D02*
X237900D01*
X232900D02*
X237900D01*
X216700D02*
X232900D01*
X216700D02*
X232900D01*
X216700D02*
X232900D01*
X237900D01*
X246660Y428400D02*
Y438400D01*
Y428400D02*
Y438400D01*
Y428400D02*
Y438400D01*
Y428400D02*
Y438400D01*
X232900Y601029D02*
X237900D01*
X232900D02*
X237900D01*
X64086Y585353D02*
Y595353D01*
Y566353D02*
Y585353D01*
Y566353D02*
Y585353D01*
Y595353D01*
Y585353D02*
Y595353D01*
Y585353D02*
Y595353D01*
Y585353D02*
Y595353D01*
Y585353D02*
Y595353D01*
Y566353D02*
Y585353D01*
Y566353D02*
Y585353D01*
Y566353D02*
Y585353D01*
Y566353D02*
Y585353D01*
Y566353D02*
Y585353D01*
X50287Y595353D02*
X64086D01*
X50287D02*
X64086D01*
X50287D02*
X64086D01*
X50287D02*
X64086D01*
X34086D02*
X50287D01*
X34086D02*
X50287D01*
X34086D02*
X50287D01*
X64086D01*
X50287D02*
X64086D01*
X50287D02*
X64086D01*
X50287D02*
X64086D01*
X34086Y585353D02*
X50287D01*
X34086D02*
X50287D01*
X34086Y595353D02*
X50287D01*
X34086D02*
X50287D01*
X34086D02*
X50287D01*
X34086D02*
X50287D01*
X34086D02*
X50287D01*
X34086Y585353D02*
X50287D01*
X34086D02*
X50287D01*
X34086D02*
X50287D01*
X34086D02*
X50287D01*
X34086D02*
X50287D01*
X34086D02*
X50287D01*
X64086D02*
Y595353D01*
Y566353D02*
Y585353D01*
Y595353D01*
X50287Y575353D02*
X55287D01*
X50287D02*
X55287D01*
X50287D02*
X55287D01*
X50287D02*
X55287D01*
X50287D02*
X55287D01*
X34086D02*
X50287D01*
X34086D02*
X50287D01*
X34086D02*
X50287D01*
X34086D02*
X50287D01*
X34086D02*
X50287D01*
X34086D02*
X50287D01*
X55287D01*
X50287D02*
X55287D01*
X50287D02*
X55287D01*
X34086D02*
X50287D01*
X34086D02*
X50287D01*
X216660Y428400D02*
X232860D01*
X246660D02*
Y438400D01*
X216660Y428400D02*
X232860D01*
X216660D02*
X232860D01*
X216660D02*
X232860D01*
X216660D02*
X232860D01*
Y418400D02*
X237860D01*
X216660D02*
X232860D01*
X216660Y428400D02*
X232860D01*
X216660D02*
X232860D01*
X216660Y418400D02*
X232860D01*
X216660D02*
X232860D01*
X216660Y438400D02*
X216660D01*
X216660D02*
X216660D01*
X216660D02*
X216660D01*
X216660D02*
X216660D01*
X216660D02*
X216660D01*
X216660D02*
X216660D01*
X216660D02*
X216660D01*
X216660D02*
X216660D01*
X216660Y428400D02*
X232860D01*
X216660Y418400D02*
X232860D01*
X216660D02*
X232860D01*
X216660D02*
X232860D01*
X216660D02*
X232860D01*
X216660D02*
X232860D01*
X237860D01*
X232860D02*
X237860D01*
X232860D02*
X237860D01*
X232860D02*
X237860D01*
X232860D02*
X237860D01*
X232860D02*
X237860D01*
X232860D02*
X237860D01*
X64030Y402724D02*
Y412724D01*
Y402724D02*
Y412724D01*
Y402724D02*
Y412724D01*
Y402724D02*
Y412724D01*
Y402724D02*
Y412724D01*
Y402724D02*
Y412724D01*
Y402723D02*
Y402724D01*
Y402723D02*
Y402724D01*
Y402723D02*
Y402724D01*
Y402723D02*
Y402724D01*
Y402723D02*
Y402724D01*
Y402723D02*
Y402724D01*
X50230Y412724D02*
X64030D01*
X50230D02*
X64030D01*
X34031D02*
X50230D01*
X34031D02*
X50230D01*
X64030D01*
X50230D02*
X64030D01*
X50230D02*
X64030D01*
X50230D02*
X64030D01*
Y402724D02*
Y412724D01*
X50230D02*
X64030D01*
X50230D02*
X64030D01*
X34031Y402724D02*
X50230D01*
X34031D02*
X50230D01*
X34031D02*
X50230D01*
X34031Y412724D02*
X50230D01*
X34031D02*
X50230D01*
X34031D02*
X50230D01*
X34031D02*
X50230D01*
X34031D02*
X50230D01*
X34031D02*
X50230D01*
X34031Y402724D02*
X50230D01*
X34031D02*
X50230D01*
X34031D02*
X50230D01*
X34031D02*
X50230D01*
X34031D02*
X50230D01*
X64030Y402723D02*
Y402724D01*
Y412724D01*
Y402723D02*
Y402724D01*
X50230Y392724D02*
X55230D01*
X50230D02*
X55230D01*
X50230D02*
X55230D01*
X50230D02*
X55230D01*
X50230D02*
X55230D01*
X34031D02*
X50230D01*
X34031D02*
X50230D01*
X34031D02*
X50230D01*
X34031D02*
X50230D01*
X55230D01*
X50230D02*
X55230D01*
X50230D02*
X55230D01*
X34031D02*
X50230D01*
X34031D02*
X50230D01*
X34031D02*
X50230D01*
X34031D02*
X50230D01*
X1051552Y905867D02*
Y924867D01*
Y905867D02*
Y924867D01*
Y905867D02*
Y924867D01*
Y905867D02*
Y924867D01*
Y934867D01*
X1065352D01*
X1051552D02*
X1065352D01*
X1051552Y924867D02*
Y934867D01*
Y924867D02*
Y934867D01*
Y924867D02*
Y934867D01*
X1060352Y914867D02*
X1065352D01*
X1060352D02*
X1065352D01*
X1060352D02*
X1065352D01*
X1051552Y934867D02*
X1065352D01*
X1051552D02*
X1065352D01*
X1060352Y914867D02*
X1065352D01*
Y924867D02*
X1081552D01*
X1065352D02*
X1081552D01*
X1065352D02*
X1081552D01*
X1065352Y914867D02*
X1081552D01*
X1065352D02*
X1081552D01*
X1065352D02*
X1081552D01*
X1065352D02*
X1081552D01*
X1065352Y934867D02*
X1081552D01*
X1065352D02*
X1081552D01*
X1065352D02*
X1081552D01*
X1065352D02*
X1081552D01*
X1065352Y924867D02*
X1081552D01*
X1065352D02*
X1081552D01*
X1065352D02*
X1081552D01*
X1065352Y934867D02*
X1081552D01*
X1065352D02*
X1081552D01*
X1065352D02*
X1081552D01*
X1065352D02*
X1081552D01*
X1065352Y914867D02*
X1081552D01*
X1065352D02*
X1081552D01*
X1065352D02*
X1081552D01*
X1065352D02*
X1081552D01*
X1065352Y924867D02*
X1081552D01*
X1065352D02*
X1081552D01*
X1060352Y914867D02*
X1065352D01*
X1051552Y934867D02*
X1065352D01*
X1051552D02*
X1065352D01*
X1060352Y914867D02*
X1065352D01*
X1060352D02*
X1065352D01*
X1051552Y934867D02*
X1065352D01*
X1051552Y924867D02*
Y934867D01*
Y924867D02*
Y934867D01*
Y924867D02*
Y934867D01*
X1065352D01*
X1051552Y924867D02*
Y934867D01*
X1060352Y914867D02*
X1065352D01*
X1051552Y905867D02*
Y924867D01*
Y905867D02*
Y924867D01*
Y905867D02*
Y924867D01*
Y905867D02*
Y924867D01*
X977552Y905867D02*
X977552Y924867D01*
X947552Y924867D02*
Y934867D01*
X968752Y914867D02*
X971552D01*
X947552D02*
Y924867D01*
X977552Y905867D02*
X977552Y924867D01*
X1057552Y914867D02*
X1060352D01*
X1081552D02*
Y924867D01*
Y934867D01*
X503454Y820632D02*
Y839632D01*
Y820632D02*
Y839632D01*
Y820632D02*
Y839632D01*
Y820632D02*
Y839632D01*
X512254Y829632D02*
X517253D01*
X503454Y839632D02*
Y849632D01*
X517253D01*
X503454Y839632D02*
Y849632D01*
Y839632D02*
Y849632D01*
Y839632D02*
Y849632D01*
X512254Y829632D02*
X517253D01*
X512254D02*
X517253D01*
X512254D02*
X517253D01*
X503454Y849632D02*
X517253D01*
X503454D02*
X517253D01*
X503454D02*
X517253D01*
Y839632D02*
X533453D01*
X517253D02*
X533453D01*
X517253D02*
X533453D01*
X517253D02*
X533453D01*
X517253Y829632D02*
X533453D01*
X517253D02*
X533453D01*
X517253D02*
X533453D01*
X517253D02*
X533453D01*
X517253Y849632D02*
X533453D01*
X517253D02*
X533453D01*
X517253D02*
X533453D01*
X517253D02*
X533453D01*
X320800Y774658D02*
Y793658D01*
Y774658D02*
Y793658D01*
Y774658D02*
Y793658D01*
Y774658D02*
Y793658D01*
X329600Y783658D02*
X334600D01*
X329600D02*
X334600D01*
X320800Y793658D02*
Y803658D01*
Y793658D02*
Y803658D01*
Y793658D02*
Y803658D01*
Y793658D02*
Y803658D01*
X329600Y783658D02*
X334600D01*
X329600D02*
X334600D01*
Y793658D02*
X350800D01*
X334600D02*
X350800D01*
X320800Y803658D02*
X334600D01*
X320800D02*
X334600D01*
X320800D02*
X334600D01*
X320800D02*
X334600D01*
Y793658D02*
X350800D01*
X334600D02*
X350800D01*
X334600Y803658D02*
X350800D01*
X334600Y783658D02*
X350800D01*
X334600D02*
X350800D01*
X334600D02*
X350800D01*
X334600D02*
X350800D01*
X334600Y803658D02*
X350800D01*
X334600D02*
X350800D01*
X334600D02*
X350800D01*
X320800Y957287D02*
Y976287D01*
Y957287D02*
Y976287D01*
Y957287D02*
Y976287D01*
Y957287D02*
Y976287D01*
X329600Y966287D02*
X334600D01*
X329600D02*
X334600D01*
X329600D02*
X334600D01*
X329600D02*
X334600D01*
X320800Y976287D02*
Y986287D01*
X334600D01*
X320800D02*
X334600D01*
X320800Y976287D02*
Y986287D01*
Y976287D02*
Y986287D01*
Y976287D02*
Y986287D01*
X334600D01*
X320800D02*
X334600D01*
Y966287D02*
X350800D01*
X334600D02*
X350800D01*
X334600D02*
X350800D01*
X334600Y986287D02*
X350800D01*
X334600D02*
X350800D01*
X334600D02*
X350800D01*
X334600D02*
X350800D01*
X334600Y976287D02*
X350800D01*
X334600D02*
X350800D01*
X334600D02*
X350800D01*
X334600Y966287D02*
X350800D01*
X334600Y976287D02*
X350800D01*
X503509Y1003261D02*
Y1022261D01*
Y1003261D02*
Y1022261D01*
Y1003261D02*
Y1022261D01*
Y1003261D02*
Y1022261D01*
X512310Y1012261D02*
X517310D01*
X503509Y1022261D02*
Y1032261D01*
Y1022261D02*
Y1032261D01*
Y1022261D02*
Y1032261D01*
Y1022261D02*
Y1032261D01*
X512310Y1012261D02*
X517310D01*
X512310D02*
X517310D01*
X512310D02*
X517310D01*
X503509Y1032261D02*
X517310D01*
X503509D02*
X517310D01*
X503509D02*
X517310D01*
X503509D02*
X517310D01*
Y1012261D02*
X533509D01*
X517310D02*
X533509D01*
X517310D02*
X533509D01*
X517310D02*
X533509D01*
X517310Y1032261D02*
X533509D01*
X517310D02*
X533509D01*
X517310D02*
X533509D01*
X517310D02*
X533509D01*
X517310Y1022261D02*
X533509D01*
X517310D02*
X533509D01*
X517310D02*
X533509D01*
X517310D02*
X533509D01*
X686061Y1036081D02*
Y1055082D01*
Y1036081D02*
Y1055082D01*
Y1036081D02*
Y1055082D01*
Y1036081D02*
Y1055082D01*
X694861Y1045082D02*
X699861D01*
X686061Y1055082D02*
Y1065082D01*
Y1055082D02*
Y1065082D01*
X699861D01*
X686061Y1055082D02*
Y1065082D01*
Y1055082D02*
Y1065082D01*
X694861Y1045082D02*
X699861D01*
X694861D02*
X699861D01*
X686061Y1065082D02*
X699861D01*
X686061D02*
X699861D01*
X686061D02*
X699861D01*
Y1045082D02*
X716061D01*
X699861D02*
X716061D01*
X699861D02*
X716061D01*
X699861D02*
X716061D01*
X694861D02*
X699861D01*
Y1065082D02*
X716061D01*
X699861D02*
X716061D01*
X699861D02*
X716061D01*
X699861D02*
X716061D01*
X699861Y1055082D02*
X716061D01*
X699861D02*
X716061D01*
X699861D02*
X716061D01*
X699861D02*
X716061D01*
X868849Y988084D02*
Y1007084D01*
Y988084D02*
Y1007084D01*
Y988084D02*
Y1007084D01*
Y988084D02*
Y1007084D01*
X877649Y997084D02*
X882649D01*
X868849Y1007084D02*
Y1017084D01*
Y1007084D02*
Y1017084D01*
X882649D01*
X868849D02*
X882649D01*
X868849Y1007084D02*
Y1017084D01*
Y1007084D02*
Y1017084D01*
X877649Y997084D02*
X882649D01*
X877649D02*
X882649D01*
X868849Y1017084D02*
X882649D01*
X868849D02*
X882649D01*
X877649Y997084D02*
X882649D01*
Y1007084D02*
X898849D01*
X882649D02*
X898849D01*
X882649Y997084D02*
X898849D01*
X882649D02*
X898849D01*
X882649D02*
X898849D01*
X882649D02*
X898849D01*
X882649Y1017084D02*
X898849D01*
X882649D02*
X898849D01*
X882649D02*
X898849D01*
X882649D02*
X898849D01*
X882649Y1007084D02*
X898849D01*
X882649D02*
X898849D01*
X1241780Y119188D02*
X1245834Y116264D01*
X1245835Y116263D02*
X1258975Y106787D01*
X1245835Y116263D02*
X1258975Y106787D01*
X1245835Y116263D02*
X1258975Y106787D01*
X1245835Y116263D02*
X1258975Y106787D01*
X1241780Y119188D02*
X1245834Y116264D01*
X1241780Y119188D02*
X1245834Y116264D01*
X1241780Y119188D02*
X1245834Y116264D01*
X1246341Y140557D02*
X1257534Y132485D01*
X1251685Y124374D02*
X1264824Y114897D01*
X1251685Y124374D02*
X1264824Y114897D01*
X1251685Y124374D02*
X1264824Y114897D01*
X1251685Y124374D02*
X1264824Y114897D01*
X1257534Y132485D02*
X1270674Y123008D01*
X1257534Y132485D02*
X1270674Y123008D01*
X1246341Y140557D02*
X1257534Y132485D01*
X1246341Y140557D02*
X1257534Y132485D01*
X1246341Y140557D02*
X1257534Y132485D01*
X1270674Y123008D01*
X1257534Y132485D02*
X1270674Y123008D01*
X1033795Y147877D02*
X1038671Y146769D01*
X1033795Y147877D02*
X1038671Y146769D01*
X1033795Y147877D02*
X1038671Y146769D01*
X1033795Y147877D02*
X1038671Y146769D01*
X1029645Y169329D02*
X1043102Y166272D01*
X1029645Y169329D02*
X1043102Y166272D01*
X1029645Y169329D02*
X1043102Y166272D01*
X1029645Y169329D02*
X1043102Y166272D01*
X1058899Y162683D01*
X1043102Y166272D02*
X1058899Y162683D01*
X827500Y211000D02*
Y230000D01*
Y211000D02*
Y230000D01*
Y211000D02*
Y230000D01*
Y211000D02*
Y230000D01*
Y230001D01*
Y230000D02*
Y230001D01*
Y230000D02*
Y230001D01*
Y230000D02*
Y230001D01*
Y240000D02*
X841300D01*
X827500D02*
X841300D01*
X827500D02*
X841300D01*
X827500D02*
X841300D01*
Y220000D02*
X841301D01*
X841300D02*
X841300D01*
X841300D02*
X841300D01*
X841300D02*
X841300D01*
X841300D02*
X841300D01*
X841301D02*
X857500D01*
X841301D02*
X857500D01*
X841300D02*
X841301D01*
X841300Y230000D02*
X857500D01*
X841300Y240000D02*
X857500D01*
X841300D02*
X857500D01*
X841300Y230000D02*
X857500D01*
X1051658Y357964D02*
Y376964D01*
Y357964D02*
Y376964D01*
Y357964D02*
Y376964D01*
Y357964D02*
Y376964D01*
X1060458Y366964D02*
X1065458D01*
X1051658Y376964D02*
Y386964D01*
X1065458D01*
X1051658Y376964D02*
Y386964D01*
Y376964D02*
Y386964D01*
Y376964D02*
Y386964D01*
X1060458Y366964D02*
X1065458D01*
X1060458D02*
X1065458D01*
X1060458D02*
X1065458D01*
X1051658Y386964D02*
X1065458D01*
X1051658D02*
X1065458D01*
X1051658D02*
X1065458D01*
Y376964D02*
X1081658D01*
X1065458D02*
X1081658D01*
X1065458Y366964D02*
X1081658D01*
X1065458D02*
X1081658D01*
X1065458D02*
X1081658D01*
X1065458D02*
X1081658D01*
X1065458Y386964D02*
X1081658D01*
X1065458D02*
X1081658D01*
X1065458D02*
X1081658D01*
X1065458D02*
X1081658D01*
X1065458Y376964D02*
X1081658D01*
X1065458D02*
X1081658D01*
X138030Y383723D02*
Y402724D01*
Y383723D02*
Y402724D01*
Y383723D02*
Y402724D01*
Y383723D02*
Y402724D01*
X146830Y392724D02*
X151830D01*
X146830D02*
X151830D01*
X146830D02*
X151830D01*
X138030Y402724D02*
Y412724D01*
X151830D01*
X138030D02*
X151830D01*
X138030Y402724D02*
Y412724D01*
Y402724D02*
Y412724D01*
Y402724D02*
Y412724D01*
X146830Y392724D02*
X151830D01*
X138030Y412724D02*
X151830D01*
X138030D02*
X151830D01*
Y402724D02*
X168030D01*
X151830D02*
X168030D01*
X151830D02*
X168030D01*
X151830Y392724D02*
X168030D01*
X151830D02*
X168030D01*
X151830D02*
X168030D01*
X151830D02*
X168030D01*
X151830Y412724D02*
X168030D01*
X151830D02*
X168030D01*
X151830Y402724D02*
X168030D01*
X151830Y412724D02*
X168030D01*
X151830D02*
X168030D01*
X138086Y566353D02*
Y585353D01*
Y566353D02*
Y585353D01*
Y566353D02*
Y585353D01*
Y566353D02*
Y585353D01*
X146887Y575353D02*
X151887D01*
X146887D02*
X151887D01*
X146887D02*
X151887D01*
X138086Y595353D02*
X151887D01*
X138086D02*
X151887D01*
X138086Y585353D02*
Y595353D01*
Y585353D02*
Y595353D01*
Y585353D02*
Y595353D01*
Y585353D02*
Y595353D01*
X151887Y575353D02*
X168086D01*
X146887D02*
X151887D01*
X138086Y595353D02*
X151887D01*
X138086D02*
X151887D01*
Y575353D02*
X168086D01*
X151887D02*
X168086D01*
X151887D02*
X168086D01*
X151887Y585353D02*
X168086D01*
X151887Y595353D02*
X168086D01*
X151887D02*
X168086D01*
X151887D02*
X168086D01*
X151887D02*
X168086D01*
X151887Y585353D02*
X168086D01*
X151887D02*
X168086D01*
X151887D02*
X168086D01*
X138143Y748983D02*
Y767982D01*
Y748983D02*
Y767982D01*
Y748983D02*
Y767982D01*
Y748983D02*
Y767982D01*
X146943Y757982D02*
X151943D01*
X146943D02*
X151943D01*
X146943D02*
X151943D01*
X138143Y767982D02*
Y777982D01*
Y767982D02*
Y777982D01*
Y767982D02*
Y777982D01*
Y767982D02*
Y777982D01*
X146943Y757982D02*
X151943D01*
X168143D01*
X138143Y777982D02*
X151943D01*
X138143D02*
X151943D01*
X138143D02*
X151943D01*
X138143D02*
X151943D01*
Y757982D02*
X168143D01*
X151943D02*
X168143D01*
X151943D02*
X168143D01*
X151943Y777982D02*
X168143D01*
X151943D02*
X168143D01*
X151943D02*
X168143D01*
X151943D02*
X168143D01*
X151943Y767982D02*
X168143D01*
X151943D02*
X168143D01*
X151943D02*
X168143D01*
X151943D02*
X168143D01*
X138198Y931612D02*
Y950611D01*
Y931612D02*
Y950611D01*
Y931612D02*
Y950611D01*
Y931612D02*
Y950611D01*
X146999Y940611D02*
X151999D01*
X138198Y950611D02*
Y960611D01*
Y950611D02*
Y960611D01*
X151999D01*
X138198D02*
X151999D01*
X138198Y950611D02*
Y960611D01*
Y950611D02*
Y960611D01*
X146999Y940611D02*
X151999D01*
X146999D02*
X151999D01*
X168199D01*
X146999D02*
X151999D01*
X138198Y960611D02*
X151999D01*
X138198D02*
X151999D01*
Y940611D02*
X168199D01*
X151999D02*
X168199D01*
X151999Y960611D02*
X168199D01*
X151999D02*
X168199D01*
X151999D02*
X168199D01*
X151999D02*
X168199D01*
X151999Y950611D02*
X168199D01*
X151999Y940611D02*
X168199D01*
X151999Y950611D02*
X168199D01*
X151999D02*
X168199D01*
X151999D02*
X168199D01*
X320660Y409399D02*
Y428400D01*
Y409399D02*
Y428400D01*
Y409399D02*
Y428400D01*
Y409399D02*
Y428400D01*
X329460Y418400D02*
X334460D01*
X329460D02*
X334460D01*
X320660Y428400D02*
Y438400D01*
Y428400D02*
Y438400D01*
X334460D01*
X320660D02*
X334460D01*
X320660D02*
X334460D01*
X320660Y428400D02*
Y438400D01*
Y428400D02*
Y438400D01*
X329460Y418400D02*
X334460D01*
X329460D02*
X334460D01*
Y428400D02*
X350660D01*
X334460D02*
X350660D01*
X320660Y438400D02*
X334460D01*
Y418400D02*
X350660D01*
X334460Y428400D02*
X350660D01*
X334460Y418400D02*
X350660D01*
X334460D02*
X350660D01*
X334460D02*
X350660D01*
X334460Y438400D02*
X350660D01*
X334460Y428400D02*
X350660D01*
X334460Y438400D02*
X350660D01*
X334460D02*
X350660D01*
X334460D02*
X350660D01*
X512100Y464374D02*
X517100D01*
X512100D02*
X517100D01*
X512100D02*
X517100D01*
X512100D02*
X517100D01*
X503300Y474374D02*
Y484374D01*
Y474373D02*
Y474374D01*
Y474373D02*
Y474374D01*
Y474373D02*
Y474374D01*
Y484374D01*
Y474374D02*
Y484374D01*
Y474374D02*
Y484374D01*
Y474373D02*
Y474374D01*
Y484374D02*
X517100D01*
Y474374D02*
X533300D01*
X503300Y484374D02*
X517100D01*
X503300D02*
X517100D01*
X503300D02*
X517100D01*
Y464374D02*
X533300D01*
X517100D02*
X533300D01*
X517100D02*
X533300D01*
X517100D02*
X533300D01*
X517100Y474374D02*
X533300D01*
X517100D02*
X533300D01*
X517100Y484374D02*
X533300D01*
X517100D02*
X533300D01*
X517100D02*
X533300D01*
X517100D02*
X533300D01*
X517100Y474374D02*
X533300D01*
X320700Y592028D02*
Y611029D01*
Y592028D02*
Y611029D01*
Y592028D02*
Y611029D01*
Y592028D02*
Y611029D01*
X329500Y601029D02*
X334500D01*
X329500D02*
X334500D01*
X320700Y611029D02*
Y621029D01*
X334500D01*
X320700Y611029D02*
Y621029D01*
Y611029D02*
Y621029D01*
Y611029D02*
Y621029D01*
X329500Y601029D02*
X334500D01*
X350700D01*
X320700Y621029D02*
X334500D01*
X320700D02*
X334500D01*
X329500Y601029D02*
X334500D01*
X320700Y621029D02*
X334500D01*
Y601029D02*
X350700D01*
X334500D02*
X350700D01*
X334500Y611029D02*
X350700D01*
X334500Y601029D02*
X350700D01*
X334500Y611029D02*
X350700D01*
X334500Y621029D02*
X350700D01*
X334500D02*
X350700D01*
X334500D02*
X350700D01*
X334500D02*
X350700D01*
X334500Y611029D02*
X350700D01*
X334500D02*
X350700D01*
X1051561Y540609D02*
Y559609D01*
Y540609D02*
Y559609D01*
Y540609D02*
Y559609D01*
Y540609D02*
Y559609D01*
X1060361Y549608D02*
X1065361D01*
X1060361D02*
X1065361D01*
X1051561Y559609D02*
Y569609D01*
Y559609D02*
Y569609D01*
X1065361D01*
X1051561D02*
X1065361D01*
X1051561Y559609D02*
Y569609D01*
Y559609D02*
Y569609D01*
X1060361Y549608D02*
X1065361D01*
X1060361D02*
X1065361D01*
X1081561D01*
X1051561Y569609D02*
X1065361D01*
X1051561D02*
X1065361D01*
Y559609D02*
X1081561D01*
X1065361D02*
X1081561D01*
X1065361D02*
X1081561D01*
X1065361Y549608D02*
X1081561D01*
X1065361D02*
X1081561D01*
X1065361Y559609D02*
X1081561D01*
X1065361Y549608D02*
X1081561D01*
X1065361Y569609D02*
X1081561D01*
X1065361D02*
X1081561D01*
X1065361D02*
X1081561D01*
X1065361D02*
X1081561D01*
X1051618Y723238D02*
Y742238D01*
Y723238D02*
Y742238D01*
Y723238D02*
Y742238D01*
Y723238D02*
Y742238D01*
X1060418Y732238D02*
X1065417D01*
X1060418D02*
X1065417D01*
X1051618Y742238D02*
Y752238D01*
Y742238D02*
Y752238D01*
X1065417D01*
X1051618Y742238D02*
Y752238D01*
Y742238D02*
Y752238D01*
X1060418Y732238D02*
X1065417D01*
X1051618Y752238D02*
X1065417D01*
X1051618D02*
X1065417D01*
X1051618D02*
X1065417D01*
X1060418Y732238D02*
X1065417D01*
Y742238D02*
X1081618D01*
X1065417Y732238D02*
X1081618D01*
X1065417D02*
X1081618D01*
X1065417D02*
X1081618D01*
X1065417D02*
X1081618D01*
X1065417Y752238D02*
X1081618D01*
X1065417D02*
X1081618D01*
X1065417D02*
X1081618D01*
X1065417D02*
X1081618D01*
X1065417Y742238D02*
X1081618D01*
X1065417D02*
X1081618D01*
X1065417D02*
X1081618D01*
X868476Y440197D02*
Y459197D01*
Y440197D02*
Y459197D01*
Y440197D02*
Y459197D01*
Y440197D02*
Y459197D01*
X877277Y449197D02*
X882276D01*
X868476Y459197D02*
Y469197D01*
X882276D01*
X868476D02*
X882276D01*
X868476Y459197D02*
Y469197D01*
Y459197D02*
Y469197D01*
Y459197D02*
Y469197D01*
X877277Y449197D02*
X882276D01*
X877277D02*
X882276D01*
X877277D02*
X882276D01*
Y459197D02*
X898476D01*
X882276Y449197D02*
X898476D01*
X868476Y469197D02*
X882276D01*
X868476D02*
X882276D01*
Y459197D02*
X898476D01*
X882276Y449197D02*
X898476D01*
X882276D02*
X898476D01*
X882276D02*
X898476D01*
X882276Y459197D02*
X898476D01*
X882276D02*
X898476D01*
X882276Y469197D02*
X898476D01*
X882276D02*
X898476D01*
X882276D02*
X898476D01*
X882276D02*
X898476D01*
X868533Y622826D02*
Y641826D01*
Y622826D02*
Y641826D01*
Y622826D02*
Y641826D01*
Y622826D02*
Y641826D01*
X877333Y631826D02*
X882333D01*
X868533Y641826D02*
Y651826D01*
Y641826D02*
Y651826D01*
Y641826D02*
Y651826D01*
Y641826D02*
Y651826D01*
X877333Y631826D02*
X882333D01*
X877333D02*
X882333D01*
X877333D02*
X882333D01*
X868533Y651826D02*
X882333D01*
X868533D02*
X882333D01*
X868533D02*
X882333D01*
X868533D02*
X882333D01*
Y641826D02*
X898533D01*
X882333D02*
X898533D01*
X882333D02*
X898533D01*
X882333D02*
X898533D01*
X882333Y631826D02*
X898533D01*
X882333D02*
X898533D01*
X882333D02*
X898533D01*
X882333D02*
X898533D01*
X882333Y651826D02*
X898533D01*
X882333D02*
X898533D01*
X882333D02*
X898533D01*
X882333D02*
X898533D01*
X685893Y488194D02*
Y507193D01*
Y488194D02*
Y507193D01*
Y488194D02*
Y507193D01*
Y488194D02*
Y507193D01*
Y517193D01*
X699692D01*
X685893D02*
X699692D01*
X685893Y507193D02*
Y517193D01*
Y507193D02*
Y517193D01*
Y507193D02*
Y517193D01*
X694693Y497193D02*
X699692D01*
X694693D02*
X699692D01*
X694693D02*
X699692D01*
X685893Y517193D02*
X699692D01*
X685893D02*
X699692D01*
X694693Y497193D02*
X699692D01*
Y507193D02*
X715892D01*
X699692D02*
X715892D01*
X699692D02*
X715892D01*
X699692D02*
X715892D01*
X699692Y497193D02*
X715892D01*
X699692D02*
X715892D01*
X699692D02*
X715892D01*
X699692D02*
X715892D01*
X699692Y517193D02*
X715892D01*
X699692D02*
X715892D01*
X699692D02*
X715892D01*
X699692D02*
X715892D01*
X503397Y638002D02*
Y657003D01*
Y638002D02*
Y657003D01*
Y638002D02*
Y657003D01*
Y638002D02*
Y657003D01*
X512198Y647003D02*
X517197D01*
X512198D02*
X517197D01*
X512198D02*
X517197D01*
X512198D02*
X517197D01*
X503397Y657003D02*
Y667003D01*
Y657003D02*
Y667003D01*
X517197D01*
X503397Y657003D02*
Y667003D01*
Y657003D02*
Y667003D01*
X517197Y657003D02*
X533397D01*
X503397Y667003D02*
X517197D01*
X503397D02*
X517197D01*
X503397D02*
X517197D01*
Y647003D02*
X533397D01*
X517197Y657003D02*
X533397D01*
X517197Y647003D02*
X533397D01*
X517197Y657003D02*
X533397D01*
X517197Y647003D02*
X533397D01*
X517197D02*
X533397D01*
X517197Y667003D02*
X533397D01*
X517197D02*
X533397D01*
X517197D02*
X533397D01*
X517197D02*
X533397D01*
X517197Y657003D02*
X533397D01*
X685948Y670823D02*
Y689823D01*
Y670823D02*
Y689823D01*
Y670823D02*
Y689823D01*
Y670823D02*
Y689823D01*
X694749Y679823D02*
X699749D01*
X685948Y689823D02*
Y699823D01*
Y689823D02*
Y699823D01*
Y689823D02*
Y699823D01*
X699749D01*
X685948Y689823D02*
Y699823D01*
X694749Y679823D02*
X699749D01*
X694749D02*
X699749D01*
X694749D02*
X699749D01*
X685948Y699823D02*
X699749D01*
X685948D02*
X699749D01*
X685948D02*
X699749D01*
Y689823D02*
X715949D01*
X699749D02*
X715949D01*
X699749D02*
X715949D01*
X699749D02*
X715949D01*
X699749Y679823D02*
X715949D01*
X699749D02*
X715949D01*
X699749D02*
X715949D01*
X699749D02*
X715949D01*
X699749Y699823D02*
X715949D01*
X699749D02*
X715949D01*
X699749D02*
X715949D01*
X699749D02*
X715949D01*
X868589Y805455D02*
Y824455D01*
Y805455D02*
Y824455D01*
Y805455D02*
Y824455D01*
Y805455D02*
Y824455D01*
X877389Y814455D02*
X882389D01*
X877389D02*
X882389D01*
X877389D02*
X882389D01*
X868589Y824455D02*
Y834455D01*
Y824455D02*
Y834455D01*
X882389D01*
X868589Y824455D02*
Y834455D01*
Y824455D02*
Y834455D01*
X877389Y814455D02*
X882389D01*
X868589Y834455D02*
X882389D01*
X868589D02*
X882389D01*
X868589D02*
X882389D01*
Y824455D02*
X898589D01*
X882389D02*
X898589D01*
X882389Y814455D02*
X898589D01*
X882389D02*
X898589D01*
X882389D02*
X898589D01*
X882389Y824455D02*
X898589D01*
X882389D02*
X898589D01*
X882389Y814455D02*
X898589D01*
X882389Y834455D02*
X898589D01*
X882389D02*
X898589D01*
X882389D02*
X898589D01*
X882389D02*
X898589D01*
X686004Y853452D02*
Y872452D01*
Y853452D02*
Y872452D01*
Y853452D02*
Y872452D01*
Y853452D02*
Y872452D01*
X694805Y862452D02*
X699804D01*
X686004Y872452D02*
Y882452D01*
Y872452D02*
Y882452D01*
X699804D01*
X686004D02*
X699804D01*
X686004Y872452D02*
Y882452D01*
Y872452D02*
Y882452D01*
X694805Y862452D02*
X699804D01*
X694805D02*
X699804D01*
X686004Y882452D02*
X699804D01*
X686004D02*
X699804D01*
X694805Y862452D02*
X699804D01*
Y872452D02*
X716004D01*
X699804D02*
X716004D01*
X699804Y862452D02*
X716004D01*
X699804D02*
X716004D01*
X699804D02*
X716004D01*
X699804D02*
X716004D01*
X699804Y882452D02*
X716004D01*
X699804D02*
X716004D01*
X699804D02*
X716004D01*
X699804D02*
X716004D01*
X699804Y872452D02*
X716004D01*
X699804D02*
X716004D01*
X1175130Y191916D02*
X1175130D01*
X1175130D02*
X1175130D01*
X1175130D02*
X1175130D01*
X1175130D02*
X1175130D01*
X699804Y872452D02*
X716004D01*
X699804D02*
X716004D01*
X699804Y882452D02*
X716004D01*
X699804D02*
X716004D01*
X699804D02*
X716004D01*
X699804D02*
X716004D01*
X699804Y872452D02*
X716004D01*
X699804Y862452D02*
X716004D01*
X699804D02*
X716004D01*
X699804D02*
X716004D01*
X699804D02*
X716004D01*
X699804Y872452D02*
X716004D01*
X694805Y862452D02*
X699804D01*
X686004Y882452D02*
X699804D01*
X686004D02*
X699804D01*
X686004D02*
X699804D01*
X686004D02*
X699804D01*
X694805Y862452D02*
X699804D01*
X694805D02*
X699804D01*
X686004Y872452D02*
Y882452D01*
Y872452D02*
Y882452D01*
Y872452D02*
Y882452D01*
Y872452D02*
Y882452D01*
X694805Y862452D02*
X699804D01*
X686004Y853452D02*
Y872452D01*
Y853452D02*
Y872452D01*
Y853452D02*
Y872452D01*
Y853452D02*
Y872452D01*
X882389Y834455D02*
X898589D01*
X882389D02*
X898589D01*
X882389D02*
X898589D01*
X882389D02*
X898589D01*
X882389Y824455D02*
X898589D01*
X882389D02*
X898589D01*
X868589Y834455D02*
X882389D01*
X868589D02*
X882389D01*
X868589D02*
X882389D01*
X868589D02*
X882389D01*
X868589Y824455D02*
Y834455D01*
X882389Y824455D02*
X898589D01*
X882389D02*
X898589D01*
X877389Y814455D02*
X882389D01*
X877389D02*
X882389D01*
X877389D02*
X882389D01*
X898589D01*
X882389D02*
X898589D01*
X877389D02*
X882389D01*
X898589D01*
X882389D02*
X898589D01*
X868589Y805455D02*
Y824455D01*
Y805455D02*
Y824455D01*
Y805455D02*
Y824455D01*
Y805455D02*
Y824455D01*
Y834455D01*
Y824455D02*
Y834455D01*
Y824455D02*
Y834455D01*
X699749Y699823D02*
X715949D01*
X699749D02*
X715949D01*
X699749D02*
X715949D01*
X699749Y689823D02*
X715949D01*
X699749Y699823D02*
X715949D01*
X699749Y679823D02*
X715949D01*
X699749D02*
X715949D01*
X699749D02*
X715949D01*
X699749D02*
X715949D01*
X699749Y689823D02*
X715949D01*
X699749D02*
X715949D01*
X699749D02*
X715949D01*
X685948Y699823D02*
X699749D01*
X685948D02*
X699749D01*
X685948D02*
X699749D01*
X685948D02*
X699749D01*
X694749Y679823D02*
X699749D01*
X694749D02*
X699749D01*
X685948Y689823D02*
Y699823D01*
Y689823D02*
Y699823D01*
Y689823D02*
Y699823D01*
Y689823D02*
Y699823D01*
X694749Y679823D02*
X699749D01*
X694749D02*
X699749D01*
X685948Y670823D02*
Y689823D01*
Y670823D02*
Y689823D01*
Y670823D02*
Y689823D01*
Y670823D02*
Y689823D01*
X517197Y657003D02*
X533397D01*
X517197Y667003D02*
X533397D01*
X517197D02*
X533397D01*
X517197D02*
X533397D01*
X517197D02*
X533397D01*
X517197Y647003D02*
X533397D01*
X517197Y657003D02*
X533397D01*
X517197D02*
X533397D01*
X517197D02*
X533397D01*
X517197Y647003D02*
X533397D01*
X517197D02*
X533397D01*
X517197D02*
X533397D01*
X503397Y667003D02*
X517197D01*
X503397D02*
X517197D01*
X503397D02*
X517197D01*
X512198Y647003D02*
X517197D01*
X512198D02*
X517197D01*
X503397Y657003D02*
Y667003D01*
Y657003D02*
Y667003D01*
Y657003D02*
Y667003D01*
Y657003D02*
Y667003D01*
X517197D01*
X512198Y647003D02*
X517197D01*
X512198D02*
X517197D01*
X503397Y638002D02*
Y657003D01*
Y638002D02*
Y657003D01*
Y638002D02*
Y657003D01*
Y638002D02*
Y657003D01*
X699692Y517193D02*
X715892D01*
X699692D02*
X715892D01*
X699692D02*
X715892D01*
X699692Y507193D02*
X715892D01*
X699692Y517193D02*
X715892D01*
X699692Y497193D02*
X715892D01*
X699692D02*
X715892D01*
X699692D02*
X715892D01*
X699692D02*
X715892D01*
X699692Y507193D02*
X715892D01*
X699692D02*
X715892D01*
X699692D02*
X715892D01*
X685893Y517193D02*
X699692D01*
X685893D02*
X699692D01*
X685893D02*
X699692D01*
X694693Y497193D02*
X699692D01*
X694693D02*
X699692D01*
X685893Y507193D02*
Y517193D01*
Y507193D02*
Y517193D01*
Y507193D02*
Y517193D01*
X699692D01*
X685893Y507193D02*
Y517193D01*
X694693Y497193D02*
X699692D01*
X694693D02*
X699692D01*
X685893Y488194D02*
Y507193D01*
Y488194D02*
Y507193D01*
Y488194D02*
Y507193D01*
Y488194D02*
Y507193D01*
X882333Y651826D02*
X898533D01*
X882333D02*
X898533D01*
X882333D02*
X898533D01*
X882333D02*
X898533D01*
X882333Y631826D02*
X898533D01*
X882333D02*
X898533D01*
X882333D02*
X898533D01*
X882333D02*
X898533D01*
X882333Y641826D02*
X898533D01*
X882333D02*
X898533D01*
X882333D02*
X898533D01*
X882333D02*
X898533D01*
X868533Y651826D02*
X882333D01*
X868533D02*
X882333D01*
X877333Y631826D02*
X882333D01*
X877333D02*
X882333D01*
X868533Y641826D02*
Y651826D01*
X882333D01*
X868533D02*
X882333D01*
X868533Y641826D02*
Y651826D01*
Y641826D02*
Y651826D01*
Y641826D02*
Y651826D01*
X877333Y631826D02*
X882333D01*
X877333D02*
X882333D01*
X868533Y622826D02*
Y641826D01*
Y622826D02*
Y641826D01*
Y622826D02*
Y641826D01*
Y622826D02*
Y641826D01*
X882276Y469197D02*
X898476D01*
X882276D02*
X898476D01*
X882276Y459197D02*
X898476D01*
X882276D02*
X898476D01*
X882276D02*
X898476D01*
X882276Y449197D02*
X898476D01*
X882276Y469197D02*
X898476D01*
X868476D02*
X882276D01*
X898476D01*
X882276Y449197D02*
X898476D01*
X882276Y459197D02*
X898476D01*
X882276Y449197D02*
X898476D01*
X868476Y459197D02*
Y469197D01*
Y459197D02*
Y469197D01*
Y459197D02*
Y469197D01*
Y459197D02*
Y469197D01*
X882276D01*
X868476D02*
X882276D01*
X868476D02*
X882276D01*
X877277Y449197D02*
X882276D01*
X877277D02*
X882276D01*
X877277D02*
X882276D01*
X898476D01*
X877277D02*
X882276D01*
X868476Y440197D02*
Y459197D01*
Y440197D02*
Y459197D01*
Y440197D02*
Y459197D01*
Y440197D02*
Y459197D01*
X1065417Y752238D02*
X1081618D01*
X1065417D02*
X1081618D01*
X1065417D02*
X1081618D01*
X1065417D02*
X1081618D01*
X1065417Y732238D02*
X1081618D01*
X1065417D02*
X1081618D01*
X1065417D02*
X1081618D01*
X1065417D02*
X1081618D01*
X1065417Y742238D02*
X1081618D01*
X1065417D02*
X1081618D01*
X1065417D02*
X1081618D01*
X1065417D02*
X1081618D01*
X1051618Y752238D02*
X1065417D01*
X1051618D02*
X1065417D01*
X1051618D02*
X1065417D01*
X1060418Y732238D02*
X1065417D01*
X1060418D02*
X1065417D01*
X1051618Y752238D02*
X1065417D01*
X1051618Y742238D02*
Y752238D01*
Y742238D02*
Y752238D01*
Y742238D02*
Y752238D01*
Y742238D02*
Y752238D01*
X1060418Y732238D02*
X1065417D01*
X1060418D02*
X1065417D01*
X1051618Y723238D02*
Y742238D01*
Y723238D02*
Y742238D01*
Y723238D02*
Y742238D01*
Y723238D02*
Y742238D01*
X1065361Y569609D02*
X1081561D01*
X1065361D02*
X1081561D01*
X1065361Y559609D02*
X1081561D01*
X1065361D02*
X1081561D01*
X1065361Y569609D02*
X1081561D01*
X1065361D02*
X1081561D01*
X1065361Y559609D02*
X1081561D01*
X1065361D02*
X1081561D01*
X1051561Y569609D02*
X1065361D01*
X1060361Y549608D02*
X1065361D01*
X1051561Y569609D02*
X1065361D01*
Y549608D02*
X1081561D01*
X1065361D02*
X1081561D01*
X1065361D02*
X1081561D01*
X1065361D02*
X1081561D01*
X1051561Y559609D02*
Y569609D01*
Y559609D02*
Y569609D01*
Y559609D02*
Y569609D01*
X1065361D01*
X1051561D02*
X1065361D01*
X1051561Y559609D02*
Y569609D01*
X1060361Y549608D02*
X1065361D01*
X1060361D02*
X1065361D01*
X1060361D02*
X1065361D01*
X1051561Y540609D02*
Y559609D01*
Y540609D02*
Y559609D01*
Y540609D02*
Y559609D01*
Y540609D02*
Y559609D01*
X334500Y611029D02*
X350700D01*
X334500D02*
X350700D01*
X334500D02*
X350700D01*
X334500Y621029D02*
X350700D01*
X334500D02*
X350700D01*
X334500D02*
X350700D01*
X334500D02*
X350700D01*
X334500Y601029D02*
X350700D01*
X334500D02*
X350700D01*
X334500D02*
X350700D01*
X320700Y621029D02*
X334500D01*
X320700D02*
X334500D01*
Y611029D02*
X350700D01*
X334500Y601029D02*
X350700D01*
X329500D02*
X334500D01*
X329500D02*
X334500D01*
X320700Y611029D02*
Y621029D01*
Y611029D02*
Y621029D01*
Y611029D02*
Y621029D01*
X334500D01*
X320700D02*
X334500D01*
X320700Y611029D02*
Y621029D01*
X329500Y601029D02*
X334500D01*
X329500D02*
X334500D01*
X320700Y592028D02*
Y611029D01*
Y592028D02*
Y611029D01*
Y592028D02*
Y611029D01*
Y592028D02*
Y611029D01*
X517100Y474374D02*
X533300D01*
X517100D02*
X533300D01*
X517100Y484374D02*
X533300D01*
X517100D02*
X533300D01*
X517100D02*
X533300D01*
X517100D02*
X533300D01*
X517100Y474374D02*
X533300D01*
X517100D02*
X533300D01*
X517100Y464374D02*
X533300D01*
X503300Y484374D02*
X517100D01*
X503300D02*
X517100D01*
X503300D02*
X517100D01*
X503300Y474374D02*
Y484374D01*
Y474374D02*
Y484374D01*
Y474374D02*
Y484374D01*
Y474374D02*
Y484374D01*
Y474373D02*
Y474374D01*
Y484374D02*
X517100D01*
X503300Y474373D02*
Y474374D01*
Y474373D02*
Y474374D01*
Y474373D02*
Y474374D01*
X517100Y464374D02*
X533300D01*
X517100D02*
X533300D01*
X517100D02*
X533300D01*
X512100D02*
X517100D01*
X512100D02*
X517100D01*
X512100D02*
X517100D01*
X512100D02*
X517100D01*
X334460Y428400D02*
X350660D01*
X334460Y438400D02*
X350660D01*
X334460D02*
X350660D01*
X334460D02*
X350660D01*
X334460D02*
X350660D01*
X334460Y428400D02*
X350660D01*
X334460D02*
X350660D01*
X334460D02*
X350660D01*
X320660Y438400D02*
X334460D01*
X320660Y428400D02*
Y438400D01*
X334460D01*
X320660Y428400D02*
Y438400D01*
Y428400D02*
Y438400D01*
Y428400D02*
Y438400D01*
X329460Y418400D02*
X334460D01*
X320660Y438400D02*
X334460D01*
X320660D02*
X334460D01*
Y418400D02*
X350660D01*
X334460D02*
X350660D01*
X334460D02*
X350660D01*
X334460D02*
X350660D01*
X320660Y409399D02*
Y428400D01*
Y409399D02*
Y428400D01*
Y409399D02*
Y428400D01*
Y409399D02*
Y428400D01*
X329460Y418400D02*
X334460D01*
X329460D02*
X334460D01*
X329460D02*
X334460D01*
X151999Y950611D02*
X168199D01*
X151999D02*
X168199D01*
X151999D02*
X168199D01*
X151999D02*
X168199D01*
X151999Y960611D02*
X168199D01*
X151999D02*
X168199D01*
X151999D02*
X168199D01*
X151999D02*
X168199D01*
X151999Y940611D02*
X168199D01*
X151999D02*
X168199D01*
X151999D02*
X168199D01*
X138198Y960611D02*
X151999D01*
X138198D02*
X151999D01*
X138198D02*
X151999D01*
X146999Y940611D02*
X151999D01*
X168199D01*
X146999D02*
X151999D01*
X138198Y950611D02*
Y960611D01*
Y950611D02*
Y960611D01*
X151999D01*
X138198Y950611D02*
Y960611D01*
Y950611D02*
Y960611D01*
X146999Y940611D02*
X151999D01*
X146999D02*
X151999D01*
X138198Y931612D02*
Y950611D01*
Y931612D02*
Y950611D01*
Y931612D02*
Y950611D01*
Y931612D02*
Y950611D01*
X151943Y767982D02*
X168143D01*
X151943Y757982D02*
X168143D01*
X151943Y767982D02*
X168143D01*
X151943D02*
X168143D01*
X151943D02*
X168143D01*
X151943Y777982D02*
X168143D01*
X151943D02*
X168143D01*
X151943D02*
X168143D01*
X151943D02*
X168143D01*
X151943Y757982D02*
X168143D01*
X151943D02*
X168143D01*
X151943D02*
X168143D01*
X138143Y777982D02*
X151943D01*
X138143D02*
X151943D01*
X138143D02*
X151943D01*
X146943Y757982D02*
X151943D01*
X138143Y767982D02*
Y777982D01*
Y767982D02*
Y777982D01*
Y767982D02*
Y777982D01*
X151943D01*
X138143Y767982D02*
Y777982D01*
X146943Y757982D02*
X151943D01*
X146943D02*
X151943D01*
X146943D02*
X151943D01*
X138143Y748983D02*
Y767982D01*
Y748983D02*
Y767982D01*
Y748983D02*
Y767982D01*
Y748983D02*
Y767982D01*
X151887Y585353D02*
X168086D01*
X151887D02*
X168086D01*
X151887Y595353D02*
X168086D01*
X151887D02*
X168086D01*
X151887D02*
X168086D01*
X151887D02*
X168086D01*
X151887Y585353D02*
X168086D01*
X151887D02*
X168086D01*
X151887Y575353D02*
X168086D01*
X151887D02*
X168086D01*
X138086Y595353D02*
X151887D01*
X138086D02*
X151887D01*
X138086D02*
X151887D01*
Y575353D02*
X168086D01*
X151887D02*
X168086D01*
X146887D02*
X151887D01*
X138086Y585353D02*
Y595353D01*
Y585353D02*
Y595353D01*
Y585353D02*
Y595353D01*
X151887D01*
X138086Y585353D02*
Y595353D01*
X146887Y575353D02*
X151887D01*
X146887D02*
X151887D01*
X146887D02*
X151887D01*
X138086Y566353D02*
Y585353D01*
Y566353D02*
Y585353D01*
Y566353D02*
Y585353D01*
Y566353D02*
Y585353D01*
X151830Y412724D02*
X168030D01*
X151830D02*
X168030D01*
X151830D02*
X168030D01*
X151830D02*
X168030D01*
X151830Y402724D02*
X168030D01*
X151830Y392724D02*
X168030D01*
X151830D02*
X168030D01*
X151830Y402724D02*
X168030D01*
X151830D02*
X168030D01*
X151830Y392724D02*
X168030D01*
X138030Y412724D02*
X151830D01*
Y402724D02*
X168030D01*
X151830Y392724D02*
X168030D01*
X146830D02*
X151830D01*
X146830D02*
X151830D01*
X138030Y402724D02*
Y412724D01*
Y402724D02*
Y412724D01*
Y402724D02*
Y412724D01*
X151830D01*
X138030D02*
X151830D01*
X138030D02*
X151830D01*
X138030Y402724D02*
Y412724D01*
X146830Y392724D02*
X151830D01*
X146830D02*
X151830D01*
X138030Y383723D02*
Y402724D01*
Y383723D02*
Y402724D01*
Y383723D02*
Y402724D01*
Y383723D02*
Y402724D01*
X1065458Y376964D02*
X1081658D01*
X1065458D02*
X1081658D01*
X1065458Y386964D02*
X1081658D01*
X1065458D02*
X1081658D01*
X1065458D02*
X1081658D01*
X1065458D02*
X1081658D01*
X1065458Y366964D02*
X1081658D01*
X1065458D02*
X1081658D01*
X1065458D02*
X1081658D01*
X1065458D02*
X1081658D01*
X1065458Y376964D02*
X1081658D01*
X1065458D02*
X1081658D01*
X1051658Y386964D02*
X1065458D01*
X1051658D02*
X1065458D01*
X1060458Y366964D02*
X1065458D01*
X1060458D02*
X1065458D01*
X1060458D02*
X1065458D01*
X1051658Y376964D02*
Y386964D01*
Y376964D02*
Y386964D01*
Y376964D02*
Y386964D01*
Y376964D02*
Y386964D01*
X1065458D01*
X1051658D02*
X1065458D01*
X1060458Y366964D02*
X1065458D01*
X1051658Y357964D02*
Y376964D01*
Y357964D02*
Y376964D01*
Y357964D02*
Y376964D01*
Y357964D02*
Y376964D01*
X841300Y230000D02*
X857500D01*
X841300Y240000D02*
X857500D01*
X841300D02*
X857500D01*
X841300Y230000D02*
X857500D01*
X841300Y220000D02*
X841301D01*
X857500D01*
X841301D02*
X857500D01*
X841300D02*
X841300D01*
X841300D02*
X841300D01*
X841300D02*
X841300D01*
X841300D02*
X841300D01*
X841301D01*
X827500Y240000D02*
X841300D01*
X827500D02*
X841300D01*
X827500D02*
X841300D01*
X827500D02*
X841300D01*
X827500Y230000D02*
Y230001D01*
Y230000D02*
Y230001D01*
Y230000D02*
Y230001D01*
Y230000D02*
Y230001D01*
Y211000D02*
Y230000D01*
Y211000D02*
Y230000D01*
Y211000D02*
Y230000D01*
Y211000D02*
Y230000D01*
X1029645Y169329D02*
X1043102Y166272D01*
X1029645Y169329D02*
X1043102Y166272D01*
X1029645Y169329D02*
X1043102Y166272D01*
X1029645Y169329D02*
X1043102Y166272D01*
X1033795Y147877D02*
X1038670Y146769D01*
X1033795Y147877D02*
X1038670Y146769D01*
X1033795Y147877D02*
X1038670Y146769D01*
X1033795Y147877D02*
X1038670Y146769D01*
X1257534Y132485D02*
X1270674Y123008D01*
X1257534Y132485D02*
X1270674Y123008D01*
X1257534Y132485D02*
X1270674Y123008D01*
X1246341Y140557D02*
X1257534Y132485D01*
X1246341Y140557D02*
X1257534Y132485D01*
X1246341Y140557D02*
X1257534Y132485D01*
X1246341Y140557D02*
X1257534Y132485D01*
X1257534Y132485D02*
X1270674Y123008D01*
X1251685Y124374D02*
X1264824Y114898D01*
X1251685Y124374D02*
X1264824Y114898D01*
X1251685Y124374D02*
X1264824Y114898D01*
X1251685Y124374D02*
X1264824Y114898D01*
X1241780Y119188D02*
X1245834Y116264D01*
X1241780Y119188D02*
X1245834Y116264D01*
X1241780Y119188D02*
X1245834Y116264D01*
X1241780Y119188D02*
X1245834Y116264D01*
X1245835Y116263D02*
X1258975Y106787D01*
X1245835Y116263D02*
X1258975Y106787D01*
X1245835Y116263D02*
X1258975Y106787D01*
X1245835Y116263D02*
X1258975Y106787D01*
X882649Y1007084D02*
X898849D01*
X882649D02*
X898849D01*
X882649Y1017084D02*
X898849D01*
X882649D02*
X898849D01*
X882649D02*
X898849D01*
X882649D02*
X898849D01*
X882649Y997084D02*
X898849D01*
X882649D02*
X898849D01*
X882649D02*
X898849D01*
X882649Y1007084D02*
X898849D01*
X882649D02*
X898849D01*
X882649Y997084D02*
X898849D01*
X877649D02*
X882649D01*
X877649D02*
X882649D01*
X868849Y1017084D02*
X882649D01*
X868849D02*
X882649D01*
X868849D02*
X882649D01*
X877649Y997084D02*
X882649D01*
X868849Y1007084D02*
Y1017084D01*
Y1007084D02*
Y1017084D01*
Y1007084D02*
Y1017084D01*
X882649D01*
X868849Y1007084D02*
Y1017084D01*
X877649Y997084D02*
X882649D01*
X868849Y988084D02*
Y1007084D01*
Y988084D02*
Y1007084D01*
Y988084D02*
Y1007084D01*
Y988084D02*
Y1007084D01*
X699861Y1055082D02*
X716061D01*
X699861D02*
X716061D01*
X699861D02*
X716061D01*
X699861Y1045082D02*
X716061D01*
X699861Y1055082D02*
X716061D01*
X699861Y1065082D02*
X716061D01*
X699861D02*
X716061D01*
X699861D02*
X716061D01*
X699861D02*
X716061D01*
X699861Y1045082D02*
X716061D01*
X699861D02*
X716061D01*
X699861D02*
X716061D01*
X686061Y1065082D02*
X699861D01*
X686061D02*
X699861D01*
X686061D02*
X699861D01*
X686061D02*
X699861D01*
X694861Y1045082D02*
X699861D01*
X694861D02*
X699861D01*
X694861D02*
X699861D01*
X686061Y1055082D02*
Y1065082D01*
Y1055082D02*
Y1065082D01*
Y1055082D02*
Y1065082D01*
Y1055082D02*
Y1065082D01*
X694861Y1045082D02*
X699861D01*
X686061Y1036081D02*
Y1055082D01*
Y1036081D02*
Y1055082D01*
Y1036081D02*
Y1055082D01*
Y1036081D02*
Y1055082D01*
X517310Y1022261D02*
X533509D01*
X517310D02*
X533509D01*
X517310D02*
X533509D01*
X517310D02*
X533509D01*
X517310Y1032261D02*
X533509D01*
X517310D02*
X533509D01*
X517310D02*
X533509D01*
X517310D02*
X533509D01*
X517310Y1012261D02*
X533509D01*
X512310D02*
X517310D01*
X533509D01*
X517310D02*
X533509D01*
X517310D02*
X533509D01*
X503509Y1032261D02*
X517310D01*
X503509D02*
X517310D01*
X503509D02*
X517310D01*
X512310Y1012261D02*
X517310D01*
X503509Y1022261D02*
Y1032261D01*
Y1022261D02*
Y1032261D01*
X517310D01*
X503509Y1022261D02*
Y1032261D01*
Y1022261D02*
Y1032261D01*
X512310Y1012261D02*
X517310D01*
X512310D02*
X517310D01*
X503509Y1003261D02*
Y1022261D01*
Y1003261D02*
Y1022261D01*
Y1003261D02*
Y1022261D01*
Y1003261D02*
Y1022261D01*
X334600Y976287D02*
X350800D01*
X334600D02*
X350800D01*
X334600D02*
X350800D01*
X334600D02*
X350800D01*
X334600Y986287D02*
X350800D01*
X334600D02*
X350800D01*
X334600Y966287D02*
X350800D01*
X334600D02*
X350800D01*
X334600D02*
X350800D01*
X334600Y986287D02*
X350800D01*
X334600D02*
X350800D01*
X320800D02*
X334600D01*
Y966287D02*
X350800D01*
X329600D02*
X334600D01*
X329600D02*
X334600D01*
X320800Y976287D02*
Y986287D01*
Y976287D02*
Y986287D01*
Y976287D02*
Y986287D01*
X334600D01*
X320800D02*
X334600D01*
X320800D02*
X334600D01*
X320800Y976287D02*
Y986287D01*
X329600Y966287D02*
X334600D01*
X329600D02*
X334600D01*
X320800Y957287D02*
Y976287D01*
Y957287D02*
Y976287D01*
Y957287D02*
Y976287D01*
Y957287D02*
Y976287D01*
X334600Y803658D02*
X350800D01*
X334600D02*
X350800D01*
X334600D02*
X350800D01*
X334600Y783658D02*
X350800D01*
X334600D02*
X350800D01*
X334600D02*
X350800D01*
X334600D02*
X350800D01*
X334600Y793658D02*
X350800D01*
X334600Y803658D02*
X350800D01*
X334600Y793658D02*
X350800D01*
X334600D02*
X350800D01*
X320800Y803658D02*
X334600D01*
X320800D02*
X334600D01*
X320800D02*
X334600D01*
Y793658D02*
X350800D01*
X320800Y803658D02*
X334600D01*
X320800Y793658D02*
Y803658D01*
Y793658D02*
Y803658D01*
Y793658D02*
Y803658D01*
Y793658D02*
Y803658D01*
X329600Y783658D02*
X334600D01*
X329600D02*
X334600D01*
X329600D02*
X334600D01*
X329600D02*
X334600D01*
X320800Y774658D02*
Y793658D01*
Y774658D02*
Y793658D01*
Y774658D02*
Y793658D01*
Y774658D02*
Y793658D01*
X517253Y849632D02*
X533453D01*
X517253D02*
X533453D01*
X517253D02*
X533453D01*
X517253D02*
X533453D01*
X517253Y829632D02*
X533453D01*
X517253D02*
X533453D01*
X517253D02*
X533453D01*
X517253D02*
X533453D01*
X517253Y839632D02*
X533453D01*
X517253D02*
X533453D01*
X517253D02*
X533453D01*
X517253D02*
X533453D01*
X503454Y849632D02*
X517253D01*
X503454D02*
X517253D01*
X503454D02*
X517253D01*
X512254Y829632D02*
X517253D01*
X503454Y839632D02*
Y849632D01*
Y839632D02*
Y849632D01*
Y839632D02*
Y849632D01*
X517253D01*
X503454Y839632D02*
Y849632D01*
X512254Y829632D02*
X517253D01*
X512254D02*
X517253D01*
X512254D02*
X517253D01*
X503454Y820632D02*
Y839632D01*
Y820632D02*
Y839632D01*
Y820632D02*
Y839632D01*
Y820632D02*
Y839632D01*
X947618Y752238D02*
X963817Y752238D01*
X947618Y752238D02*
X963817Y752238D01*
X977561Y540609D02*
X977561Y559608D01*
X944027Y188782D02*
X957484Y185724D01*
X944027Y188782D02*
X957484Y185724D01*
X429453Y820632D02*
X429454Y839631D01*
X1023220Y141050D02*
X1027429Y159578D01*
X944027Y188782D02*
X944027D01*
X944027D02*
X944027D01*
X399510Y1012262D02*
Y1022261D01*
Y1012261D02*
Y1012262D01*
X399453Y829632D02*
Y839632D01*
Y829632D02*
Y829632D01*
X34199Y940612D02*
Y950611D01*
Y940611D02*
Y940612D01*
X34086Y575353D02*
Y585353D01*
Y575353D02*
Y575353D01*
X836300Y220000D02*
X841300D01*
X1027429Y159578D02*
Y159578D01*
X1245834Y116264D02*
X1245835Y116263D01*
X1245834Y116264D02*
X1245835Y116263D01*
X947618Y752238D02*
X963817Y752238D01*
X947618Y752238D02*
X963817Y752238D01*
X977561Y540609D02*
X977561Y559608D01*
X944027Y188782D02*
X957484Y185724D01*
X944027Y188782D02*
X957484Y185724D01*
X429453Y820632D02*
X429454Y839631D01*
X1023220Y141050D02*
X1027429Y159578D01*
X420598Y647003D02*
X423397D01*
X399397Y657003D02*
Y667003D01*
Y647003D02*
Y657003D01*
X533397D02*
Y667003D01*
Y647003D02*
Y657003D01*
X509397Y647003D02*
X512198D01*
X785676Y449197D02*
X788477D01*
X764477Y459197D02*
Y469197D01*
Y449197D02*
Y459197D01*
X898476D02*
Y469197D01*
Y449197D02*
Y459197D01*
X874476Y449197D02*
X877277D01*
X1038671Y146769D02*
X1054468Y143180D01*
X1038671Y146769D02*
X1054468Y143180D01*
X1040887Y156521D02*
X1056683Y152931D01*
X1040887Y156521D02*
X1056683Y152931D01*
X785733Y631826D02*
X788532D01*
X764532Y641826D02*
Y651826D01*
Y631826D02*
Y641826D01*
X898533D02*
Y651826D01*
Y631826D02*
Y641826D01*
X874532Y631826D02*
X877333D01*
X603093Y497193D02*
X605892D01*
X581892Y507193D02*
Y517193D01*
Y497193D02*
Y507193D01*
X715892D02*
Y517193D01*
Y497193D02*
Y507193D01*
X691893Y497193D02*
X694693D01*
X612060Y1036081D02*
X612061Y1055081D01*
X612004Y853452D02*
X612005Y872451D01*
X429300Y455373D02*
Y474373D01*
Y455373D02*
Y474373D01*
X977617Y723238D02*
X977618Y742238D01*
X64030Y383723D02*
X64030Y402723D01*
X246800Y774658D02*
X246800Y793658D01*
X739700Y240000D02*
X753500D01*
X232860Y438399D02*
X246660Y438400D01*
X232860Y438399D02*
X246660Y438400D01*
X216660D02*
X232860Y438399D01*
X216660Y438400D02*
X232860Y438399D01*
X955268Y175972D02*
Y175973D01*
X723500Y230000D02*
Y240000D01*
X836300Y220000D02*
X841300D01*
X612060Y1036081D02*
X612061Y1055081D01*
X582061Y1055082D02*
Y1065082D01*
Y1045082D02*
Y1055082D01*
X603261Y1045082D02*
X606061D01*
X716061Y1055082D02*
Y1065082D01*
Y1045082D02*
Y1055082D01*
X692061Y1045082D02*
X694861D01*
X1056683Y152931D02*
X1056684D01*
X1056683D02*
X1056684D01*
X691948Y679823D02*
X694749D01*
X715949D02*
Y689823D01*
Y699823D01*
X581949Y679823D02*
Y689823D01*
Y699823D01*
X603149Y679823D02*
X605949D01*
X692004Y862452D02*
X694805D01*
X716004D02*
Y872452D01*
Y882452D01*
X603204Y862452D02*
X606004D01*
X582005D02*
Y872452D01*
Y882452D01*
X612004Y853452D02*
X612005Y872451D01*
X764589Y814455D02*
Y824455D01*
X951058Y157445D02*
X955268Y175972D01*
X951058Y157445D02*
X955268Y175972D01*
X503300Y455373D02*
Y474373D01*
Y455373D02*
Y474373D01*
X1027430Y159578D02*
X1029645Y169329D01*
X1027430Y159578D02*
X1029645Y169329D01*
X1240492Y132446D02*
X1246341Y140557D01*
X1240492Y132446D02*
X1246341Y140557D01*
X1229377Y117036D02*
X1240492Y132446D01*
X1229377Y117036D02*
X1240492Y132446D01*
X955268Y175973D02*
X957484Y185724D01*
X1054468Y143180D02*
X1054469D01*
X1054468D02*
X1054469D01*
X1027429Y159578D02*
X1027430D01*
X1027429D02*
X1027430D01*
X1038671Y146769D02*
X1038671D01*
X429453Y820632D02*
X429454Y839631D01*
X246800Y774658D02*
X246800Y793658D01*
X977561Y540609D02*
X977561Y559608D01*
X977617Y723238D02*
X977618Y742238D01*
X739700Y240001D02*
X753500Y240000D01*
X64030Y383723D02*
X64030Y402723D01*
X939596Y169278D02*
X944472Y168171D01*
X753500Y230001D02*
Y240000D01*
X827500Y230001D02*
Y240000D01*
X420654Y829632D02*
X423453D01*
X399453Y839632D02*
Y849632D01*
X216700Y611029D02*
Y621029D01*
Y601029D02*
Y611029D01*
X237900Y601029D02*
X240700D01*
X55287Y575353D02*
X58086D01*
X34086Y585353D02*
Y595353D01*
X944472Y168171D02*
X947202Y167550D01*
X926013Y182619D02*
X928229Y192371D01*
X923798Y172867D02*
X926013Y182619D01*
X744700Y220000D02*
X747500D01*
X968761Y549608D02*
X971561D01*
X947561Y559608D02*
Y569609D01*
Y549608D02*
Y559608D01*
X34143Y767982D02*
Y777982D01*
Y757982D02*
Y767982D01*
X55343Y757982D02*
X58143D01*
X723500Y220000D02*
X723500Y230000D01*
X968858Y366964D02*
X971658D01*
X947658Y376964D02*
Y386964D01*
Y366964D02*
Y376964D01*
X216800Y803658D02*
X216800Y793658D01*
Y783658D02*
Y793658D01*
X238000Y783658D02*
X240800D01*
X238000Y966287D02*
X240800D01*
X216800Y976287D02*
Y986287D01*
Y966287D02*
Y976287D01*
X764589Y824455D02*
Y834455D01*
X785789Y814455D02*
X788589D01*
X1167487Y172770D02*
X1169757Y171133D01*
X1156141Y193282D02*
X1161991Y201393D01*
X1150292Y185171D02*
X1156141Y193282D01*
X786049Y997084D02*
X788849D01*
X764849Y1007084D02*
Y1017084D01*
Y997084D02*
Y1007084D01*
X968818Y732238D02*
X971618D01*
X947618Y742238D02*
Y752238D01*
Y732238D02*
Y742238D01*
X55399Y940611D02*
X58199D01*
X34199Y950611D02*
Y960611D01*
X216660Y428400D02*
Y438400D01*
Y418400D02*
Y428400D01*
X237860Y418400D02*
X240660D01*
X399510Y1022261D02*
Y1032261D01*
X420710Y1012261D02*
X423510D01*
X420500Y464374D02*
X423300D01*
X399300Y474374D02*
Y484374D01*
Y464374D02*
Y474374D01*
X34031Y402724D02*
Y412724D01*
Y392724D02*
Y402724D01*
X55230Y392724D02*
X58031D01*
X898589Y824455D02*
Y834455D01*
Y814455D02*
Y824455D01*
X874589Y814455D02*
X877389D01*
X1081618Y742238D02*
Y752238D01*
Y732238D02*
Y742238D01*
X1057617Y732238D02*
X1060418D01*
X1081561Y559609D02*
Y569609D01*
Y549608D02*
Y559609D01*
X1057561Y549608D02*
X1060361D01*
X350700Y611029D02*
Y621029D01*
Y601029D02*
Y611029D01*
X326700Y601029D02*
X329500D01*
X533300Y474374D02*
Y484374D01*
Y464374D02*
Y474374D01*
X509300Y464374D02*
X512100D01*
X350660Y428400D02*
Y438400D01*
Y418400D02*
Y428400D01*
X326660Y418400D02*
X329460D01*
X168199Y950611D02*
Y960611D01*
Y940611D02*
Y950611D01*
X144199Y940611D02*
X146999D01*
X168143Y767982D02*
Y777982D01*
Y757982D02*
Y767982D01*
X144143Y757982D02*
X146943D01*
X168086Y585353D02*
Y595353D01*
Y575353D02*
Y585353D01*
X144086Y575353D02*
X146887D01*
X168030Y402724D02*
Y412724D01*
Y392724D02*
Y402724D01*
X144030Y392724D02*
X146830D01*
X1081658Y376964D02*
Y386964D01*
Y366964D02*
Y376964D01*
X1057658Y366964D02*
X1060458D01*
X857500Y230000D02*
Y240000D01*
Y220000D02*
Y230000D01*
X833500Y220000D02*
X836300D01*
X1056684Y152931D02*
X1058899Y162683D01*
X1054469Y143180D02*
X1056684Y152931D01*
X1031064Y148497D02*
X1033795Y147877D01*
X1264824Y114897D02*
X1270674Y123008D01*
X1258975Y106787D02*
X1264824Y114897D01*
X1239509Y120826D02*
X1241780Y119188D01*
X898849Y1007084D02*
Y1017084D01*
Y997084D02*
Y1007084D01*
X874849Y997084D02*
X877649D01*
X533509Y1022261D02*
Y1032261D01*
Y1012261D02*
Y1022261D01*
X509509Y1012261D02*
X512310D01*
X350800Y976287D02*
Y986287D01*
Y966287D02*
Y976287D01*
X326800Y966287D02*
X329600D01*
X350800Y793658D02*
Y803658D01*
Y783658D02*
Y793658D01*
X326800Y783658D02*
X329600D01*
X533453Y839632D02*
Y849632D01*
Y829632D02*
Y839632D01*
X509454Y829632D02*
X512254D01*
D30*
X963752Y924867D02*
X968752Y914867D01*
X976452Y899467D02*
X989152Y876099D01*
X968752Y914867D02*
X976452Y899467D01*
X1039952Y876099D02*
X1052652Y899467D01*
X1060352Y914867D01*
X1065352Y924867D01*
X415597Y657003D02*
X420598Y647003D01*
X428298Y631603D01*
X512198Y647003D02*
X517197Y657003D01*
X504497Y631603D02*
X512198Y647003D01*
X491797Y608235D02*
X504497Y631603D01*
X428298D02*
X440998Y608235D01*
X780677Y459197D02*
X785676Y449197D01*
X793376Y433797D01*
X877277Y449197D02*
X882276Y459197D01*
X869576Y433797D02*
X877277Y449197D01*
X856877Y410429D02*
X869576Y433797D01*
X793376D02*
X806076Y410429D01*
X780733Y641826D02*
X785733Y631826D01*
X793433Y616426D01*
X877333Y631826D02*
X882333Y641826D01*
X869633Y616426D02*
X877333Y631826D01*
X856933Y593058D02*
X869633Y616426D01*
X793433D02*
X806133Y593058D01*
X598092Y507193D02*
X603093Y497193D01*
X610792Y481793D01*
X694693Y497193D02*
X699692Y507193D01*
X686992Y481793D02*
X694693Y497193D01*
X674292Y458425D02*
X686992Y481793D01*
X610792D02*
X623492Y458425D01*
X598261Y1055082D02*
X603261Y1045082D01*
X610961Y1029682D01*
X694861Y1045082D02*
X699861Y1055082D01*
X687161Y1029682D02*
X694861Y1045082D01*
X610961Y1029682D02*
X623661Y1006314D01*
X674461D02*
X687161Y1029682D01*
X674349Y641055D02*
X687049Y664423D01*
X610849D02*
X623549Y641055D01*
X687049Y664423D02*
X694749Y679823D01*
X699749Y689823D01*
X603149Y679823D02*
X610849Y664423D01*
X598149Y689823D02*
X603149Y679823D01*
X610904Y847052D02*
X623604Y823684D01*
X674404D02*
X687104Y847052D01*
X694805Y862452D01*
X699804Y872452D01*
X603204Y862452D02*
X610904Y847052D01*
X598204Y872452D02*
X603204Y862452D01*
X415653Y839632D02*
X420654Y829632D01*
X428353Y814232D01*
X233000Y793658D02*
X238000Y783658D01*
X245700Y768258D01*
X963817Y742238D02*
X968818Y732238D01*
X976517Y716838D01*
X232900Y611029D02*
X237900Y601029D01*
X245600Y585629D01*
X50287Y585353D02*
X55287Y575353D01*
X62987Y559953D01*
X941811Y179030D02*
X944472Y168171D01*
X948569Y151447D01*
X739700Y230000D02*
X744700Y220000D01*
X752400Y204600D01*
X963761Y559608D02*
X968761Y549608D01*
X976461Y534209D01*
X50343Y767982D02*
X55343Y757982D01*
X63043Y742582D01*
X50399Y950611D02*
X55399Y940611D01*
X63099Y925211D01*
X963858Y376964D02*
X968858Y366964D01*
X976558Y351564D01*
X233000Y976287D02*
X238000Y966287D01*
X245700Y950887D01*
X780789Y824455D02*
X785789Y814455D01*
X793489Y799055D01*
X1167487Y172770D02*
X1169280Y183806D01*
X1164723Y155776D02*
X1167487Y172770D01*
X781049Y1007084D02*
X786049Y997084D01*
X793749Y981684D01*
X232860Y428400D02*
X237860Y418400D01*
X245560Y403000D01*
X415710Y1022261D02*
X420710Y1012261D01*
X428410Y996861D01*
X415500Y474374D02*
X420500Y464374D01*
X428200Y448974D01*
X50230Y402724D02*
X55230Y392724D01*
X62930Y377324D01*
X877389Y814455D02*
X882389Y824455D01*
X869689Y799055D02*
X877389Y814455D01*
X1060418Y732238D02*
X1065417Y742238D01*
X1052717Y716838D02*
X1060418Y732238D01*
X1060361Y549608D02*
X1065361Y559609D01*
X1052661Y534209D02*
X1060361Y549608D01*
X329500Y601029D02*
X334500Y611029D01*
X321800Y585629D02*
X329500Y601029D01*
X512100Y464374D02*
X517100Y474374D01*
X504400Y448974D02*
X512100Y464374D01*
X329460Y418400D02*
X334460Y428400D01*
X321760Y403000D02*
X329460Y418400D01*
X146999Y940611D02*
X151999Y950611D01*
X139299Y925211D02*
X146999Y940611D01*
X146943Y757982D02*
X151943Y767982D01*
X139243Y742582D02*
X146943Y757982D01*
X146887Y575353D02*
X151887Y585353D01*
X139187Y559953D02*
X146887Y575353D01*
X146830Y392724D02*
X151830Y402724D01*
X139130Y377324D02*
X146830Y392724D01*
X1060458Y366964D02*
X1065458Y376964D01*
X1052758Y351564D02*
X1060458Y366964D01*
X836300Y220000D02*
X841300Y230000D01*
X828600Y204600D02*
X836300Y220000D01*
X1033795Y147877D02*
X1040887Y156521D01*
X1022874Y134565D02*
X1033795Y147877D01*
X1241780Y119188D02*
X1251685Y124374D01*
X1226526Y111202D02*
X1241780Y119188D01*
X877649Y997084D02*
X882649Y1007084D01*
X869949Y981684D02*
X877649Y997084D01*
X512310Y1012261D02*
X517310Y1022261D01*
X504610Y996861D02*
X512310Y1012261D01*
X329600Y966287D02*
X334600Y976287D01*
X321900Y950887D02*
X329600Y966287D01*
Y783658D02*
X334600Y793658D01*
X321900Y768258D02*
X329600Y783658D01*
X512254Y829632D02*
X517253Y839632D01*
X504553Y814232D02*
X512254Y829632D01*
X857249Y958316D02*
X869949Y981684D01*
X793749D02*
X806449Y958316D01*
X1202557Y99678D02*
X1226526Y111202D01*
X1161354Y129394D02*
X1164723Y155776D01*
X856989Y775687D02*
X869689Y799055D01*
X793489D02*
X806189Y775687D01*
X126487Y536585D02*
X139187Y559953D01*
X62987D02*
X75687Y536585D01*
X309100Y562261D02*
X321800Y585629D01*
X245600D02*
X258300Y562261D01*
X1039961Y510840D02*
X1052661Y534209D01*
X976461D02*
X989161Y510841D01*
X126543Y719214D02*
X139243Y742582D01*
X63043D02*
X75743Y719214D01*
X309200Y927519D02*
X321900Y950887D01*
X245700D02*
X258400Y927519D01*
X1040058Y328196D02*
X1052758Y351564D01*
X976558D02*
X989258Y328196D01*
X491700Y425606D02*
X504400Y448974D01*
X428200D02*
X440900Y425606D01*
X309060Y379632D02*
X321760Y403000D01*
X245560D02*
X258260Y379632D01*
X1005313Y114592D02*
X1022874Y134565D01*
X948569Y151447D02*
X955775Y125847D01*
X815900Y181232D02*
X828600Y204600D01*
X752400Y204600D02*
X765100Y181232D01*
X309200Y744890D02*
X321900Y768258D01*
X245700D02*
X258400Y744890D01*
X491853Y790864D02*
X504553Y814232D01*
X428353D02*
X441053Y790864D01*
X976517Y716838D02*
X989217Y693470D01*
X1040017D02*
X1052717Y716838D01*
X63099Y925211D02*
X75799Y901843D01*
X126599D02*
X139299Y925211D01*
X62930Y377324D02*
X75630Y353956D01*
X126430D02*
X139130Y377324D01*
X428410Y996861D02*
X441110Y973493D01*
X491910D02*
X504610Y996861D01*
D31*
X1222500Y500000D02*
Y635000D01*
Y735000D01*
Y880000D02*
X1222700Y880200D01*
X1282300D01*
X1282500Y880400D01*
D32*
X976452Y899467D02*
D03*
X1052652D02*
D03*
X504497Y631603D02*
D03*
X428298D02*
D03*
X869576Y433797D02*
D03*
X793376D02*
D03*
X869633Y616426D02*
D03*
X793433D02*
D03*
X686992Y481793D02*
D03*
X610792D02*
D03*
X610961Y1029682D02*
D03*
X687161D02*
D03*
X687049Y664423D02*
D03*
X610849D02*
D03*
X610904Y847052D02*
D03*
X687104D02*
D03*
X869949Y981684D02*
D03*
X793749D02*
D03*
X1226526Y111202D02*
D03*
X1164723Y155776D02*
D03*
X869689Y799055D02*
D03*
X793489D02*
D03*
X139187Y559953D02*
D03*
X62987D02*
D03*
X321800Y585629D02*
D03*
X245600D02*
D03*
X1052661Y534209D02*
D03*
X976461D02*
D03*
X139243Y742582D02*
D03*
X63043D02*
D03*
X321900Y950887D02*
D03*
X245700D02*
D03*
X1052758Y351564D02*
D03*
X976558D02*
D03*
X504400Y448974D02*
D03*
X428200D02*
D03*
X321760Y403000D02*
D03*
X245560D02*
D03*
X1022874Y134565D02*
D03*
X948569Y151447D02*
D03*
X828600Y204600D02*
D03*
X752400Y204600D02*
D03*
X321900Y768258D02*
D03*
X245700D02*
D03*
X504553Y814232D02*
D03*
X428353D02*
D03*
X976517Y716838D02*
D03*
X1052717D02*
D03*
X63099Y925211D02*
D03*
X139299D02*
D03*
X62930Y377324D02*
D03*
X139130D02*
D03*
X428410Y996861D02*
D03*
X504610D02*
D03*
D33*
X947552Y914867D02*
D03*
Y934867D02*
D03*
Y924867D02*
D03*
X1081552D02*
D03*
Y914867D02*
D03*
Y934867D02*
D03*
X533397Y647003D02*
D03*
Y667003D02*
D03*
Y657003D02*
D03*
X399397D02*
D03*
Y647003D02*
D03*
Y667003D02*
D03*
X898476Y449197D02*
D03*
Y469197D02*
D03*
Y459197D02*
D03*
X764477D02*
D03*
Y449197D02*
D03*
Y469197D02*
D03*
X898533Y631826D02*
D03*
Y651826D02*
D03*
Y641826D02*
D03*
X764532D02*
D03*
Y631826D02*
D03*
Y651826D02*
D03*
X715892Y497193D02*
D03*
Y517193D02*
D03*
Y507193D02*
D03*
X581892D02*
D03*
Y497193D02*
D03*
Y517193D02*
D03*
X582061Y1065082D02*
D03*
Y1045082D02*
D03*
Y1055082D02*
D03*
X716061D02*
D03*
Y1065082D02*
D03*
Y1045082D02*
D03*
X715949Y679823D02*
D03*
Y699823D02*
D03*
Y689823D02*
D03*
X581949D02*
D03*
Y679823D02*
D03*
Y699823D02*
D03*
X582005Y882452D02*
D03*
Y862452D02*
D03*
Y872452D02*
D03*
X716004D02*
D03*
Y882452D02*
D03*
Y862452D02*
D03*
X898849Y997084D02*
D03*
Y1017084D02*
D03*
Y1007084D02*
D03*
X764849D02*
D03*
Y997084D02*
D03*
Y1017084D02*
D03*
X1258975Y106787D02*
D03*
X1270674Y123008D02*
D03*
X1264824Y114897D02*
D03*
X1156141Y193282D02*
D03*
X1150292Y185171D02*
D03*
X1161991Y201393D02*
D03*
X898589Y814455D02*
D03*
Y834455D02*
D03*
Y824455D02*
D03*
X764589D02*
D03*
Y814455D02*
D03*
Y834455D02*
D03*
X168086Y575353D02*
D03*
Y595353D02*
D03*
Y585353D02*
D03*
X34086D02*
D03*
Y575353D02*
D03*
Y595353D02*
D03*
X350700Y601029D02*
D03*
Y621029D02*
D03*
Y611029D02*
D03*
X216700D02*
D03*
Y601029D02*
D03*
Y621029D02*
D03*
X1081561Y549608D02*
D03*
Y569609D02*
D03*
Y559609D02*
D03*
X947561Y559608D02*
D03*
Y549608D02*
D03*
Y569609D02*
D03*
X168143Y757982D02*
D03*
Y777982D02*
D03*
Y767982D02*
D03*
X34143D02*
D03*
Y757982D02*
D03*
Y777982D02*
D03*
X350800Y966287D02*
D03*
Y986287D02*
D03*
Y976287D02*
D03*
X216800D02*
D03*
Y966287D02*
D03*
Y986287D02*
D03*
X1081658Y366964D02*
D03*
Y386964D02*
D03*
Y376964D02*
D03*
X947658D02*
D03*
Y366964D02*
D03*
Y386964D02*
D03*
X533300Y464374D02*
D03*
Y484374D02*
D03*
Y474374D02*
D03*
X399300D02*
D03*
Y464374D02*
D03*
Y484374D02*
D03*
X350660Y418400D02*
D03*
Y438400D02*
D03*
Y428400D02*
D03*
X216660D02*
D03*
Y418400D02*
D03*
Y438400D02*
D03*
X1054469Y143180D02*
D03*
X1058899Y162683D02*
D03*
X1056684Y152931D02*
D03*
X926013Y182619D02*
D03*
X923798Y172867D02*
D03*
X928229Y192371D02*
D03*
X857500Y220000D02*
D03*
Y240000D02*
D03*
Y230000D02*
D03*
X723500D02*
D03*
X723500Y220000D02*
D03*
X723500Y240000D02*
D03*
X350800Y783658D02*
D03*
Y803658D02*
D03*
Y793658D02*
D03*
X216800D02*
D03*
X216800Y783658D02*
D03*
X216800Y803658D02*
D03*
X533453Y829632D02*
D03*
Y849632D02*
D03*
Y839632D02*
D03*
X399453D02*
D03*
Y829632D02*
D03*
Y849632D02*
D03*
X947618Y752238D02*
D03*
Y732238D02*
D03*
Y742238D02*
D03*
X1081618D02*
D03*
Y752238D02*
D03*
Y732238D02*
D03*
X34199Y960611D02*
D03*
Y940611D02*
D03*
Y950611D02*
D03*
X168199D02*
D03*
Y960611D02*
D03*
Y940611D02*
D03*
X34031Y412724D02*
D03*
Y392724D02*
D03*
Y402724D02*
D03*
X168030D02*
D03*
Y412724D02*
D03*
Y392724D02*
D03*
X399510Y1032261D02*
D03*
Y1012261D02*
D03*
Y1022261D02*
D03*
X533509D02*
D03*
Y1032261D02*
D03*
Y1012261D02*
D03*
D34*
X963752Y924867D02*
D03*
X1065352D02*
D03*
X517197Y657003D02*
D03*
X415597D02*
D03*
X882276Y459197D02*
D03*
X780677D02*
D03*
X882333Y641826D02*
D03*
X780733D02*
D03*
X699692Y507193D02*
D03*
X598092D02*
D03*
X598261Y1055082D02*
D03*
X699861D02*
D03*
X699749Y689823D02*
D03*
X598149D02*
D03*
X598204Y872452D02*
D03*
X699804D02*
D03*
X1222500Y635000D02*
D03*
X882649Y1007084D02*
D03*
X781049D02*
D03*
X1251685Y124374D02*
D03*
X1169280Y183806D02*
D03*
X882389Y824455D02*
D03*
X780789D02*
D03*
X151887Y585353D02*
D03*
X50287D02*
D03*
X334500Y611029D02*
D03*
X232900D02*
D03*
X1065361Y559609D02*
D03*
X963761Y559608D02*
D03*
X151943Y767982D02*
D03*
X50343D02*
D03*
X334600Y976287D02*
D03*
X233000D02*
D03*
X1065458Y376964D02*
D03*
X963858D02*
D03*
X517100Y474374D02*
D03*
X415500D02*
D03*
X334460Y428400D02*
D03*
X232860D02*
D03*
X1040887Y156521D02*
D03*
X941811Y179030D02*
D03*
X841300Y230000D02*
D03*
X739700D02*
D03*
X1222500Y365000D02*
D03*
X334600Y793658D02*
D03*
X233000D02*
D03*
X517253Y839632D02*
D03*
X415653D02*
D03*
X963817Y742238D02*
D03*
X1065417D02*
D03*
X50399Y950611D02*
D03*
X151999D02*
D03*
X50230Y402724D02*
D03*
X151830D02*
D03*
X415710Y1022261D02*
D03*
X517310D02*
D03*
D35*
X989152Y876099D02*
D03*
X1039952D02*
D03*
X440998Y608235D02*
D03*
X491797D02*
D03*
X806076Y410429D02*
D03*
X856877D02*
D03*
X806133Y593058D02*
D03*
X856933D02*
D03*
X623492Y458425D02*
D03*
X674292D02*
D03*
X674461Y1006314D02*
D03*
X623661D02*
D03*
X623549Y641055D02*
D03*
X674349D02*
D03*
X674404Y823684D02*
D03*
X623604D02*
D03*
X806449Y958316D02*
D03*
X857249D02*
D03*
X806189Y775687D02*
D03*
X856989D02*
D03*
X75687Y536585D02*
D03*
X126487D02*
D03*
X258300Y562261D02*
D03*
X309100D02*
D03*
X989161Y510841D02*
D03*
X1039961Y510840D02*
D03*
X75743Y719214D02*
D03*
X126543D02*
D03*
X258400Y927519D02*
D03*
X309200D02*
D03*
X989258Y328196D02*
D03*
X1040058D02*
D03*
X440900Y425606D02*
D03*
X491700D02*
D03*
X258260Y379632D02*
D03*
X309060D02*
D03*
X765100Y181232D02*
D03*
X815900D02*
D03*
X258400Y744890D02*
D03*
X309200D02*
D03*
X441053Y790864D02*
D03*
X491853D02*
D03*
X1040017Y693470D02*
D03*
X989217D02*
D03*
X126599Y901843D02*
D03*
X75799D02*
D03*
X126430Y353956D02*
D03*
X75630D02*
D03*
X491910Y973493D02*
D03*
X441110D02*
D03*
D36*
X1014552Y924867D02*
D03*
X466398Y657003D02*
D03*
X831477Y459197D02*
D03*
X831533Y641826D02*
D03*
X648892Y507193D02*
D03*
X649061Y1055082D02*
D03*
X648949Y689823D02*
D03*
X649004Y872452D02*
D03*
X831849Y1007084D02*
D03*
X1210483Y154090D02*
D03*
X831589Y824455D02*
D03*
X101087Y585353D02*
D03*
X283700Y611029D02*
D03*
X1014561Y559608D02*
D03*
X101143Y767982D02*
D03*
X283800Y976287D02*
D03*
X1014658Y376964D02*
D03*
X466300Y474374D02*
D03*
X283660Y428400D02*
D03*
X991348Y167775D02*
D03*
X790500Y230000D02*
D03*
X283800Y793658D02*
D03*
X466453Y839632D02*
D03*
X1014617Y742238D02*
D03*
X101199Y950611D02*
D03*
X101030Y402724D02*
D03*
X466510Y1022261D02*
D03*
D37*
X1001852Y975667D02*
D03*
X1027252D02*
D03*
X453698Y707803D02*
D03*
X479098D02*
D03*
X818777Y509997D02*
D03*
X844177D02*
D03*
X818833Y692626D02*
D03*
X844233D02*
D03*
X636192Y557993D02*
D03*
X661592D02*
D03*
X661761Y1105882D02*
D03*
X636361D02*
D03*
X636249Y740623D02*
D03*
X661649D02*
D03*
X661704Y923252D02*
D03*
X636304D02*
D03*
X819149Y1057884D02*
D03*
X844549D02*
D03*
X1229898Y202721D02*
D03*
X1250499Y187863D02*
D03*
X818889Y875255D02*
D03*
X844289D02*
D03*
X88387Y636153D02*
D03*
X113787D02*
D03*
X271000Y661829D02*
D03*
X296400D02*
D03*
X1001861Y610408D02*
D03*
X1027261Y610409D02*
D03*
X88443Y818782D02*
D03*
X113843D02*
D03*
X271100Y1027087D02*
D03*
X296500D02*
D03*
X1001958Y427764D02*
D03*
X1027358D02*
D03*
X453600Y525174D02*
D03*
X479000D02*
D03*
X270960Y479200D02*
D03*
X296360D02*
D03*
X990219Y220126D02*
D03*
X1014988Y214499D02*
D03*
X777800Y280800D02*
D03*
X803200Y280800D02*
D03*
X271100Y844458D02*
D03*
X296500D02*
D03*
X453753Y890432D02*
D03*
X479153D02*
D03*
X1027317Y793038D02*
D03*
X1001917D02*
D03*
X113899Y1001411D02*
D03*
X88499D02*
D03*
X113730Y453524D02*
D03*
X88330D02*
D03*
X479210Y1073061D02*
D03*
X453810D02*
D03*
D38*
X1282500Y905800D02*
D03*
D39*
Y880400D02*
D03*
Y855000D02*
D03*
Y829600D02*
D03*
D40*
X1161354Y129394D02*
D03*
X1202557Y99678D02*
D03*
D41*
X955775Y125847D02*
D03*
X1005313Y114592D02*
D03*
D42*
X1192500Y935000D02*
D03*
X1287564Y935063D02*
D03*
X1153658Y929840D02*
D03*
X1238702Y1007084D02*
D03*
D43*
X1142500Y958000D02*
D03*
Y982000D02*
D03*
D44*
X1189500Y985000D02*
D03*
X1165500D02*
D03*
D45*
X1213000Y906500D02*
D03*
X1232000D02*
D03*
X1222500Y880000D02*
D03*
M02*
